<svg width="598" height="522" viewBox="0 0 598 522" fill="none" xmlns="http://www.w3.org/2000/svg">
<rect opacity="0.38" x="0.719971" y="0.918945" width="597.28" height="494.162" rx="6" fill="#E9EAF0"/>
<mask id="mask0" mask-type="alpha" maskUnits="userSpaceOnUse" x="1" y="1" width="597" height="521">
<rect x="1" y="1" width="597" height="521" rx="6" fill="#E9EAF0"/>
</mask>
<g mask="url(#mask0)">
<g filter="url(#filter0_dd)">
<rect x="89.2734" y="53.217" width="420.173" height="496.967" rx="6" fill="white"/>
</g>
<path d="M204.545 161.456C203.811 161.456 203.125 161.623 202.485 161.956C201.858 162.29 201.305 162.756 200.825 163.356C200.358 163.956 199.991 164.67 199.725 165.496C199.458 166.31 199.325 167.203 199.325 168.176C199.325 168.896 199.418 169.536 199.605 170.096C199.791 170.643 200.051 171.103 200.385 171.476C200.718 171.85 201.111 172.136 201.565 172.336C202.031 172.523 202.538 172.616 203.085 172.616C203.711 172.616 204.265 172.53 204.745 172.356C205.238 172.183 205.718 171.976 206.185 171.736L206.505 173.456C206.011 173.683 205.465 173.876 204.865 174.036C204.265 174.196 203.585 174.276 202.825 174.276C201.998 174.276 201.251 174.143 200.585 173.876C199.918 173.61 199.345 173.223 198.865 172.716C198.385 172.21 198.011 171.59 197.745 170.856C197.491 170.11 197.365 169.263 197.365 168.316C197.365 167.116 197.545 165.996 197.905 164.956C198.265 163.916 198.765 163.016 199.405 162.256C200.058 161.496 200.831 160.896 201.725 160.456C202.631 160.016 203.625 159.796 204.705 159.796C205.505 159.796 206.198 159.903 206.785 160.116C207.385 160.33 207.885 160.55 208.285 160.776L207.425 162.336C207.025 162.083 206.605 161.876 206.165 161.716C205.725 161.543 205.185 161.456 204.545 161.456ZM210.376 166.556C210.389 166.49 210.396 166.416 210.396 166.336C210.409 166.243 210.416 166.15 210.416 166.056C210.416 165.683 210.309 165.423 210.096 165.276C209.883 165.116 209.603 165.036 209.256 165.036L209.876 163.636C210.596 163.636 211.143 163.803 211.516 164.136C211.889 164.47 212.076 164.976 212.076 165.656V166.056C212.463 165.096 212.956 164.416 213.556 164.016C214.169 163.603 214.863 163.396 215.636 163.396C215.943 163.396 216.203 163.423 216.416 163.476C216.643 163.516 216.829 163.57 216.976 163.636L216.176 165.396C216.016 165.33 215.849 165.283 215.676 165.256C215.503 165.23 215.303 165.216 215.076 165.216C214.716 165.216 214.356 165.31 213.996 165.496C213.636 165.67 213.296 165.97 212.976 166.396C212.656 166.823 212.363 167.383 212.096 168.076C211.829 168.77 211.609 169.63 211.436 170.656L210.856 174.036H209.056L210.376 166.556ZM221.546 174.276C220.879 174.276 220.273 174.17 219.726 173.956C219.179 173.73 218.706 173.416 218.306 173.016C217.919 172.603 217.613 172.103 217.386 171.516C217.173 170.93 217.066 170.27 217.066 169.536C217.066 168.71 217.199 167.923 217.466 167.176C217.733 166.43 218.106 165.776 218.586 165.216C219.079 164.656 219.673 164.216 220.366 163.896C221.059 163.563 221.833 163.396 222.686 163.396C223.259 163.396 223.773 163.483 224.226 163.656C224.679 163.83 225.059 164.056 225.366 164.336C225.686 164.616 225.926 164.943 226.086 165.316C226.259 165.69 226.346 166.076 226.346 166.476C226.346 167.223 226.166 167.83 225.806 168.296C225.459 168.763 225.019 169.136 224.486 169.416C223.953 169.683 223.366 169.87 222.726 169.976C222.086 170.07 221.479 170.116 220.906 170.116C220.546 170.116 220.186 170.103 219.826 170.076C219.479 170.036 219.173 169.996 218.906 169.956C219.013 170.836 219.319 171.51 219.826 171.976C220.346 172.443 221.019 172.676 221.846 172.676C222.513 172.676 223.106 172.59 223.626 172.416C224.146 172.243 224.586 172.07 224.946 171.896L225.106 173.496C224.706 173.683 224.199 173.863 223.586 174.036C222.986 174.196 222.306 174.276 221.546 174.276ZM222.546 164.916C222.079 164.916 221.639 165.01 221.226 165.196C220.826 165.37 220.466 165.616 220.146 165.936C219.839 166.256 219.579 166.636 219.366 167.076C219.166 167.516 219.026 167.996 218.946 168.516C219.253 168.583 219.559 168.63 219.866 168.656C220.173 168.683 220.519 168.696 220.906 168.696C222.039 168.696 222.926 168.543 223.566 168.236C224.219 167.916 224.546 167.376 224.546 166.616C224.546 166.15 224.359 165.75 223.986 165.416C223.626 165.083 223.146 164.916 222.546 164.916ZM227.818 169.936C227.818 168.976 227.978 168.096 228.298 167.296C228.631 166.483 229.091 165.79 229.678 165.216C230.264 164.643 230.964 164.196 231.778 163.876C232.591 163.556 233.478 163.396 234.438 163.396C235.224 163.396 235.911 163.476 236.498 163.636C237.098 163.796 237.591 163.956 237.978 164.116L236.718 171.216C236.704 171.283 236.691 171.363 236.678 171.456C236.678 171.536 236.678 171.623 236.678 171.716C236.678 172.09 236.784 172.356 236.998 172.516C237.211 172.663 237.491 172.736 237.838 172.736L237.218 174.136C236.498 174.136 235.944 173.963 235.558 173.616C235.184 173.27 234.998 172.716 234.998 171.956C234.624 172.596 234.151 173.143 233.578 173.596C233.018 174.05 232.358 174.276 231.598 174.276C231.104 174.276 230.631 174.176 230.178 173.976C229.724 173.776 229.318 173.49 228.958 173.116C228.611 172.743 228.331 172.29 228.118 171.756C227.918 171.21 227.818 170.603 227.818 169.936ZM235.998 165.176C235.744 165.096 235.478 165.036 235.198 164.996C234.931 164.943 234.604 164.916 234.218 164.916C233.524 164.916 232.898 165.036 232.338 165.276C231.778 165.516 231.298 165.85 230.898 166.276C230.498 166.703 230.191 167.21 229.978 167.796C229.764 168.383 229.658 169.023 229.658 169.716C229.658 170.196 229.724 170.623 229.858 170.996C230.004 171.356 230.191 171.663 230.418 171.916C230.644 172.17 230.898 172.363 231.178 172.496C231.471 172.616 231.771 172.676 232.078 172.676C232.478 172.676 232.858 172.57 233.218 172.356C233.591 172.143 233.924 171.843 234.218 171.456C234.511 171.056 234.764 170.59 234.978 170.056C235.191 169.51 235.351 168.916 235.458 168.276L235.998 165.176ZM240.414 164.016H242.254L243.214 160.736H244.594L244.014 164.016H246.894L246.634 165.576H243.734L242.894 170.436C242.84 170.703 242.814 170.956 242.814 171.196C242.814 171.663 242.947 172.03 243.214 172.296C243.494 172.55 243.867 172.676 244.334 172.676C244.72 172.676 245.04 172.623 245.294 172.516C245.56 172.396 245.807 172.276 246.034 172.156L246.254 173.716C246 173.863 245.68 173.99 245.294 174.096C244.92 174.216 244.5 174.276 244.034 174.276C243.66 174.276 243.294 174.216 242.934 174.096C242.574 173.99 242.254 173.823 241.974 173.596C241.694 173.356 241.467 173.05 241.294 172.676C241.12 172.303 241.034 171.856 241.034 171.336C241.034 171.19 241.04 171.043 241.054 170.896C241.067 170.736 241.087 170.556 241.114 170.356L241.934 165.576H240.154L240.414 164.016ZM252.551 174.276C251.884 174.276 251.277 174.17 250.731 173.956C250.184 173.73 249.711 173.416 249.311 173.016C248.924 172.603 248.617 172.103 248.391 171.516C248.177 170.93 248.071 170.27 248.071 169.536C248.071 168.71 248.204 167.923 248.471 167.176C248.737 166.43 249.111 165.776 249.591 165.216C250.084 164.656 250.677 164.216 251.371 163.896C252.064 163.563 252.837 163.396 253.691 163.396C254.264 163.396 254.777 163.483 255.231 163.656C255.684 163.83 256.064 164.056 256.371 164.336C256.691 164.616 256.931 164.943 257.091 165.316C257.264 165.69 257.351 166.076 257.351 166.476C257.351 167.223 257.171 167.83 256.811 168.296C256.464 168.763 256.024 169.136 255.491 169.416C254.957 169.683 254.371 169.87 253.731 169.976C253.091 170.07 252.484 170.116 251.911 170.116C251.551 170.116 251.191 170.103 250.831 170.076C250.484 170.036 250.177 169.996 249.911 169.956C250.017 170.836 250.324 171.51 250.831 171.976C251.351 172.443 252.024 172.676 252.851 172.676C253.517 172.676 254.111 172.59 254.631 172.416C255.151 172.243 255.591 172.07 255.951 171.896L256.111 173.496C255.711 173.683 255.204 173.863 254.591 174.036C253.991 174.196 253.311 174.276 252.551 174.276ZM253.551 164.916C253.084 164.916 252.644 165.01 252.231 165.196C251.831 165.37 251.471 165.616 251.151 165.936C250.844 166.256 250.584 166.636 250.371 167.076C250.171 167.516 250.031 167.996 249.951 168.516C250.257 168.583 250.564 168.63 250.871 168.656C251.177 168.683 251.524 168.696 251.911 168.696C253.044 168.696 253.931 168.543 254.571 168.236C255.224 167.916 255.551 167.376 255.551 166.616C255.551 166.15 255.364 165.75 254.991 165.416C254.631 165.083 254.151 164.916 253.551 164.916ZM265.218 169.936C265.218 168.976 265.378 168.096 265.698 167.296C266.032 166.483 266.492 165.79 267.078 165.216C267.665 164.643 268.365 164.196 269.178 163.876C269.992 163.556 270.878 163.396 271.838 163.396C272.625 163.396 273.312 163.476 273.898 163.636C274.498 163.796 274.992 163.956 275.378 164.116L274.118 171.216C274.105 171.283 274.092 171.363 274.078 171.456C274.078 171.536 274.078 171.623 274.078 171.716C274.078 172.09 274.185 172.356 274.398 172.516C274.612 172.663 274.892 172.736 275.238 172.736L274.618 174.136C273.898 174.136 273.345 173.963 272.958 173.616C272.585 173.27 272.398 172.716 272.398 171.956C272.025 172.596 271.552 173.143 270.978 173.596C270.418 174.05 269.758 174.276 268.998 174.276C268.505 174.276 268.032 174.176 267.578 173.976C267.125 173.776 266.718 173.49 266.358 173.116C266.012 172.743 265.732 172.29 265.518 171.756C265.318 171.21 265.218 170.603 265.218 169.936ZM273.398 165.176C273.145 165.096 272.878 165.036 272.598 164.996C272.332 164.943 272.005 164.916 271.618 164.916C270.925 164.916 270.298 165.036 269.738 165.276C269.178 165.516 268.698 165.85 268.298 166.276C267.898 166.703 267.592 167.21 267.378 167.796C267.165 168.383 267.058 169.023 267.058 169.716C267.058 170.196 267.125 170.623 267.258 170.996C267.405 171.356 267.592 171.663 267.818 171.916C268.045 172.17 268.298 172.363 268.578 172.496C268.872 172.616 269.172 172.676 269.478 172.676C269.878 172.676 270.258 172.57 270.618 172.356C270.992 172.143 271.325 171.843 271.618 171.456C271.912 171.056 272.165 170.59 272.378 170.056C272.592 169.51 272.752 168.916 272.858 168.276L273.398 165.176ZM287.971 164.016H291.051L290.771 165.576H287.691L285.931 175.476C285.824 176.063 285.671 176.556 285.471 176.956C285.271 177.37 285.031 177.703 284.751 177.956C284.471 178.21 284.151 178.39 283.791 178.496C283.431 178.616 283.044 178.676 282.631 178.676C282.191 178.676 281.791 178.616 281.431 178.496C281.057 178.376 280.731 178.21 280.451 177.996L281.171 176.516C281.357 176.703 281.577 176.85 281.831 176.956C282.071 177.063 282.344 177.116 282.651 177.116C283.011 177.116 283.317 176.99 283.571 176.736C283.837 176.483 284.024 176.076 284.131 175.516L285.891 165.576H284.291L284.571 164.016H286.171L286.471 162.416C286.697 161.19 287.131 160.316 287.771 159.796C288.411 159.263 289.231 158.996 290.231 158.996C290.777 158.996 291.284 159.07 291.751 159.216C292.217 159.35 292.637 159.516 293.011 159.716L292.311 161.236C292.004 161.076 291.684 160.93 291.351 160.796C291.031 160.663 290.651 160.596 290.211 160.596C289.717 160.596 289.297 160.743 288.951 161.036C288.604 161.316 288.377 161.756 288.271 162.356L287.971 164.016ZM293.312 166.556C293.325 166.49 293.332 166.416 293.332 166.336C293.345 166.243 293.352 166.15 293.352 166.056C293.352 165.683 293.245 165.423 293.032 165.276C292.819 165.116 292.539 165.036 292.192 165.036L292.812 163.636C293.532 163.636 294.079 163.803 294.452 164.136C294.825 164.47 295.012 164.976 295.012 165.656V166.056C295.399 165.096 295.892 164.416 296.492 164.016C297.105 163.603 297.799 163.396 298.572 163.396C298.879 163.396 299.139 163.423 299.352 163.476C299.579 163.516 299.765 163.57 299.912 163.636L299.112 165.396C298.952 165.33 298.785 165.283 298.612 165.256C298.439 165.23 298.239 165.216 298.012 165.216C297.652 165.216 297.292 165.31 296.932 165.496C296.572 165.67 296.232 165.97 295.912 166.396C295.592 166.823 295.299 167.383 295.032 168.076C294.765 168.77 294.545 169.63 294.372 170.656L293.792 174.036H291.992L293.312 166.556ZM304.482 174.276C303.815 174.276 303.209 174.17 302.662 173.956C302.115 173.73 301.642 173.416 301.242 173.016C300.855 172.603 300.549 172.103 300.322 171.516C300.109 170.93 300.002 170.27 300.002 169.536C300.002 168.71 300.135 167.923 300.402 167.176C300.669 166.43 301.042 165.776 301.522 165.216C302.015 164.656 302.609 164.216 303.302 163.896C303.995 163.563 304.769 163.396 305.622 163.396C306.195 163.396 306.709 163.483 307.162 163.656C307.615 163.83 307.995 164.056 308.302 164.336C308.622 164.616 308.862 164.943 309.022 165.316C309.195 165.69 309.282 166.076 309.282 166.476C309.282 167.223 309.102 167.83 308.742 168.296C308.395 168.763 307.955 169.136 307.422 169.416C306.889 169.683 306.302 169.87 305.662 169.976C305.022 170.07 304.415 170.116 303.842 170.116C303.482 170.116 303.122 170.103 302.762 170.076C302.415 170.036 302.109 169.996 301.842 169.956C301.949 170.836 302.255 171.51 302.762 171.976C303.282 172.443 303.955 172.676 304.782 172.676C305.449 172.676 306.042 172.59 306.562 172.416C307.082 172.243 307.522 172.07 307.882 171.896L308.042 173.496C307.642 173.683 307.135 173.863 306.522 174.036C305.922 174.196 305.242 174.276 304.482 174.276ZM305.482 164.916C305.015 164.916 304.575 165.01 304.162 165.196C303.762 165.37 303.402 165.616 303.082 165.936C302.775 166.256 302.515 166.636 302.302 167.076C302.102 167.516 301.962 167.996 301.882 168.516C302.189 168.583 302.495 168.63 302.802 168.656C303.109 168.683 303.455 168.696 303.842 168.696C304.975 168.696 305.862 168.543 306.502 168.236C307.155 167.916 307.482 167.376 307.482 166.616C307.482 166.15 307.295 165.75 306.922 165.416C306.562 165.083 306.082 164.916 305.482 164.916ZM315.234 174.276C314.567 174.276 313.96 174.17 313.414 173.956C312.867 173.73 312.394 173.416 311.994 173.016C311.607 172.603 311.3 172.103 311.074 171.516C310.86 170.93 310.754 170.27 310.754 169.536C310.754 168.71 310.887 167.923 311.154 167.176C311.42 166.43 311.794 165.776 312.274 165.216C312.767 164.656 313.36 164.216 314.054 163.896C314.747 163.563 315.52 163.396 316.374 163.396C316.947 163.396 317.46 163.483 317.914 163.656C318.367 163.83 318.747 164.056 319.054 164.336C319.374 164.616 319.614 164.943 319.774 165.316C319.947 165.69 320.034 166.076 320.034 166.476C320.034 167.223 319.854 167.83 319.494 168.296C319.147 168.763 318.707 169.136 318.174 169.416C317.64 169.683 317.054 169.87 316.414 169.976C315.774 170.07 315.167 170.116 314.594 170.116C314.234 170.116 313.874 170.103 313.514 170.076C313.167 170.036 312.86 169.996 312.594 169.956C312.7 170.836 313.007 171.51 313.514 171.976C314.034 172.443 314.707 172.676 315.534 172.676C316.2 172.676 316.794 172.59 317.314 172.416C317.834 172.243 318.274 172.07 318.634 171.896L318.794 173.496C318.394 173.683 317.887 173.863 317.274 174.036C316.674 174.196 315.994 174.276 315.234 174.276ZM316.234 164.916C315.767 164.916 315.327 165.01 314.914 165.196C314.514 165.37 314.154 165.616 313.834 165.936C313.527 166.256 313.267 166.636 313.054 167.076C312.854 167.516 312.714 167.996 312.634 168.516C312.94 168.583 313.247 168.63 313.554 168.656C313.86 168.683 314.207 168.696 314.594 168.696C315.727 168.696 316.614 168.543 317.254 168.236C317.907 167.916 318.234 167.376 318.234 166.616C318.234 166.15 318.047 165.75 317.674 165.416C317.314 165.083 316.834 164.916 316.234 164.916ZM327.901 169.936C327.901 168.976 328.061 168.096 328.381 167.296C328.715 166.483 329.175 165.79 329.761 165.216C330.348 164.643 331.048 164.196 331.861 163.876C332.675 163.556 333.561 163.396 334.521 163.396C335.308 163.396 335.995 163.476 336.581 163.636C337.181 163.796 337.675 163.956 338.061 164.116L336.801 171.216C336.788 171.283 336.775 171.363 336.761 171.456C336.761 171.536 336.761 171.623 336.761 171.716C336.761 172.09 336.868 172.356 337.081 172.516C337.295 172.663 337.575 172.736 337.921 172.736L337.301 174.136C336.581 174.136 336.028 173.963 335.641 173.616C335.268 173.27 335.081 172.716 335.081 171.956C334.708 172.596 334.235 173.143 333.661 173.596C333.101 174.05 332.441 174.276 331.681 174.276C331.188 174.276 330.715 174.176 330.261 173.976C329.808 173.776 329.401 173.49 329.041 173.116C328.695 172.743 328.415 172.29 328.201 171.756C328.001 171.21 327.901 170.603 327.901 169.936ZM336.081 165.176C335.828 165.096 335.561 165.036 335.281 164.996C335.015 164.943 334.688 164.916 334.301 164.916C333.608 164.916 332.981 165.036 332.421 165.276C331.861 165.516 331.381 165.85 330.981 166.276C330.581 166.703 330.275 167.21 330.061 167.796C329.848 168.383 329.741 169.023 329.741 169.716C329.741 170.196 329.808 170.623 329.941 170.996C330.088 171.356 330.275 171.663 330.501 171.916C330.728 172.17 330.981 172.363 331.261 172.496C331.555 172.616 331.855 172.676 332.161 172.676C332.561 172.676 332.941 172.57 333.301 172.356C333.675 172.143 334.008 171.843 334.301 171.456C334.595 171.056 334.848 170.59 335.061 170.056C335.275 169.51 335.435 168.916 335.541 168.276L336.081 165.176ZM347.92 165.736C347.573 165.523 347.206 165.35 346.82 165.216C346.446 165.07 346.026 164.996 345.56 164.996C345 164.996 344.493 165.11 344.04 165.336C343.586 165.563 343.2 165.876 342.88 166.276C342.56 166.663 342.313 167.123 342.14 167.656C341.966 168.19 341.88 168.763 341.88 169.376C341.88 170.39 342.133 171.196 342.64 171.796C343.146 172.383 343.84 172.676 344.72 172.676C345.226 172.676 345.673 172.616 346.06 172.496C346.446 172.376 346.8 172.236 347.12 172.076L347.34 173.656C347.006 173.803 346.6 173.943 346.12 174.076C345.653 174.21 345.086 174.276 344.42 174.276C343.766 174.276 343.173 174.17 342.64 173.956C342.106 173.73 341.646 173.41 341.26 172.996C340.873 172.583 340.573 172.096 340.36 171.536C340.146 170.963 340.04 170.323 340.04 169.616C340.04 168.776 340.166 167.983 340.42 167.236C340.686 166.49 341.066 165.83 341.56 165.256C342.053 164.683 342.646 164.23 343.34 163.896C344.033 163.563 344.82 163.396 345.7 163.396C346.326 163.396 346.88 163.476 347.36 163.636C347.84 163.783 348.273 163.97 348.66 164.196L347.92 165.736ZM357.226 165.736C356.879 165.523 356.512 165.35 356.126 165.216C355.752 165.07 355.332 164.996 354.866 164.996C354.306 164.996 353.799 165.11 353.346 165.336C352.892 165.563 352.506 165.876 352.186 166.276C351.866 166.663 351.619 167.123 351.446 167.656C351.272 168.19 351.186 168.763 351.186 169.376C351.186 170.39 351.439 171.196 351.946 171.796C352.452 172.383 353.146 172.676 354.026 172.676C354.532 172.676 354.979 172.616 355.366 172.496C355.752 172.376 356.106 172.236 356.426 172.076L356.646 173.656C356.312 173.803 355.906 173.943 355.426 174.076C354.959 174.21 354.392 174.276 353.726 174.276C353.072 174.276 352.479 174.17 351.946 173.956C351.412 173.73 350.952 173.41 350.566 172.996C350.179 172.583 349.879 172.096 349.666 171.536C349.452 170.963 349.346 170.323 349.346 169.616C349.346 168.776 349.472 167.983 349.726 167.236C349.992 166.49 350.372 165.83 350.866 165.256C351.359 164.683 351.952 164.23 352.646 163.896C353.339 163.563 354.126 163.396 355.006 163.396C355.632 163.396 356.186 163.476 356.666 163.636C357.146 163.783 357.579 163.97 357.966 164.196L357.226 165.736ZM363.532 172.676C364.132 172.676 364.665 172.563 365.132 172.336C365.599 172.11 365.999 171.796 366.332 171.396C366.665 170.996 366.919 170.53 367.092 169.996C367.265 169.463 367.352 168.883 367.352 168.256C367.352 167.803 367.279 167.376 367.132 166.976C366.999 166.576 366.799 166.23 366.532 165.936C366.279 165.643 365.965 165.416 365.592 165.256C365.219 165.083 364.792 164.996 364.312 164.996C363.725 164.996 363.192 165.11 362.712 165.336C362.245 165.563 361.845 165.876 361.512 166.276C361.179 166.676 360.925 167.15 360.752 167.696C360.579 168.23 360.492 168.803 360.492 169.416C360.492 169.87 360.559 170.296 360.692 170.696C360.825 171.096 361.019 171.443 361.272 171.736C361.539 172.03 361.859 172.263 362.232 172.436C362.619 172.596 363.052 172.676 363.532 172.676ZM363.472 174.276C362.725 174.276 362.052 174.163 361.452 173.936C360.865 173.696 360.365 173.37 359.952 172.956C359.539 172.543 359.219 172.05 358.992 171.476C358.765 170.89 358.652 170.256 358.652 169.576C358.652 168.71 358.785 167.903 359.052 167.156C359.319 166.396 359.699 165.743 360.192 165.196C360.699 164.636 361.305 164.196 362.012 163.876C362.719 163.556 363.505 163.396 364.372 163.396C365.105 163.396 365.772 163.516 366.372 163.756C366.972 163.983 367.479 164.303 367.892 164.716C368.305 165.13 368.625 165.63 368.852 166.216C369.079 166.79 369.192 167.416 369.192 168.096C369.192 168.963 369.059 169.776 368.792 170.536C368.525 171.283 368.139 171.936 367.632 172.496C367.139 173.043 366.539 173.476 365.832 173.796C365.125 174.116 364.339 174.276 363.472 174.276ZM374.204 174.276C373.804 174.276 373.424 174.21 373.064 174.076C372.717 173.943 372.404 173.75 372.124 173.496C371.857 173.243 371.644 172.936 371.484 172.576C371.337 172.216 371.264 171.81 371.264 171.356C371.264 171.183 371.27 171.01 371.284 170.836C371.297 170.65 371.317 170.456 371.344 170.256L372.484 163.636H374.284L373.124 170.216C373.097 170.35 373.077 170.47 373.064 170.576C373.064 170.67 373.064 170.776 373.064 170.896C373.064 171.496 373.237 171.943 373.584 172.236C373.93 172.53 374.337 172.676 374.804 172.676C375.177 172.676 375.55 172.59 375.924 172.416C376.31 172.23 376.664 171.97 376.984 171.636C377.304 171.303 377.584 170.896 377.824 170.416C378.077 169.923 378.257 169.363 378.364 168.736L379.264 163.636H381.064L379.744 171.216C379.73 171.283 379.717 171.363 379.704 171.456C379.704 171.536 379.704 171.623 379.704 171.716C379.704 172.09 379.81 172.356 380.024 172.516C380.237 172.663 380.517 172.736 380.864 172.736L380.244 174.136C379.524 174.136 378.97 173.963 378.584 173.616C378.21 173.27 378.024 172.716 378.024 171.956V171.776C377.05 173.443 375.777 174.276 374.204 174.276ZM389.586 164.976C389.239 164.976 388.859 165.076 388.446 165.276C388.046 165.463 387.652 165.756 387.266 166.156C386.892 166.556 386.552 167.07 386.246 167.696C385.939 168.31 385.712 169.043 385.566 169.896L384.846 174.036H383.046L384.866 163.636H386.606L386.166 166.036C386.579 165.236 387.132 164.596 387.826 164.116C388.519 163.636 389.259 163.396 390.046 163.396C390.499 163.396 390.912 163.47 391.286 163.616C391.659 163.763 391.972 163.97 392.226 164.236C392.492 164.49 392.692 164.79 392.826 165.136C392.972 165.483 393.046 165.856 393.046 166.256C393.046 166.603 393.006 167.023 392.926 167.516L391.786 174.036H389.986L391.086 167.816C391.152 167.496 391.192 167.263 391.206 167.116C391.219 166.97 391.226 166.823 391.226 166.676C391.226 166.156 391.072 165.743 390.766 165.436C390.472 165.13 390.079 164.976 389.586 164.976ZM395.583 164.016H397.423L398.383 160.736H399.763L399.183 164.016H402.063L401.803 165.576H398.903L398.063 170.436C398.01 170.703 397.983 170.956 397.983 171.196C397.983 171.663 398.116 172.03 398.383 172.296C398.663 172.55 399.036 172.676 399.503 172.676C399.89 172.676 400.21 172.623 400.463 172.516C400.73 172.396 400.976 172.276 401.203 172.156L401.423 173.716C401.17 173.863 400.85 173.99 400.463 174.096C400.09 174.216 399.67 174.276 399.203 174.276C398.83 174.276 398.463 174.216 398.103 174.096C397.743 173.99 397.423 173.823 397.143 173.596C396.863 173.356 396.636 173.05 396.463 172.676C396.29 172.303 396.203 171.856 396.203 171.336C396.203 171.19 396.21 171.043 396.223 170.896C396.236 170.736 396.256 170.556 396.283 170.356L397.103 165.576H395.323L395.583 164.016Z" fill="#14192B"/>
<path d="M234.218 86.3692C234.218 85.233 235.635 84.7148 236.368 85.5831L245.559 96.473C246.302 97.3525 246.709 98.4664 246.709 99.6174V112.851C246.709 113.991 245.284 114.507 244.554 113.632L235.107 102.307C234.532 101.619 234.218 100.75 234.218 99.8534V86.3692Z" fill="#82A7FF"/>
<path d="M225.766 86.3692C225.766 85.233 227.183 84.7148 227.916 85.5831L237.107 96.473C237.85 97.3525 238.257 98.4664 238.257 99.6174V112.851C238.257 113.991 236.832 114.507 236.102 113.632L226.655 102.307C226.081 101.619 225.766 100.75 225.766 99.8534V86.3692Z" fill="#3A74FF"/>
<path d="M217.458 86.3694C217.458 85.2333 218.875 84.7151 219.608 85.5833L228.8 96.4732C229.542 97.3528 229.949 98.4666 229.949 99.6176V112.852C229.949 113.991 228.525 114.507 227.795 113.632L218.347 102.307C217.773 101.619 217.458 100.75 217.458 99.8537V86.3694Z" fill="#0144E4"/>
<path d="M257.151 90.8135H266.863L266.535 92.7323H259.023L258.158 97.7166H264.593L264.265 99.5887H257.83L256.824 105.275H264.312L263.984 107.194H254.273L257.151 90.8135ZM277.775 107.311C276.933 107.311 276.285 107.108 275.833 106.702C275.396 106.281 275.178 105.626 275.178 104.737C274.725 105.486 274.156 106.133 273.47 106.679C272.783 107.209 271.988 107.475 271.083 107.475C270.49 107.475 269.921 107.358 269.375 107.124C268.844 106.89 268.368 106.554 267.947 106.117C267.541 105.681 267.214 105.15 266.964 104.526C266.73 103.887 266.613 103.177 266.613 102.397C266.613 101.211 266.793 100.142 267.151 99.1909C267.526 98.2392 268.002 97.4358 268.579 96.7806C269.172 96.1254 269.835 95.6262 270.568 95.283C271.301 94.9242 272.042 94.7448 272.791 94.7448C273.633 94.7448 274.351 94.9476 274.944 95.3532C275.537 95.7588 275.997 96.258 276.324 96.8508L277.565 89.8774H279.671L277.19 103.894C277.175 103.972 277.159 104.066 277.143 104.175C277.143 104.269 277.143 104.37 277.143 104.479C277.143 104.916 277.268 105.228 277.518 105.415C277.768 105.587 278.095 105.673 278.501 105.673L277.775 107.311ZM271.644 105.603C272.081 105.603 272.51 105.501 272.931 105.298C273.353 105.08 273.735 104.776 274.078 104.386C274.437 103.98 274.741 103.497 274.991 102.935C275.256 102.373 275.451 101.749 275.576 101.063L275.997 98.6526C275.685 97.9974 275.264 97.4904 274.733 97.1316C274.203 96.7572 273.618 96.57 272.978 96.57C272.432 96.57 271.902 96.6948 271.387 96.9444C270.888 97.194 270.443 97.5606 270.053 98.0442C269.663 98.5122 269.351 99.0895 269.117 99.7759C268.883 100.462 268.766 101.235 268.766 102.093C268.766 102.67 268.844 103.177 269 103.614C269.172 104.05 269.39 104.417 269.655 104.713C269.921 105.01 270.225 105.236 270.568 105.392C270.911 105.532 271.27 105.603 271.644 105.603ZM280.596 102.397C280.596 101.274 280.783 100.244 281.158 99.3079C281.548 98.3562 282.086 97.545 282.772 96.8742C283.459 96.2034 284.278 95.6808 285.229 95.3064C286.181 94.932 287.218 94.7448 288.342 94.7448C289.262 94.7448 290.065 94.8384 290.752 95.0256C291.454 95.2128 292.031 95.4 292.483 95.5872L291.009 103.894C290.994 103.972 290.978 104.066 290.962 104.175C290.962 104.269 290.962 104.37 290.962 104.479C290.962 104.916 291.087 105.228 291.337 105.415C291.586 105.587 291.914 105.673 292.32 105.673L291.594 107.311C290.752 107.311 290.104 107.108 289.652 106.702C289.215 106.297 288.997 105.649 288.997 104.76C288.56 105.509 288.006 106.149 287.335 106.679C286.68 107.209 285.908 107.475 285.019 107.475C284.441 107.475 283.888 107.358 283.357 107.124C282.827 106.89 282.351 106.554 281.93 106.117C281.524 105.681 281.197 105.15 280.947 104.526C280.713 103.887 280.596 103.177 280.596 102.397ZM290.167 96.8274C289.87 96.7338 289.558 96.6636 289.231 96.6168C288.919 96.5544 288.537 96.5232 288.084 96.5232C287.273 96.5232 286.54 96.6636 285.885 96.9444C285.229 97.2252 284.668 97.6152 284.2 98.1144C283.732 98.6136 283.373 99.2065 283.123 99.8929C282.874 100.579 282.749 101.328 282.749 102.139C282.749 102.701 282.827 103.2 282.983 103.637C283.154 104.058 283.373 104.417 283.638 104.713C283.903 105.01 284.2 105.236 284.527 105.392C284.87 105.532 285.222 105.603 285.58 105.603C286.048 105.603 286.493 105.478 286.914 105.228C287.351 104.979 287.741 104.628 288.084 104.175C288.427 103.707 288.724 103.161 288.973 102.537C289.223 101.898 289.41 101.203 289.535 100.454L290.167 96.8274ZM309.725 96.5934C309.335 96.5934 308.914 96.7026 308.461 96.921C308.009 97.1394 307.572 97.4748 307.151 97.9272C306.745 98.3796 306.371 98.9569 306.028 99.6589C305.7 100.361 305.45 101.196 305.279 102.163L304.39 107.194H302.284L303.617 99.9163C303.695 99.5419 303.742 99.2689 303.758 99.0973C303.773 98.9256 303.781 98.754 303.781 98.5824C303.781 97.974 303.602 97.4904 303.243 97.1316C302.9 96.7728 302.447 96.5934 301.886 96.5934C301.48 96.5934 301.051 96.7104 300.599 96.9444C300.146 97.1628 299.709 97.506 299.288 97.974C298.867 98.442 298.485 99.0427 298.142 99.7759C297.814 100.493 297.564 101.352 297.393 102.35L296.55 107.194H294.444L296.574 95.0256H298.61L298.095 97.8336C298.563 96.8976 299.195 96.1488 299.99 95.5872C300.786 95.0256 301.621 94.7448 302.494 94.7448C302.978 94.7448 303.415 94.8228 303.805 94.9788C304.195 95.1348 304.53 95.3532 304.811 95.634C305.107 95.8992 305.341 96.2268 305.513 96.6168C305.684 96.9912 305.794 97.3968 305.84 97.8336C306.371 96.8508 307.018 96.0942 307.783 95.5638C308.563 95.0178 309.405 94.7448 310.31 94.7448C310.825 94.7448 311.293 94.8306 311.714 95.0022C312.135 95.1738 312.494 95.4156 312.79 95.7276C313.087 96.024 313.313 96.375 313.469 96.7806C313.641 97.1862 313.726 97.623 313.726 98.091C313.726 98.4966 313.68 98.9881 313.586 99.5653L312.229 107.194H310.123L311.457 99.9163C311.535 99.5419 311.581 99.2689 311.597 99.0973C311.613 98.9256 311.62 98.754 311.62 98.5824C311.62 97.974 311.441 97.4904 311.082 97.1316C310.739 96.7728 310.287 96.5934 309.725 96.5934ZM331.092 96.5934C330.702 96.5934 330.28 96.7026 329.828 96.921C329.376 97.1394 328.939 97.4748 328.518 97.9272C328.112 98.3796 327.738 98.9569 327.394 99.6589C327.067 100.361 326.817 101.196 326.646 102.163L325.756 107.194H323.65L324.984 99.9163C325.062 99.5419 325.109 99.2689 325.125 99.0973C325.14 98.9256 325.148 98.754 325.148 98.5824C325.148 97.974 324.969 97.4904 324.61 97.1316C324.266 96.7728 323.814 96.5934 323.252 96.5934C322.847 96.5934 322.418 96.7104 321.965 96.9444C321.513 97.1628 321.076 97.506 320.655 97.974C320.234 98.442 319.852 99.0427 319.508 99.7759C319.181 100.493 318.931 101.352 318.76 102.35L317.917 107.194H315.811L317.941 95.0256H319.976L319.462 97.8336C319.93 96.8976 320.561 96.1488 321.357 95.5872C322.153 95.0256 322.987 94.7448 323.861 94.7448C324.344 94.7448 324.781 94.8228 325.171 94.9788C325.561 95.1348 325.897 95.3532 326.178 95.634C326.474 95.8992 326.708 96.2268 326.88 96.6168C327.051 96.9912 327.16 97.3968 327.207 97.8336C327.738 96.8508 328.385 96.0942 329.149 95.5638C329.929 95.0178 330.772 94.7448 331.677 94.7448C332.191 94.7448 332.659 94.8306 333.081 95.0022C333.502 95.1738 333.861 95.4156 334.157 95.7276C334.454 96.024 334.68 96.375 334.836 96.7806C335.007 97.1862 335.093 97.623 335.093 98.091C335.093 98.4966 335.046 98.9881 334.953 99.5653L333.596 107.194H331.489L332.823 99.9163C332.901 99.5419 332.948 99.2689 332.964 99.0973C332.979 98.9256 332.987 98.754 332.987 98.5824C332.987 97.974 332.808 97.4904 332.449 97.1316C332.106 96.7728 331.653 96.5934 331.092 96.5934ZM342.888 105.603C343.59 105.603 344.214 105.47 344.76 105.205C345.306 104.94 345.774 104.573 346.164 104.105C346.554 103.637 346.85 103.091 347.053 102.467C347.256 101.843 347.357 101.164 347.357 100.431C347.357 99.9007 347.271 99.4015 347.1 98.9335C346.944 98.4654 346.71 98.0598 346.398 97.7166C346.101 97.3734 345.735 97.1082 345.298 96.921C344.861 96.7182 344.362 96.6168 343.8 96.6168C343.114 96.6168 342.49 96.7494 341.928 97.0146C341.382 97.2798 340.914 97.6464 340.524 98.1144C340.134 98.5824 339.838 99.1363 339.635 99.7759C339.432 100.4 339.331 101.071 339.331 101.788C339.331 102.319 339.409 102.818 339.565 103.286C339.721 103.754 339.947 104.16 340.243 104.503C340.555 104.846 340.93 105.119 341.367 105.322C341.819 105.509 342.326 105.603 342.888 105.603ZM342.817 107.475C341.944 107.475 341.156 107.342 340.454 107.077C339.767 106.796 339.182 106.414 338.699 105.93C338.215 105.447 337.841 104.869 337.576 104.199C337.31 103.512 337.178 102.771 337.178 101.976C337.178 100.961 337.334 100.018 337.646 99.1441C337.958 98.2548 338.402 97.4904 338.98 96.8508C339.572 96.1956 340.282 95.6808 341.109 95.3064C341.936 94.932 342.856 94.7448 343.87 94.7448C344.728 94.7448 345.508 94.8852 346.21 95.166C346.912 95.4312 347.505 95.8056 347.989 96.2892C348.472 96.7728 348.847 97.3578 349.112 98.0442C349.377 98.715 349.51 99.4483 349.51 100.244C349.51 101.258 349.354 102.21 349.042 103.099C348.73 103.972 348.277 104.737 347.685 105.392C347.107 106.032 346.405 106.539 345.579 106.913C344.752 107.287 343.831 107.475 342.817 107.475Z" fill="#14192B"/>
<rect x="126.168" y="264.774" width="346.664" height="55.311" rx="5.5" fill="white" stroke="#D8DAE3"/>
<path d="M453.018 284.261H437.593C435.889 284.261 434.508 285.724 434.508 287.529V297.33C434.508 299.135 435.889 300.598 437.593 300.598H453.018C454.722 300.598 456.103 299.135 456.103 297.33V287.529C456.103 285.724 454.722 284.261 453.018 284.261Z" stroke="#B8BAC3" stroke-width="1.5" stroke-linecap="round" stroke-linejoin="round"/>
<path d="M434.508 287.529L445.306 294.063L456.103 287.529" stroke="#B8BAC3" stroke-width="1.5" stroke-linecap="round" stroke-linejoin="round"/>
<path d="M147.475 285.099H153.775V286.329H148.9V289.524H153.1V290.724H148.9V294.369H153.775V295.599H147.475V285.099ZM156.954 289.104C157.234 288.684 157.589 288.334 158.019 288.054C158.459 287.764 158.979 287.619 159.579 287.619C160.459 287.619 161.114 287.884 161.544 288.414C161.984 288.944 162.204 289.644 162.204 290.514V295.599H160.854V290.664C160.854 290.094 160.724 289.644 160.464 289.314C160.204 288.974 159.834 288.804 159.354 288.804C159.124 288.804 158.899 288.849 158.679 288.939C158.459 289.019 158.244 289.134 158.034 289.284C157.834 289.434 157.644 289.609 157.464 289.809C157.294 290.009 157.139 290.219 156.999 290.439V295.599H155.649V287.799H156.954V289.104ZM165.291 285.624H166.326V288.084H168.486V289.254H166.326V293.019C166.326 293.309 166.356 293.554 166.416 293.754C166.486 293.954 166.576 294.114 166.686 294.234C166.796 294.354 166.926 294.444 167.076 294.504C167.236 294.554 167.401 294.579 167.571 294.579C167.821 294.579 168.056 294.539 168.276 294.459C168.496 294.379 168.706 294.284 168.906 294.174L169.281 295.254C169.081 295.374 168.811 295.489 168.471 295.599C168.131 295.719 167.776 295.779 167.406 295.779C166.656 295.779 166.061 295.534 165.621 295.044C165.191 294.554 164.976 293.844 164.976 292.914V289.254H163.626V288.084H165.006L165.291 285.624ZM171.35 292.254C171.44 292.984 171.695 293.554 172.115 293.964C172.535 294.374 173.09 294.579 173.78 294.579C174.23 294.579 174.635 294.534 174.995 294.444C175.355 294.344 175.7 294.219 176.03 294.069L176.345 295.224C175.985 295.394 175.58 295.529 175.13 295.629C174.68 295.729 174.175 295.779 173.615 295.779C173.055 295.779 172.55 295.689 172.1 295.509C171.65 295.319 171.265 295.054 170.945 294.714C170.635 294.364 170.395 293.939 170.225 293.439C170.055 292.929 169.97 292.349 169.97 291.699C169.97 291.119 170.055 290.579 170.225 290.079C170.395 289.579 170.635 289.149 170.945 288.789C171.255 288.419 171.625 288.134 172.055 287.934C172.485 287.724 172.965 287.619 173.495 287.619C174.055 287.619 174.545 287.714 174.965 287.904C175.385 288.094 175.735 288.354 176.015 288.684C176.295 289.014 176.505 289.399 176.645 289.839C176.785 290.279 176.855 290.744 176.855 291.234C176.855 291.584 176.84 291.924 176.81 292.254H171.35ZM173.465 288.789C172.875 288.789 172.39 288.989 172.01 289.389C171.64 289.789 171.415 290.379 171.335 291.159H175.61C175.61 290.399 175.42 289.814 175.04 289.404C174.66 288.994 174.135 288.789 173.465 288.789ZM183.034 289.104C182.844 289.024 182.619 288.984 182.359 288.984C182.079 288.984 181.804 289.044 181.534 289.164C181.274 289.284 181.039 289.464 180.829 289.704C180.629 289.944 180.464 290.254 180.334 290.634C180.214 291.004 180.154 291.444 180.154 291.954V295.599H178.804V287.799H180.109V289.494C180.199 289.254 180.319 289.019 180.469 288.789C180.619 288.559 180.794 288.359 180.994 288.189C181.204 288.019 181.444 287.884 181.714 287.784C181.984 287.674 182.284 287.619 182.614 287.619C182.764 287.619 182.909 287.629 183.049 287.649C183.199 287.659 183.329 287.679 183.439 287.709L183.034 289.104ZM189.787 299.079C189.487 299.079 189.222 299.049 188.992 298.989C188.772 298.929 188.597 298.859 188.467 298.779L188.767 297.654C188.887 297.724 189.032 297.784 189.202 297.834C189.382 297.884 189.587 297.909 189.817 297.909C190.027 297.909 190.222 297.879 190.402 297.819C190.592 297.759 190.772 297.654 190.942 297.504C191.112 297.354 191.272 297.149 191.422 296.889C191.582 296.629 191.737 296.304 191.887 295.914L192.232 295.014H191.512L188.467 288.159L189.667 287.619L192.577 294.114L194.842 287.679L196.087 288.159L193.222 295.989C193.002 296.589 192.767 297.084 192.517 297.474C192.277 297.874 192.017 298.194 191.737 298.434C191.457 298.674 191.152 298.839 190.822 298.929C190.502 299.029 190.157 299.079 189.787 299.079ZM203.091 291.699C203.091 291.309 203.026 290.939 202.896 290.589C202.776 290.239 202.601 289.934 202.371 289.674C202.151 289.414 201.886 289.209 201.576 289.059C201.276 288.899 200.946 288.819 200.586 288.819C199.796 288.819 199.181 289.079 198.741 289.599C198.301 290.119 198.081 290.809 198.081 291.669C198.081 292.059 198.141 292.434 198.261 292.794C198.391 293.144 198.566 293.454 198.786 293.724C199.016 293.984 199.281 294.194 199.581 294.354C199.891 294.504 200.226 294.579 200.586 294.579C200.976 294.579 201.326 294.509 201.636 294.369C201.946 294.229 202.206 294.034 202.416 293.784C202.636 293.524 202.801 293.219 202.911 292.869C203.031 292.519 203.091 292.129 203.091 291.699ZM196.701 291.699C196.701 291.069 196.801 290.504 197.001 290.004C197.201 289.494 197.471 289.064 197.811 288.714C198.161 288.364 198.571 288.094 199.041 287.904C199.521 287.714 200.036 287.619 200.586 287.619C201.126 287.619 201.631 287.714 202.101 287.904C202.581 288.094 202.996 288.364 203.346 288.714C203.696 289.064 203.971 289.489 204.171 289.989C204.371 290.489 204.471 291.049 204.471 291.669C204.471 292.289 204.371 292.854 204.171 293.364C203.981 293.864 203.711 294.294 203.361 294.654C203.011 295.014 202.596 295.294 202.116 295.494C201.646 295.684 201.136 295.779 200.586 295.779C200.026 295.779 199.506 295.679 199.026 295.479C198.556 295.279 198.146 294.999 197.796 294.639C197.456 294.279 197.186 293.849 196.986 293.349C196.796 292.849 196.701 292.299 196.701 291.699ZM213.391 295.674C212.911 295.674 212.531 295.579 212.251 295.389C211.971 295.199 211.776 294.924 211.666 294.564C211.316 294.924 210.911 295.219 210.451 295.449C210.001 295.669 209.506 295.779 208.966 295.779C208.626 295.779 208.296 295.724 207.976 295.614C207.666 295.514 207.386 295.349 207.136 295.119C206.896 294.889 206.701 294.589 206.551 294.219C206.411 293.849 206.341 293.399 206.341 292.869V287.799H207.691V292.689C207.691 293.299 207.816 293.769 208.066 294.099C208.326 294.419 208.711 294.579 209.221 294.579C209.641 294.579 210.041 294.499 210.421 294.339C210.801 294.169 211.141 293.944 211.441 293.664V287.799H212.791V293.574C212.791 293.794 212.816 293.974 212.866 294.114C212.916 294.244 212.981 294.349 213.061 294.429C213.141 294.499 213.236 294.549 213.346 294.579C213.456 294.609 213.566 294.624 213.676 294.624L213.391 295.674ZM219.848 289.104C219.658 289.024 219.433 288.984 219.173 288.984C218.893 288.984 218.618 289.044 218.348 289.164C218.088 289.284 217.853 289.464 217.643 289.704C217.443 289.944 217.278 290.254 217.148 290.634C217.028 291.004 216.968 291.444 216.968 291.954V295.599H215.618V287.799H216.923V289.494C217.013 289.254 217.133 289.019 217.283 288.789C217.433 288.559 217.608 288.359 217.808 288.189C218.018 288.019 218.258 287.884 218.528 287.784C218.798 287.674 219.098 287.619 219.428 287.619C219.578 287.619 219.723 287.629 219.863 287.649C220.013 287.659 220.143 287.679 220.253 287.709L219.848 289.104ZM227.262 292.254C227.352 292.984 227.607 293.554 228.027 293.964C228.447 294.374 229.002 294.579 229.692 294.579C230.142 294.579 230.547 294.534 230.907 294.444C231.267 294.344 231.612 294.219 231.942 294.069L232.257 295.224C231.897 295.394 231.492 295.529 231.042 295.629C230.592 295.729 230.087 295.779 229.527 295.779C228.967 295.779 228.462 295.689 228.012 295.509C227.562 295.319 227.177 295.054 226.857 294.714C226.547 294.364 226.307 293.939 226.137 293.439C225.967 292.929 225.882 292.349 225.882 291.699C225.882 291.119 225.967 290.579 226.137 290.079C226.307 289.579 226.547 289.149 226.857 288.789C227.167 288.419 227.537 288.134 227.967 287.934C228.397 287.724 228.877 287.619 229.407 287.619C229.967 287.619 230.457 287.714 230.877 287.904C231.297 288.094 231.647 288.354 231.927 288.684C232.207 289.014 232.417 289.399 232.557 289.839C232.697 290.279 232.767 290.744 232.767 291.234C232.767 291.584 232.752 291.924 232.722 292.254H227.262ZM229.377 288.789C228.787 288.789 228.302 288.989 227.922 289.389C227.552 289.789 227.327 290.379 227.247 291.159H231.522C231.522 290.399 231.332 289.814 230.952 289.404C230.572 288.994 230.047 288.789 229.377 288.789ZM236.021 289.104C236.301 288.684 236.651 288.334 237.071 288.054C237.501 287.764 237.996 287.619 238.556 287.619C239.176 287.619 239.681 287.769 240.071 288.069C240.461 288.359 240.741 288.759 240.911 289.269C241.221 288.809 241.586 288.419 242.006 288.099C242.436 287.779 242.966 287.619 243.596 287.619C244.016 287.619 244.381 287.689 244.691 287.829C245.011 287.969 245.276 288.169 245.486 288.429C245.696 288.679 245.851 288.984 245.951 289.344C246.061 289.694 246.116 290.084 246.116 290.514V295.599H244.766V290.619C244.766 290.079 244.641 289.644 244.391 289.314C244.141 288.974 243.796 288.804 243.356 288.804C243.126 288.804 242.906 288.849 242.696 288.939C242.486 289.029 242.286 289.154 242.096 289.314C241.906 289.464 241.726 289.644 241.556 289.854C241.386 290.054 241.231 290.264 241.091 290.484V295.599H239.741V290.619C239.741 290.079 239.616 289.644 239.366 289.314C239.116 288.974 238.771 288.804 238.331 288.804C238.111 288.804 237.896 288.849 237.686 288.939C237.476 289.019 237.271 289.134 237.071 289.284C236.881 289.434 236.701 289.609 236.531 289.809C236.361 290.009 236.206 290.219 236.066 290.439V295.599H234.716V287.799H236.021V289.104ZM248.066 291.744C248.066 291.164 248.156 290.624 248.336 290.124C248.516 289.614 248.766 289.174 249.086 288.804C249.416 288.434 249.806 288.144 250.256 287.934C250.716 287.724 251.216 287.619 251.756 287.619C252.206 287.619 252.611 287.699 252.971 287.859C253.341 288.009 253.661 288.199 253.931 288.429V287.799H255.161V293.709C255.161 294.089 255.251 294.339 255.431 294.459C255.621 294.569 255.826 294.624 256.046 294.624L255.761 295.674C254.801 295.674 254.221 295.284 254.021 294.504C253.901 294.664 253.761 294.824 253.601 294.984C253.451 295.134 253.276 295.269 253.076 295.389C252.876 295.509 252.651 295.604 252.401 295.674C252.151 295.744 251.876 295.779 251.576 295.779C251.086 295.779 250.626 295.684 250.196 295.494C249.776 295.304 249.406 295.034 249.086 294.684C248.776 294.334 248.526 293.914 248.336 293.424C248.156 292.924 248.066 292.364 248.066 291.744ZM251.876 294.579C252.256 294.579 252.616 294.489 252.956 294.309C253.296 294.129 253.581 293.894 253.811 293.604V289.419C253.541 289.229 253.241 289.079 252.911 288.969C252.591 288.849 252.251 288.789 251.891 288.789C251.531 288.789 251.201 288.859 250.901 288.999C250.601 289.139 250.341 289.339 250.121 289.599C249.911 289.849 249.746 290.154 249.626 290.514C249.506 290.874 249.446 291.269 249.446 291.699C249.446 292.119 249.506 292.509 249.626 292.869C249.746 293.219 249.916 293.524 250.136 293.784C250.356 294.034 250.611 294.229 250.901 294.369C251.201 294.509 251.526 294.579 251.876 294.579ZM259.349 295.599H257.999V287.799H259.349V295.599ZM258.674 286.464C258.414 286.464 258.189 286.374 257.999 286.194C257.819 286.004 257.729 285.779 257.729 285.519C257.729 285.229 257.814 284.999 257.984 284.829C258.154 284.659 258.384 284.574 258.674 284.574C258.934 284.574 259.154 284.669 259.334 284.859C259.524 285.039 259.619 285.259 259.619 285.519C259.619 285.809 259.534 286.039 259.364 286.209C259.194 286.379 258.964 286.464 258.674 286.464ZM263.174 293.019C263.174 293.559 263.284 293.959 263.504 294.219C263.734 294.479 264.049 294.609 264.449 294.609C264.639 294.609 264.824 294.589 265.004 294.549C265.184 294.499 265.344 294.444 265.484 294.384L265.814 295.479C265.634 295.559 265.409 295.629 265.139 295.689C264.879 295.749 264.589 295.779 264.269 295.779C263.919 295.779 263.594 295.729 263.294 295.629C263.004 295.529 262.749 295.374 262.529 295.164C262.309 294.954 262.134 294.684 262.004 294.354C261.884 294.024 261.824 293.624 261.824 293.154V284.499H263.174V293.019Z" fill="#888B94"/>
<path d="M128.143 239.355H134.368L134.158 240.585H129.343L128.788 243.78H132.913L132.703 244.98H128.578L127.933 248.625H132.733L132.523 249.855H126.298L128.143 239.355ZM144.151 243.06C143.901 243.06 143.631 243.13 143.341 243.27C143.051 243.41 142.771 243.625 142.501 243.915C142.241 244.205 142.001 244.575 141.781 245.025C141.571 245.475 141.411 246.01 141.301 246.63L140.731 249.855H139.381L140.236 245.19C140.286 244.95 140.316 244.775 140.326 244.665C140.336 244.555 140.341 244.445 140.341 244.335C140.341 243.945 140.226 243.635 139.996 243.405C139.776 243.175 139.486 243.06 139.126 243.06C138.866 243.06 138.591 243.135 138.301 243.285C138.011 243.425 137.731 243.645 137.461 243.945C137.191 244.245 136.946 244.63 136.726 245.1C136.516 245.56 136.356 246.11 136.246 246.75L135.706 249.855H134.356L135.721 242.055H137.026L136.696 243.855C136.996 243.255 137.401 242.775 137.911 242.415C138.421 242.055 138.956 241.875 139.516 241.875C139.826 241.875 140.106 241.925 140.356 242.025C140.606 242.125 140.821 242.265 141.001 242.445C141.191 242.615 141.341 242.825 141.451 243.075C141.561 243.315 141.631 243.575 141.661 243.855C142.001 243.225 142.416 242.74 142.906 242.4C143.406 242.05 143.946 241.875 144.526 241.875C144.856 241.875 145.156 241.93 145.426 242.04C145.696 242.15 145.926 242.305 146.116 242.505C146.306 242.695 146.451 242.92 146.551 243.18C146.661 243.44 146.716 243.72 146.716 244.02C146.716 244.28 146.686 244.595 146.626 244.965L145.756 249.855H144.406L145.261 245.19C145.311 244.95 145.341 244.775 145.351 244.665C145.361 244.555 145.366 244.445 145.366 244.335C145.366 243.945 145.251 243.635 145.021 243.405C144.801 243.175 144.511 243.06 144.151 243.06ZM148.203 246.78C148.203 246.06 148.323 245.4 148.563 244.8C148.813 244.19 149.158 243.67 149.598 243.24C150.038 242.81 150.563 242.475 151.173 242.235C151.783 241.995 152.448 241.875 153.168 241.875C153.758 241.875 154.273 241.935 154.713 242.055C155.163 242.175 155.533 242.295 155.823 242.415L154.878 247.74C154.868 247.79 154.858 247.85 154.848 247.92C154.848 247.98 154.848 248.045 154.848 248.115C154.848 248.395 154.928 248.595 155.088 248.715C155.248 248.825 155.458 248.88 155.718 248.88L155.253 249.93C154.713 249.93 154.298 249.8 154.008 249.54C153.728 249.28 153.588 248.865 153.588 248.295C153.308 248.775 152.953 249.185 152.523 249.525C152.103 249.865 151.608 250.035 151.038 250.035C150.668 250.035 150.313 249.96 149.973 249.81C149.633 249.66 149.328 249.445 149.058 249.165C148.798 248.885 148.588 248.545 148.428 248.145C148.278 247.735 148.203 247.28 148.203 246.78ZM154.338 243.21C154.148 243.15 153.948 243.105 153.738 243.075C153.538 243.035 153.293 243.015 153.003 243.015C152.483 243.015 152.013 243.105 151.593 243.285C151.173 243.465 150.813 243.715 150.513 244.035C150.213 244.355 149.983 244.735 149.823 245.175C149.663 245.615 149.583 246.095 149.583 246.615C149.583 246.975 149.633 247.295 149.733 247.575C149.843 247.845 149.983 248.075 150.153 248.265C150.323 248.455 150.513 248.6 150.723 248.7C150.943 248.79 151.168 248.835 151.398 248.835C151.698 248.835 151.983 248.755 152.253 248.595C152.533 248.435 152.783 248.21 153.003 247.92C153.223 247.62 153.413 247.27 153.573 246.87C153.733 246.46 153.853 246.015 153.933 245.535L154.338 243.21ZM158.58 249.855H157.23L158.595 242.055H159.945L158.58 249.855ZM159.585 240.72C159.305 240.72 159.09 240.64 158.94 240.48C158.8 240.31 158.73 240.115 158.73 239.895C158.73 239.575 158.83 239.32 159.03 239.13C159.23 238.93 159.48 238.83 159.78 238.83C160.06 238.83 160.27 238.915 160.41 239.085C160.56 239.245 160.635 239.435 160.635 239.655C160.635 239.975 160.535 240.235 160.335 240.435C160.135 240.625 159.885 240.72 159.585 240.72ZM162.838 247.155C162.818 247.295 162.803 247.415 162.793 247.515C162.783 247.615 162.778 247.705 162.778 247.785C162.778 248.135 162.878 248.405 163.078 248.595C163.278 248.775 163.553 248.865 163.903 248.865C164.073 248.865 164.243 248.845 164.413 248.805C164.583 248.765 164.738 248.71 164.878 248.64L165.013 249.735C164.833 249.825 164.623 249.895 164.383 249.945C164.143 250.005 163.883 250.035 163.603 250.035C163.303 250.035 163.018 249.99 162.748 249.9C162.488 249.82 162.258 249.695 162.058 249.525C161.868 249.355 161.713 249.14 161.593 248.88C161.483 248.61 161.428 248.3 161.428 247.95C161.428 247.81 161.433 247.685 161.443 247.575C161.453 247.455 161.468 247.325 161.488 247.185L162.958 238.755H164.308L162.838 247.155Z" fill="#14192B"/>
<rect x="126.168" y="373.504" width="346.664" height="55.311" rx="5.5" fill="white" stroke="#D8DAE3"/>
<path d="M450.628 398.302H439.199C437.62 398.302 436.341 399.582 436.341 401.16V409.732C436.341 411.31 437.62 412.59 439.199 412.59H450.628C452.207 412.59 453.486 411.31 453.486 409.732V401.16C453.486 399.582 452.207 398.302 450.628 398.302Z" stroke="#B8BAC3" stroke-width="1.5" stroke-linecap="round" stroke-linejoin="round"/>
<path d="M444.913 389.73C443.398 389.73 441.944 390.332 440.872 391.404C439.801 392.475 439.198 393.929 439.198 395.445V398.302H450.628V395.445C450.628 393.929 450.026 392.475 448.955 391.404C447.883 390.332 446.429 389.73 444.913 389.73Z" stroke="#B8BAC3" stroke-width="1.5" stroke-linecap="round" stroke-linejoin="round"/>
<path d="M444.913 404.787C445.055 404.787 445.193 404.829 445.31 404.907C445.428 404.986 445.519 405.097 445.573 405.228C445.628 405.358 445.642 405.502 445.614 405.641C445.587 405.779 445.519 405.906 445.419 406.006C445.319 406.106 445.191 406.174 445.053 406.202C444.914 406.229 444.771 406.215 444.64 406.161C444.51 406.107 444.398 406.016 444.319 405.898C444.241 405.781 444.199 405.643 444.199 405.501C444.199 405.312 444.274 405.13 444.408 404.996C444.542 404.862 444.724 404.787 444.913 404.787" stroke="#B8BAC3" stroke-width="1.5" stroke-linecap="round" stroke-linejoin="round"/>
<path d="M149.5 401.014C149.22 401.014 148.955 400.964 148.705 400.864C148.465 400.754 148.255 400.609 148.075 400.429C147.895 400.249 147.75 400.039 147.64 399.799C147.54 399.549 147.49 399.284 147.49 399.004C147.49 398.384 147.665 397.894 148.015 397.534C148.375 397.174 148.87 396.994 149.5 396.994C149.78 396.994 150.04 397.049 150.28 397.159C150.53 397.259 150.745 397.399 150.925 397.579C151.105 397.759 151.245 397.974 151.345 398.224C151.455 398.464 151.51 398.724 151.51 399.004C151.51 399.624 151.33 400.114 150.97 400.474C150.62 400.834 150.13 401.014 149.5 401.014ZM156.403 401.014C156.123 401.014 155.858 400.964 155.608 400.864C155.368 400.754 155.158 400.609 154.978 400.429C154.798 400.249 154.653 400.039 154.543 399.799C154.443 399.549 154.393 399.284 154.393 399.004C154.393 398.384 154.568 397.894 154.918 397.534C155.278 397.174 155.773 396.994 156.403 396.994C156.683 396.994 156.943 397.049 157.183 397.159C157.433 397.259 157.648 397.399 157.828 397.579C158.008 397.759 158.148 397.974 158.248 398.224C158.358 398.464 158.413 398.724 158.413 399.004C158.413 399.624 158.233 400.114 157.873 400.474C157.523 400.834 157.033 401.014 156.403 401.014ZM163.306 401.014C163.026 401.014 162.761 400.964 162.511 400.864C162.271 400.754 162.061 400.609 161.881 400.429C161.701 400.249 161.556 400.039 161.446 399.799C161.346 399.549 161.296 399.284 161.296 399.004C161.296 398.384 161.471 397.894 161.821 397.534C162.181 397.174 162.676 396.994 163.306 396.994C163.586 396.994 163.846 397.049 164.086 397.159C164.336 397.259 164.551 397.399 164.731 397.579C164.911 397.759 165.051 397.974 165.151 398.224C165.261 398.464 165.316 398.724 165.316 399.004C165.316 399.624 165.136 400.114 164.776 400.474C164.426 400.834 163.936 401.014 163.306 401.014ZM170.209 401.014C169.929 401.014 169.664 400.964 169.414 400.864C169.174 400.754 168.964 400.609 168.784 400.429C168.604 400.249 168.459 400.039 168.349 399.799C168.249 399.549 168.199 399.284 168.199 399.004C168.199 398.384 168.374 397.894 168.724 397.534C169.084 397.174 169.579 396.994 170.209 396.994C170.489 396.994 170.749 397.049 170.989 397.159C171.239 397.259 171.454 397.399 171.634 397.579C171.814 397.759 171.954 397.974 172.054 398.224C172.164 398.464 172.219 398.724 172.219 399.004C172.219 399.624 172.039 400.114 171.679 400.474C171.329 400.834 170.839 401.014 170.209 401.014ZM177.112 401.014C176.832 401.014 176.567 400.964 176.317 400.864C176.077 400.754 175.867 400.609 175.687 400.429C175.507 400.249 175.362 400.039 175.252 399.799C175.152 399.549 175.102 399.284 175.102 399.004C175.102 398.384 175.277 397.894 175.627 397.534C175.987 397.174 176.482 396.994 177.112 396.994C177.392 396.994 177.652 397.049 177.892 397.159C178.142 397.259 178.357 397.399 178.537 397.579C178.717 397.759 178.857 397.974 178.957 398.224C179.067 398.464 179.122 398.724 179.122 399.004C179.122 399.624 178.942 400.114 178.582 400.474C178.232 400.834 177.742 401.014 177.112 401.014ZM184.015 401.014C183.735 401.014 183.47 400.964 183.22 400.864C182.98 400.754 182.77 400.609 182.59 400.429C182.41 400.249 182.265 400.039 182.155 399.799C182.055 399.549 182.005 399.284 182.005 399.004C182.005 398.384 182.18 397.894 182.53 397.534C182.89 397.174 183.385 396.994 184.015 396.994C184.295 396.994 184.555 397.049 184.795 397.159C185.045 397.259 185.26 397.399 185.44 397.579C185.62 397.759 185.76 397.974 185.86 398.224C185.97 398.464 186.025 398.724 186.025 399.004C186.025 399.624 185.845 400.114 185.485 400.474C185.135 400.834 184.645 401.014 184.015 401.014ZM190.917 401.014C190.637 401.014 190.372 400.964 190.122 400.864C189.882 400.754 189.672 400.609 189.492 400.429C189.312 400.249 189.167 400.039 189.057 399.799C188.957 399.549 188.907 399.284 188.907 399.004C188.907 398.384 189.082 397.894 189.432 397.534C189.792 397.174 190.287 396.994 190.917 396.994C191.197 396.994 191.457 397.049 191.697 397.159C191.947 397.259 192.162 397.399 192.342 397.579C192.522 397.759 192.662 397.974 192.762 398.224C192.872 398.464 192.927 398.724 192.927 399.004C192.927 399.624 192.747 400.114 192.387 400.474C192.037 400.834 191.547 401.014 190.917 401.014ZM197.82 401.014C197.54 401.014 197.275 400.964 197.025 400.864C196.785 400.754 196.575 400.609 196.395 400.429C196.215 400.249 196.07 400.039 195.96 399.799C195.86 399.549 195.81 399.284 195.81 399.004C195.81 398.384 195.985 397.894 196.335 397.534C196.695 397.174 197.19 396.994 197.82 396.994C198.1 396.994 198.36 397.049 198.6 397.159C198.85 397.259 199.065 397.399 199.245 397.579C199.425 397.759 199.565 397.974 199.665 398.224C199.775 398.464 199.83 398.724 199.83 399.004C199.83 399.624 199.65 400.114 199.29 400.474C198.94 400.834 198.45 401.014 197.82 401.014ZM204.723 401.014C204.443 401.014 204.178 400.964 203.928 400.864C203.688 400.754 203.478 400.609 203.298 400.429C203.118 400.249 202.973 400.039 202.863 399.799C202.763 399.549 202.713 399.284 202.713 399.004C202.713 398.384 202.888 397.894 203.238 397.534C203.598 397.174 204.093 396.994 204.723 396.994C205.003 396.994 205.263 397.049 205.503 397.159C205.753 397.259 205.968 397.399 206.148 397.579C206.328 397.759 206.468 397.974 206.568 398.224C206.678 398.464 206.733 398.724 206.733 399.004C206.733 399.624 206.553 400.114 206.193 400.474C205.843 400.834 205.353 401.014 204.723 401.014ZM211.626 401.014C211.346 401.014 211.081 400.964 210.831 400.864C210.591 400.754 210.381 400.609 210.201 400.429C210.021 400.249 209.876 400.039 209.766 399.799C209.666 399.549 209.616 399.284 209.616 399.004C209.616 398.384 209.791 397.894 210.141 397.534C210.501 397.174 210.996 396.994 211.626 396.994C211.906 396.994 212.166 397.049 212.406 397.159C212.656 397.259 212.871 397.399 213.051 397.579C213.231 397.759 213.371 397.974 213.471 398.224C213.581 398.464 213.636 398.724 213.636 399.004C213.636 399.624 213.456 400.114 213.096 400.474C212.746 400.834 212.256 401.014 211.626 401.014ZM218.529 401.014C218.249 401.014 217.984 400.964 217.734 400.864C217.494 400.754 217.284 400.609 217.104 400.429C216.924 400.249 216.779 400.039 216.669 399.799C216.569 399.549 216.519 399.284 216.519 399.004C216.519 398.384 216.694 397.894 217.044 397.534C217.404 397.174 217.899 396.994 218.529 396.994C218.809 396.994 219.069 397.049 219.309 397.159C219.559 397.259 219.774 397.399 219.954 397.579C220.134 397.759 220.274 397.974 220.374 398.224C220.484 398.464 220.539 398.724 220.539 399.004C220.539 399.624 220.359 400.114 219.999 400.474C219.649 400.834 219.159 401.014 218.529 401.014ZM225.432 401.014C225.152 401.014 224.887 400.964 224.637 400.864C224.397 400.754 224.187 400.609 224.007 400.429C223.827 400.249 223.682 400.039 223.572 399.799C223.472 399.549 223.422 399.284 223.422 399.004C223.422 398.384 223.597 397.894 223.947 397.534C224.307 397.174 224.802 396.994 225.432 396.994C225.712 396.994 225.972 397.049 226.212 397.159C226.462 397.259 226.677 397.399 226.857 397.579C227.037 397.759 227.177 397.974 227.277 398.224C227.387 398.464 227.442 398.724 227.442 399.004C227.442 399.624 227.262 400.114 226.902 400.474C226.552 400.834 226.062 401.014 225.432 401.014ZM232.335 401.014C232.055 401.014 231.79 400.964 231.54 400.864C231.3 400.754 231.09 400.609 230.91 400.429C230.73 400.249 230.585 400.039 230.475 399.799C230.375 399.549 230.325 399.284 230.325 399.004C230.325 398.384 230.5 397.894 230.85 397.534C231.21 397.174 231.705 396.994 232.335 396.994C232.615 396.994 232.875 397.049 233.115 397.159C233.365 397.259 233.58 397.399 233.76 397.579C233.94 397.759 234.08 397.974 234.18 398.224C234.29 398.464 234.345 398.724 234.345 399.004C234.345 399.624 234.165 400.114 233.805 400.474C233.455 400.834 232.965 401.014 232.335 401.014ZM239.238 401.014C238.958 401.014 238.693 400.964 238.443 400.864C238.203 400.754 237.993 400.609 237.813 400.429C237.633 400.249 237.488 400.039 237.378 399.799C237.278 399.549 237.228 399.284 237.228 399.004C237.228 398.384 237.403 397.894 237.753 397.534C238.113 397.174 238.608 396.994 239.238 396.994C239.518 396.994 239.778 397.049 240.018 397.159C240.268 397.259 240.483 397.399 240.663 397.579C240.843 397.759 240.983 397.974 241.083 398.224C241.193 398.464 241.248 398.724 241.248 399.004C241.248 399.624 241.068 400.114 240.708 400.474C240.358 400.834 239.868 401.014 239.238 401.014ZM246.141 401.014C245.861 401.014 245.596 400.964 245.346 400.864C245.106 400.754 244.896 400.609 244.716 400.429C244.536 400.249 244.391 400.039 244.281 399.799C244.181 399.549 244.131 399.284 244.131 399.004C244.131 398.384 244.306 397.894 244.656 397.534C245.016 397.174 245.511 396.994 246.141 396.994C246.421 396.994 246.681 397.049 246.921 397.159C247.171 397.259 247.386 397.399 247.566 397.579C247.746 397.759 247.886 397.974 247.986 398.224C248.096 398.464 248.151 398.724 248.151 399.004C248.151 399.624 247.971 400.114 247.611 400.474C247.261 400.834 246.771 401.014 246.141 401.014ZM253.044 401.014C252.764 401.014 252.499 400.964 252.249 400.864C252.009 400.754 251.799 400.609 251.619 400.429C251.439 400.249 251.294 400.039 251.184 399.799C251.084 399.549 251.034 399.284 251.034 399.004C251.034 398.384 251.209 397.894 251.559 397.534C251.919 397.174 252.414 396.994 253.044 396.994C253.324 396.994 253.584 397.049 253.824 397.159C254.074 397.259 254.289 397.399 254.469 397.579C254.649 397.759 254.789 397.974 254.889 398.224C254.999 398.464 255.054 398.724 255.054 399.004C255.054 399.624 254.874 400.114 254.514 400.474C254.164 400.834 253.674 401.014 253.044 401.014Z" fill="#888B94"/>
<path d="M128.113 348.235C128.493 348.155 128.898 348.09 129.328 348.04C129.758 347.99 130.243 347.965 130.783 347.965C131.393 347.965 131.923 348.05 132.373 348.22C132.833 348.39 133.213 348.615 133.513 348.895C133.813 349.175 134.038 349.5 134.188 349.87C134.338 350.23 134.413 350.61 134.413 351.01C134.413 351.63 134.293 352.175 134.053 352.645C133.823 353.105 133.503 353.495 133.093 353.815C132.683 354.125 132.193 354.36 131.623 354.52C131.063 354.68 130.448 354.76 129.778 354.76C129.538 354.76 129.298 354.75 129.058 354.73C128.828 354.7 128.613 354.66 128.413 354.61L127.723 358.585H126.298L128.113 348.235ZM130.633 349.15C130.363 349.15 130.123 349.16 129.913 349.18C129.713 349.2 129.528 349.225 129.358 349.255L128.623 353.41C128.823 353.47 129.038 353.515 129.268 353.545C129.508 353.565 129.743 353.575 129.973 353.575C130.513 353.575 130.973 353.515 131.353 353.395C131.733 353.275 132.048 353.11 132.298 352.9C132.548 352.69 132.728 352.44 132.838 352.15C132.958 351.85 133.018 351.525 133.018 351.175C133.018 350.575 132.808 350.09 132.388 349.72C131.978 349.34 131.393 349.15 130.633 349.15ZM134.767 355.51C134.767 354.79 134.887 354.13 135.127 353.53C135.377 352.92 135.722 352.4 136.162 351.97C136.602 351.54 137.127 351.205 137.737 350.965C138.347 350.725 139.012 350.605 139.732 350.605C140.322 350.605 140.837 350.665 141.277 350.785C141.727 350.905 142.097 351.025 142.387 351.145L141.442 356.47C141.432 356.52 141.422 356.58 141.412 356.65C141.412 356.71 141.412 356.775 141.412 356.845C141.412 357.125 141.492 357.325 141.652 357.445C141.812 357.555 142.022 357.61 142.282 357.61L141.817 358.66C141.277 358.66 140.862 358.53 140.572 358.27C140.292 358.01 140.152 357.595 140.152 357.025C139.872 357.505 139.517 357.915 139.087 358.255C138.667 358.595 138.172 358.765 137.602 358.765C137.232 358.765 136.877 358.69 136.537 358.54C136.197 358.39 135.892 358.175 135.622 357.895C135.362 357.615 135.152 357.275 134.992 356.875C134.842 356.465 134.767 356.01 134.767 355.51ZM140.902 351.94C140.712 351.88 140.512 351.835 140.302 351.805C140.102 351.765 139.857 351.745 139.567 351.745C139.047 351.745 138.577 351.835 138.157 352.015C137.737 352.195 137.377 352.445 137.077 352.765C136.777 353.085 136.547 353.465 136.387 353.905C136.227 354.345 136.147 354.825 136.147 355.345C136.147 355.705 136.197 356.025 136.297 356.305C136.407 356.575 136.547 356.805 136.717 356.995C136.887 357.185 137.077 357.33 137.287 357.43C137.507 357.52 137.732 357.565 137.962 357.565C138.262 357.565 138.547 357.485 138.817 357.325C139.097 357.165 139.347 356.94 139.567 356.65C139.787 356.35 139.977 356 140.137 355.6C140.297 355.19 140.417 354.745 140.497 354.265L140.902 351.94ZM149.253 352.48C148.963 352.28 148.638 352.105 148.278 351.955C147.928 351.805 147.528 351.73 147.078 351.73C146.598 351.73 146.228 351.81 145.968 351.97C145.718 352.13 145.593 352.34 145.593 352.6C145.593 352.72 145.613 352.83 145.653 352.93C145.703 353.03 145.783 353.135 145.893 353.245C146.013 353.345 146.173 353.455 146.373 353.575C146.573 353.695 146.828 353.835 147.138 353.995C147.828 354.345 148.333 354.7 148.653 355.06C148.983 355.41 149.148 355.855 149.148 356.395C149.148 356.795 149.068 357.145 148.908 357.445C148.748 357.735 148.523 357.98 148.233 358.18C147.953 358.37 147.623 358.515 147.243 358.615C146.863 358.715 146.453 358.765 146.013 358.765C145.403 358.765 144.863 358.69 144.393 358.54C143.933 358.38 143.533 358.175 143.193 357.925L143.958 356.815C144.228 357.035 144.543 357.22 144.903 357.37C145.273 357.52 145.683 357.595 146.133 357.595C146.643 357.595 147.038 357.5 147.318 357.31C147.608 357.12 147.753 356.885 147.753 356.605C147.753 356.475 147.728 356.355 147.678 356.245C147.638 356.125 147.558 356.005 147.438 355.885C147.318 355.765 147.153 355.645 146.943 355.525C146.743 355.395 146.488 355.25 146.178 355.09C145.798 354.9 145.483 354.72 145.233 354.55C144.993 354.37 144.798 354.185 144.648 353.995C144.508 353.805 144.408 353.605 144.348 353.395C144.288 353.175 144.258 352.935 144.258 352.675C144.258 352.375 144.328 352.1 144.468 351.85C144.608 351.59 144.803 351.37 145.053 351.19C145.303 351.01 145.603 350.87 145.953 350.77C146.303 350.66 146.688 350.605 147.108 350.605C147.668 350.605 148.168 350.68 148.608 350.83C149.058 350.97 149.453 351.14 149.793 351.34L149.253 352.48ZM156.069 352.48C155.779 352.28 155.454 352.105 155.094 351.955C154.744 351.805 154.344 351.73 153.894 351.73C153.414 351.73 153.044 351.81 152.784 351.97C152.534 352.13 152.409 352.34 152.409 352.6C152.409 352.72 152.429 352.83 152.469 352.93C152.519 353.03 152.599 353.135 152.709 353.245C152.829 353.345 152.989 353.455 153.189 353.575C153.389 353.695 153.644 353.835 153.954 353.995C154.644 354.345 155.149 354.7 155.469 355.06C155.799 355.41 155.964 355.855 155.964 356.395C155.964 356.795 155.884 357.145 155.724 357.445C155.564 357.735 155.339 357.98 155.049 358.18C154.769 358.37 154.439 358.515 154.059 358.615C153.679 358.715 153.269 358.765 152.829 358.765C152.219 358.765 151.679 358.69 151.209 358.54C150.749 358.38 150.349 358.175 150.009 357.925L150.774 356.815C151.044 357.035 151.359 357.22 151.719 357.37C152.089 357.52 152.499 357.595 152.949 357.595C153.459 357.595 153.854 357.5 154.134 357.31C154.424 357.12 154.569 356.885 154.569 356.605C154.569 356.475 154.544 356.355 154.494 356.245C154.454 356.125 154.374 356.005 154.254 355.885C154.134 355.765 153.969 355.645 153.759 355.525C153.559 355.395 153.304 355.25 152.994 355.09C152.614 354.9 152.299 354.72 152.049 354.55C151.809 354.37 151.614 354.185 151.464 353.995C151.324 353.805 151.224 353.605 151.164 353.395C151.104 353.175 151.074 352.935 151.074 352.675C151.074 352.375 151.144 352.1 151.284 351.85C151.424 351.59 151.619 351.37 151.869 351.19C152.119 351.01 152.419 350.87 152.769 350.77C153.119 350.66 153.504 350.605 153.924 350.605C154.484 350.605 154.984 350.68 155.424 350.83C155.874 350.97 156.269 351.14 156.609 351.34L156.069 352.48ZM158.819 358.585L157.649 350.89L158.954 350.71L159.839 357.085L162.674 351.34H164.099L164.879 357.085L168.029 350.71L169.139 351.28L165.404 358.585H163.919L163.139 352.855L160.304 358.585H158.819ZM173.084 357.565C173.534 357.565 173.934 357.48 174.284 357.31C174.634 357.14 174.934 356.905 175.184 356.605C175.434 356.305 175.624 355.955 175.754 355.555C175.884 355.155 175.949 354.72 175.949 354.25C175.949 353.91 175.894 353.59 175.784 353.29C175.684 352.99 175.534 352.73 175.334 352.51C175.144 352.29 174.909 352.12 174.629 352C174.349 351.87 174.029 351.805 173.669 351.805C173.229 351.805 172.829 351.89 172.469 352.06C172.119 352.23 171.819 352.465 171.569 352.765C171.319 353.065 171.129 353.42 170.999 353.83C170.869 354.23 170.804 354.66 170.804 355.12C170.804 355.46 170.854 355.78 170.954 356.08C171.054 356.38 171.199 356.64 171.389 356.86C171.589 357.08 171.829 357.255 172.109 357.385C172.399 357.505 172.724 357.565 173.084 357.565ZM173.039 358.765C172.479 358.765 171.974 358.68 171.524 358.51C171.084 358.33 170.709 358.085 170.399 357.775C170.089 357.465 169.849 357.095 169.679 356.665C169.509 356.225 169.424 355.75 169.424 355.24C169.424 354.59 169.524 353.985 169.724 353.425C169.924 352.855 170.209 352.365 170.579 351.955C170.959 351.535 171.414 351.205 171.944 350.965C172.474 350.725 173.064 350.605 173.714 350.605C174.264 350.605 174.764 350.695 175.214 350.875C175.664 351.045 176.044 351.285 176.354 351.595C176.664 351.905 176.904 352.28 177.074 352.72C177.244 353.15 177.329 353.62 177.329 354.13C177.329 354.78 177.229 355.39 177.029 355.96C176.829 356.52 176.539 357.01 176.159 357.43C175.789 357.84 175.339 358.165 174.809 358.405C174.279 358.645 173.689 358.765 173.039 358.765ZM179.798 352.975C179.808 352.925 179.813 352.87 179.813 352.81C179.823 352.74 179.828 352.67 179.828 352.6C179.828 352.32 179.748 352.125 179.588 352.015C179.428 351.895 179.218 351.835 178.958 351.835L179.423 350.785C179.963 350.785 180.373 350.91 180.653 351.16C180.933 351.41 181.073 351.79 181.073 352.3V352.6C181.363 351.88 181.733 351.37 182.183 351.07C182.643 350.76 183.163 350.605 183.743 350.605C183.973 350.605 184.168 350.625 184.328 350.665C184.498 350.695 184.638 350.735 184.748 350.785L184.148 352.105C184.028 352.055 183.903 352.02 183.773 352C183.643 351.98 183.493 351.97 183.323 351.97C183.053 351.97 182.783 352.04 182.513 352.18C182.243 352.31 181.988 352.535 181.748 352.855C181.508 353.175 181.288 353.595 181.088 354.115C180.888 354.635 180.723 355.28 180.593 356.05L180.158 358.585H178.808L179.798 352.975ZM191.896 358.66C191.356 358.66 190.941 358.53 190.651 358.27C190.371 358 190.231 357.58 190.231 357.01C189.941 357.49 189.576 357.905 189.136 358.255C188.696 358.595 188.186 358.765 187.606 358.765C187.226 358.765 186.861 358.69 186.511 358.54C186.171 358.39 185.866 358.175 185.596 357.895C185.336 357.615 185.126 357.275 184.966 356.875C184.816 356.465 184.741 356.01 184.741 355.51C184.741 354.75 184.856 354.065 185.086 353.455C185.326 352.845 185.631 352.33 186.001 351.91C186.381 351.49 186.806 351.17 187.276 350.95C187.746 350.72 188.221 350.605 188.701 350.605C189.241 350.605 189.701 350.735 190.081 350.995C190.461 351.255 190.756 351.575 190.966 351.955L191.761 347.485H193.111L191.521 356.47C191.511 356.52 191.501 356.58 191.491 356.65C191.491 356.71 191.491 356.775 191.491 356.845C191.491 357.125 191.571 357.325 191.731 357.445C191.891 357.555 192.101 357.61 192.361 357.61L191.896 358.66ZM187.966 357.565C188.246 357.565 188.521 357.5 188.791 357.37C189.061 357.23 189.306 357.035 189.526 356.785C189.756 356.525 189.951 356.215 190.111 355.855C190.281 355.495 190.406 355.095 190.486 354.655L190.756 353.11C190.556 352.69 190.286 352.365 189.946 352.135C189.606 351.895 189.231 351.775 188.821 351.775C188.471 351.775 188.131 351.855 187.801 352.015C187.481 352.175 187.196 352.41 186.946 352.72C186.696 353.02 186.496 353.39 186.346 353.83C186.196 354.27 186.121 354.765 186.121 355.315C186.121 355.685 186.171 356.01 186.271 356.29C186.381 356.57 186.521 356.805 186.691 356.995C186.861 357.185 187.056 357.33 187.276 357.43C187.496 357.52 187.726 357.565 187.966 357.565Z" fill="#14192B"/>
<rect x="125" y="449.315" width="349" height="56" rx="4" fill="#0144E4"/>
<path d="M244.829 476.699C244.829 477.371 244.914 477.985 245.085 478.539C245.266 479.083 245.511 479.553 245.821 479.947C246.141 480.342 246.519 480.646 246.957 480.859C247.394 481.073 247.874 481.179 248.397 481.179C248.919 481.179 249.373 481.121 249.757 481.003C250.141 480.875 250.514 480.705 250.877 480.491L251.341 481.755C250.946 481.969 250.493 482.15 249.981 482.299C249.479 482.438 248.893 482.507 248.221 482.507C247.485 482.507 246.813 482.374 246.205 482.107C245.607 481.841 245.09 481.462 244.653 480.971C244.215 480.47 243.874 479.867 243.629 479.163C243.394 478.449 243.277 477.649 243.277 476.763C243.277 475.91 243.394 475.126 243.629 474.411C243.874 473.697 244.221 473.083 244.669 472.571C245.117 472.049 245.655 471.643 246.285 471.355C246.925 471.067 247.634 470.923 248.413 470.923C248.957 470.923 249.442 470.977 249.869 471.083C250.306 471.179 250.717 471.318 251.101 471.499L250.637 472.779C250.306 472.619 249.965 472.491 249.613 472.395C249.271 472.299 248.866 472.251 248.397 472.251C247.885 472.251 247.41 472.353 246.973 472.555C246.535 472.747 246.157 473.035 245.837 473.419C245.517 473.803 245.266 474.273 245.085 474.827C244.914 475.371 244.829 475.995 244.829 476.699ZM257.769 475.387C257.566 475.302 257.326 475.259 257.049 475.259C256.75 475.259 256.457 475.323 256.169 475.451C255.891 475.579 255.641 475.771 255.417 476.027C255.203 476.283 255.027 476.614 254.889 477.019C254.761 477.414 254.697 477.883 254.697 478.427V482.315H253.257V473.995H254.649V475.803C254.745 475.547 254.873 475.297 255.033 475.051C255.193 474.806 255.379 474.593 255.593 474.411C255.817 474.23 256.073 474.086 256.361 473.979C256.649 473.862 256.969 473.803 257.321 473.803C257.481 473.803 257.635 473.814 257.785 473.835C257.945 473.846 258.083 473.867 258.201 473.899L257.769 475.387ZM260.075 478.747C260.171 479.526 260.443 480.134 260.891 480.571C261.339 481.009 261.931 481.227 262.667 481.227C263.147 481.227 263.579 481.179 263.963 481.083C264.347 480.977 264.715 480.843 265.067 480.683L265.403 481.915C265.019 482.097 264.587 482.241 264.107 482.347C263.627 482.454 263.088 482.507 262.491 482.507C261.893 482.507 261.355 482.411 260.875 482.219C260.395 482.017 259.984 481.734 259.643 481.371C259.312 480.998 259.056 480.545 258.875 480.011C258.693 479.467 258.603 478.849 258.603 478.155C258.603 477.537 258.693 476.961 258.875 476.427C259.056 475.894 259.312 475.435 259.643 475.051C259.973 474.657 260.368 474.353 260.827 474.139C261.285 473.915 261.797 473.803 262.363 473.803C262.96 473.803 263.483 473.905 263.931 474.107C264.379 474.31 264.752 474.587 265.051 474.939C265.349 475.291 265.573 475.702 265.723 476.171C265.872 476.641 265.947 477.137 265.947 477.659C265.947 478.033 265.931 478.395 265.899 478.747H260.075ZM262.331 475.051C261.701 475.051 261.184 475.265 260.779 475.691C260.384 476.118 260.144 476.747 260.059 477.579H264.619C264.619 476.769 264.416 476.145 264.011 475.707C263.605 475.27 263.045 475.051 262.331 475.051ZM267.306 478.203C267.306 477.585 267.402 477.009 267.594 476.475C267.786 475.931 268.053 475.462 268.394 475.067C268.746 474.673 269.162 474.363 269.642 474.139C270.133 473.915 270.666 473.803 271.242 473.803C271.722 473.803 272.154 473.889 272.538 474.059C272.933 474.219 273.274 474.422 273.562 474.667V473.995H274.874V480.299C274.874 480.705 274.97 480.971 275.162 481.099C275.365 481.217 275.583 481.275 275.818 481.275L275.514 482.395C274.49 482.395 273.871 481.979 273.658 481.147C273.53 481.318 273.381 481.489 273.21 481.659C273.05 481.819 272.863 481.963 272.65 482.091C272.437 482.219 272.197 482.321 271.93 482.395C271.663 482.47 271.37 482.507 271.05 482.507C270.527 482.507 270.037 482.406 269.578 482.203C269.13 482.001 268.735 481.713 268.394 481.339C268.063 480.966 267.797 480.518 267.594 479.995C267.402 479.462 267.306 478.865 267.306 478.203ZM271.37 481.227C271.775 481.227 272.159 481.131 272.522 480.939C272.885 480.747 273.189 480.497 273.434 480.187V475.723C273.146 475.521 272.826 475.361 272.474 475.243C272.133 475.115 271.77 475.051 271.386 475.051C271.002 475.051 270.65 475.126 270.33 475.275C270.01 475.425 269.733 475.638 269.498 475.915C269.274 476.182 269.098 476.507 268.97 476.891C268.842 477.275 268.778 477.697 268.778 478.155C268.778 478.603 268.842 479.019 268.97 479.403C269.098 479.777 269.279 480.102 269.514 480.379C269.749 480.646 270.021 480.854 270.33 481.003C270.65 481.153 270.997 481.227 271.37 481.227ZM278.397 471.675H279.501V474.299H281.805V475.547H279.501V479.563C279.501 479.873 279.533 480.134 279.597 480.347C279.672 480.561 279.768 480.731 279.885 480.859C280.002 480.987 280.141 481.083 280.301 481.147C280.472 481.201 280.648 481.227 280.829 481.227C281.096 481.227 281.346 481.185 281.581 481.099C281.816 481.014 282.04 480.913 282.253 480.795L282.653 481.947C282.44 482.075 282.152 482.198 281.789 482.315C281.426 482.443 281.048 482.507 280.653 482.507C279.853 482.507 279.218 482.246 278.749 481.723C278.29 481.201 278.061 480.443 278.061 479.451V475.547H276.621V474.299H278.093L278.397 471.675ZM284.7 478.747C284.796 479.526 285.068 480.134 285.516 480.571C285.964 481.009 286.556 481.227 287.292 481.227C287.772 481.227 288.204 481.179 288.588 481.083C288.972 480.977 289.34 480.843 289.692 480.683L290.028 481.915C289.644 482.097 289.212 482.241 288.732 482.347C288.252 482.454 287.713 482.507 287.116 482.507C286.518 482.507 285.98 482.411 285.5 482.219C285.02 482.017 284.609 481.734 284.268 481.371C283.937 480.998 283.681 480.545 283.5 480.011C283.318 479.467 283.228 478.849 283.228 478.155C283.228 477.537 283.318 476.961 283.5 476.427C283.681 475.894 283.937 475.435 284.268 475.051C284.598 474.657 284.993 474.353 285.452 474.139C285.91 473.915 286.422 473.803 286.988 473.803C287.585 473.803 288.108 473.905 288.556 474.107C289.004 474.31 289.377 474.587 289.676 474.939C289.974 475.291 290.198 475.702 290.348 476.171C290.497 476.641 290.572 477.137 290.572 477.659C290.572 478.033 290.556 478.395 290.524 478.747H284.7ZM286.956 475.051C286.326 475.051 285.809 475.265 285.404 475.691C285.009 476.118 284.769 476.747 284.684 477.579H289.244C289.244 476.769 289.041 476.145 288.636 475.707C288.23 475.27 287.67 475.051 286.956 475.051ZM296.168 481.915L300.552 471.115H302.216L306.536 481.915L305.144 482.475L303.896 479.275H298.712L297.464 482.443L296.168 481.915ZM299.192 477.995H303.4L301.304 472.619L299.192 477.995ZM313.287 475.515C312.978 475.366 312.69 475.259 312.423 475.195C312.157 475.121 311.858 475.083 311.527 475.083C311.154 475.083 310.802 475.153 310.471 475.291C310.151 475.43 309.874 475.633 309.639 475.899C309.405 476.155 309.218 476.47 309.079 476.843C308.951 477.217 308.887 477.643 308.887 478.123C308.887 478.561 308.946 478.966 309.063 479.339C309.191 479.713 309.367 480.043 309.591 480.331C309.815 480.609 310.082 480.827 310.391 480.987C310.701 481.147 311.047 481.227 311.431 481.227C311.837 481.227 312.183 481.185 312.471 481.099C312.759 481.014 313.069 480.881 313.399 480.699L313.847 481.915C313.506 482.097 313.133 482.241 312.727 482.347C312.322 482.454 311.858 482.507 311.335 482.507C310.738 482.507 310.199 482.401 309.719 482.187C309.239 481.974 308.829 481.675 308.487 481.291C308.146 480.907 307.879 480.449 307.687 479.915C307.506 479.382 307.415 478.795 307.415 478.155C307.415 477.558 307.506 476.998 307.687 476.475C307.879 475.942 308.151 475.478 308.503 475.083C308.855 474.689 309.277 474.379 309.767 474.155C310.269 473.921 310.829 473.803 311.447 473.803C311.927 473.803 312.343 473.846 312.695 473.931C313.047 474.017 313.389 474.139 313.719 474.299L313.287 475.515ZM320.678 475.515C320.369 475.366 320.081 475.259 319.814 475.195C319.547 475.121 319.249 475.083 318.918 475.083C318.545 475.083 318.193 475.153 317.862 475.291C317.542 475.43 317.265 475.633 317.03 475.899C316.795 476.155 316.609 476.47 316.47 476.843C316.342 477.217 316.278 477.643 316.278 478.123C316.278 478.561 316.337 478.966 316.454 479.339C316.582 479.713 316.758 480.043 316.982 480.331C317.206 480.609 317.473 480.827 317.782 480.987C318.091 481.147 318.438 481.227 318.822 481.227C319.227 481.227 319.574 481.185 319.862 481.099C320.15 481.014 320.459 480.881 320.79 480.699L321.238 481.915C320.897 482.097 320.523 482.241 320.118 482.347C319.713 482.454 319.249 482.507 318.726 482.507C318.129 482.507 317.59 482.401 317.11 482.187C316.63 481.974 316.219 481.675 315.878 481.291C315.537 480.907 315.27 480.449 315.078 479.915C314.897 479.382 314.806 478.795 314.806 478.155C314.806 477.558 314.897 476.998 315.078 476.475C315.27 475.942 315.542 475.478 315.894 475.083C316.246 474.689 316.667 474.379 317.158 474.155C317.659 473.921 318.219 473.803 318.838 473.803C319.318 473.803 319.734 473.846 320.086 473.931C320.438 474.017 320.779 474.139 321.11 474.299L320.678 475.515ZM328.933 478.155C328.933 477.739 328.863 477.345 328.725 476.971C328.597 476.598 328.41 476.273 328.165 475.995C327.93 475.718 327.647 475.499 327.317 475.339C326.997 475.169 326.645 475.083 326.261 475.083C325.418 475.083 324.762 475.361 324.293 475.915C323.823 476.47 323.589 477.206 323.589 478.123C323.589 478.539 323.653 478.939 323.781 479.323C323.919 479.697 324.106 480.027 324.341 480.315C324.586 480.593 324.869 480.817 325.189 480.987C325.519 481.147 325.877 481.227 326.261 481.227C326.677 481.227 327.05 481.153 327.381 481.003C327.711 480.854 327.989 480.646 328.213 480.379C328.447 480.102 328.623 479.777 328.741 479.403C328.869 479.03 328.933 478.614 328.933 478.155ZM322.117 478.155C322.117 477.483 322.223 476.881 322.437 476.347C322.65 475.803 322.938 475.345 323.301 474.971C323.674 474.598 324.111 474.31 324.613 474.107C325.125 473.905 325.674 473.803 326.261 473.803C326.837 473.803 327.375 473.905 327.877 474.107C328.389 474.31 328.831 474.598 329.205 474.971C329.578 475.345 329.871 475.798 330.085 476.331C330.298 476.865 330.405 477.462 330.405 478.123C330.405 478.785 330.298 479.387 330.085 479.931C329.882 480.465 329.594 480.923 329.221 481.307C328.847 481.691 328.405 481.99 327.893 482.203C327.391 482.406 326.847 482.507 326.261 482.507C325.663 482.507 325.109 482.401 324.597 482.187C324.095 481.974 323.658 481.675 323.285 481.291C322.922 480.907 322.634 480.449 322.421 479.915C322.218 479.382 322.117 478.795 322.117 478.155ZM339.759 482.395C339.247 482.395 338.842 482.294 338.543 482.091C338.244 481.889 338.036 481.595 337.919 481.211C337.546 481.595 337.114 481.91 336.623 482.155C336.143 482.39 335.615 482.507 335.039 482.507C334.676 482.507 334.324 482.449 333.983 482.331C333.652 482.225 333.354 482.049 333.087 481.803C332.831 481.558 332.623 481.238 332.463 480.843C332.314 480.449 332.239 479.969 332.239 479.403V473.995H333.679V479.211C333.679 479.862 333.812 480.363 334.079 480.715C334.356 481.057 334.767 481.227 335.311 481.227C335.759 481.227 336.186 481.142 336.591 480.971C336.996 480.79 337.359 480.55 337.679 480.251V473.995H339.119V480.155C339.119 480.39 339.146 480.582 339.199 480.731C339.252 480.87 339.322 480.982 339.407 481.067C339.492 481.142 339.594 481.195 339.711 481.227C339.828 481.259 339.946 481.275 340.063 481.275L339.759 482.395ZM343.367 475.387C343.666 474.939 344.045 474.566 344.503 474.267C344.973 473.958 345.527 473.803 346.167 473.803C347.106 473.803 347.805 474.086 348.263 474.651C348.733 475.217 348.967 475.963 348.967 476.891V482.315H347.527V477.051C347.527 476.443 347.389 475.963 347.111 475.611C346.834 475.249 346.439 475.067 345.927 475.067C345.682 475.067 345.442 475.115 345.207 475.211C344.973 475.297 344.743 475.419 344.519 475.579C344.306 475.739 344.103 475.926 343.911 476.139C343.73 476.353 343.565 476.577 343.415 476.811V482.315H341.975V473.995H343.367V475.387ZM352.1 471.675H353.204V474.299H355.508V475.547H353.204V479.563C353.204 479.873 353.236 480.134 353.3 480.347C353.375 480.561 353.471 480.731 353.588 480.859C353.705 480.987 353.844 481.083 354.004 481.147C354.175 481.201 354.351 481.227 354.532 481.227C354.799 481.227 355.049 481.185 355.284 481.099C355.519 481.014 355.743 480.913 355.956 480.795L356.356 481.947C356.143 482.075 355.855 482.198 355.492 482.315C355.129 482.443 354.751 482.507 354.356 482.507C353.556 482.507 352.921 482.246 352.452 481.723C351.993 481.201 351.764 480.443 351.764 479.451V475.547H350.324V474.299H351.796L352.1 471.675Z" fill="white"/>
</g>
<defs>
<filter id="filter0_dd" x="8.51118" y="8.11604" width="581.698" height="658.492" filterUnits="userSpaceOnUse" color-interpolation-filters="sRGB">
<feFlood flood-opacity="0" result="BackgroundImageFix"/>
<feColorMatrix in="SourceAlpha" type="matrix" values="0 0 0 0 0 0 0 0 0 0 0 0 0 0 0 0 0 0 127 0"/>
<feOffset dy="14.684"/>
<feGaussianBlur stdDeviation="17.8306"/>
<feColorMatrix type="matrix" values="0 0 0 0 0.0770833 0 0 0 0 0.0967917 0 0 0 0 0.166667 0 0 0 0.01 0"/>
<feBlend mode="normal" in2="BackgroundImageFix" result="effect1_dropShadow"/>
<feColorMatrix in="SourceAlpha" type="matrix" values="0 0 0 0 0 0 0 0 0 0 0 0 0 0 0 0 0 0 127 0"/>
<feOffset dy="35.6613"/>
<feGaussianBlur stdDeviation="40.3811"/>
<feColorMatrix type="matrix" values="0 0 0 0 0.0305357 0 0 0 0 0.128563 0 0 0 0 0.287472 0 0 0 0.06 0"/>
<feBlend mode="normal" in2="effect1_dropShadow" result="effect2_dropShadow"/>
<feBlend mode="normal" in="SourceGraphic" in2="effect2_dropShadow" result="shape"/>
</filter>
</defs>
</svg>
