<svg width="32" height="30" viewBox="0 0 32 30" fill="none" xmlns="http://www.w3.org/2000/svg">
<path fill-rule="evenodd" clip-rule="evenodd" d="M15.65 1.8C9.10543 1.8 3.8 7.10543 3.8 13.65C3.8 20.1946 9.10543 25.5 15.65 25.5C22.1946 25.5 27.5 20.1946 27.5 13.65C27.5 7.10543 22.1946 1.8 15.65 1.8ZM2 13.65C2 6.11131 8.11131 0 15.65 0C23.1887 0 29.3 6.11131 29.3 13.65C29.3 21.1887 23.1887 27.3 15.65 27.3C8.11131 27.3 2 21.1887 2 13.65ZM23.0081 7.08336C23.398 7.39157 23.4643 7.95756 23.1561 8.34751L14.2719 19.5878C14.0715 19.849 13.8121 20.0592 13.5149 20.2012C13.2148 20.3446 12.8847 20.4142 12.5522 20.4043C12.2197 20.3943 11.8944 20.3051 11.6033 20.1441C11.3158 19.985 11.07 19.7604 10.8856 19.4886L8.11429 15.5555C7.82798 15.1492 7.92527 14.5877 8.33159 14.3014C8.73791 14.0151 9.29939 14.1124 9.5857 14.5187L12.3686 18.4681L12.3745 18.477C12.4001 18.5153 12.4345 18.5468 12.4747 18.5691C12.515 18.5914 12.56 18.6037 12.606 18.6051C12.6519 18.6064 12.6976 18.5968 12.7391 18.577C12.7806 18.5572 12.8168 18.5277 12.8446 18.4911L12.8498 18.4842L21.7439 7.23136C22.0521 6.8414 22.6181 6.77514 23.0081 7.08336Z" fill="#14192B"/>
</svg>
