<svg width="32" height="34" viewBox="0 0 32 34" fill="none" xmlns="http://www.w3.org/2000/svg">
<path d="M1.7187 1.896L12.6567 5.005C13.3978 5.24843 14.0452 5.71582 14.5094 6.34271C14.9737 6.9696 15.232 7.7251 15.2487 8.505V19.015C15.2799 19.3468 15.2298 19.6812 15.1027 19.9893C14.9757 20.2974 14.7755 20.57 14.5195 20.7833C14.2635 20.9967 13.9593 21.1445 13.6334 21.214C13.3074 21.2834 12.9695 21.2725 12.6487 21.182L3.6007 18.722C2.85945 18.4914 2.20952 18.0334 1.7429 17.413C1.27629 16.7926 1.01664 16.0411 1.0007 15.265V3.813C0.984282 3.08662 1.25578 2.38322 1.75597 1.85624C2.25616 1.32926 2.94445 1.02146 3.6707 1H17.4987C18.2944 1 19.0574 1.31607 19.62 1.87868C20.1826 2.44129 20.4987 3.20435 20.4987 4V12.953C20.4952 13.3575 20.4119 13.7572 20.2536 14.1294C20.0952 14.5016 19.865 14.8389 19.5761 15.122C19.2872 15.405 18.9453 15.6283 18.5699 15.779C18.1945 15.9296 17.7931 16.0048 17.3887 16H15.2487" stroke="#14192B" stroke-width="1.8" stroke-miterlimit="10"/>
<path d="M11.123 12.25C11.1972 12.25 11.2697 12.272 11.3314 12.3132C11.3931 12.3544 11.4411 12.413 11.4695 12.4815C11.4979 12.55 11.5053 12.6254 11.4908 12.6982C11.4764 12.7709 11.4407 12.8377 11.3882 12.8902C11.3358 12.9426 11.2689 12.9783 11.1962 12.9928C11.1235 13.0073 11.0481 12.9998 10.9795 12.9715C10.911 12.9431 10.8525 12.895 10.8112 12.8333C10.77 12.7717 10.748 12.6992 10.748 12.625C10.748 12.5255 10.7876 12.4302 10.8579 12.3598C10.9282 12.2895 11.0236 12.25 11.123 12.25" stroke="#111111" stroke-width="1.5" stroke-linecap="round" stroke-linejoin="round"/>
<path d="M20.498 8.5H15.248" stroke="#111111" stroke-width="1.5" stroke-linecap="round" stroke-linejoin="round"/>
</svg>
