<svg width="25" height="25" viewBox="0 0 25 25" fill="none" xmlns="http://www.w3.org/2000/svg">
<path d="M6.25098 1H7.75098C10.236 1 12.251 3.765 12.251 6.25V7" stroke="#14192B" stroke-width="1.8" stroke-miterlimit="10" stroke-linecap="round"/>
<path d="M5.50098 11.5V14.5" stroke="#14192B" stroke-width="1.8" stroke-miterlimit="10" stroke-linecap="round"/>
<path d="M4.00098 13H7.00098" stroke="#14192B" stroke-width="1.8" stroke-miterlimit="10" stroke-linecap="round"/>
<path d="M17.501 13C17.6004 13 17.6958 13.0395 17.7661 13.1098C17.8365 13.1802 17.876 13.2755 17.876 13.375" stroke="#14192B" stroke-width="1.8" stroke-miterlimit="10" stroke-linecap="round"/>
<path d="M17.126 13.375C17.126 13.2755 17.1655 13.1802 17.2358 13.1098C17.3061 13.0395 17.4015 13 17.501 13" stroke="#14192B" stroke-width="1.8" stroke-miterlimit="10" stroke-linecap="round"/>
<path d="M17.501 13.75C17.4015 13.75 17.3061 13.7105 17.2358 13.6402C17.1655 13.5698 17.126 13.4745 17.126 13.375" stroke="#14192B" stroke-width="1.8" stroke-miterlimit="10" stroke-linecap="round"/>
<path d="M17.876 13.375C17.876 13.4745 17.8365 13.5698 17.7661 13.6402C17.6958 13.7105 17.6004 13.75 17.501 13.75" stroke="#14192B" stroke-width="1.8" stroke-miterlimit="10" stroke-linecap="round"/>
<path d="M19.751 10.75C19.8504 10.75 19.9458 10.7895 20.0161 10.8598C20.0865 10.9302 20.126 11.0255 20.126 11.125" stroke="#14192B" stroke-width="1.8" stroke-miterlimit="10" stroke-linecap="round"/>
<path d="M19.376 11.125C19.376 11.0255 19.4155 10.9302 19.4858 10.8598C19.5561 10.7895 19.6515 10.75 19.751 10.75" stroke="#14192B" stroke-width="1.8" stroke-miterlimit="10" stroke-linecap="round"/>
<path d="M19.751 11.5C19.6515 11.5 19.5561 11.4605 19.4858 11.3902C19.4155 11.3198 19.376 11.2245 19.376 11.125" stroke="#14192B" stroke-width="1.8" stroke-miterlimit="10" stroke-linecap="round"/>
<path d="M20.126 11.125C20.126 11.2245 20.0865 11.3198 20.0161 11.3902C19.9458 11.4605 19.8504 11.5 19.751 11.5" stroke="#14192B" stroke-width="1.8" stroke-miterlimit="10" stroke-linecap="round"/>
<path d="M23.501 15.25V11.5C23.501 10.3065 23.0269 9.16193 22.183 8.31802C21.3391 7.47411 20.1945 7 19.001 7H5.50099C4.30752 7 3.16293 7.47411 2.31901 8.31802C1.4751 9.16193 1.00099 10.3065 1.00099 11.5V20.122C0.983149 20.8524 1.20584 21.5684 1.6348 22.1597C2.06376 22.7511 2.67519 23.1852 3.37499 23.395C4.10484 23.5873 4.87918 23.5154 5.56117 23.1921C6.24316 22.8688 6.78891 22.3148 7.10199 21.628L9.03604 18.0269C9.21029 17.7024 9.54875 17.5 9.91702 17.5H14.5865C14.954 17.5 15.2918 17.7015 15.4664 18.0249L17.338 21.491C17.551 21.9889 17.882 22.4274 18.3024 22.7687C18.7228 23.11 19.22 23.3438 19.751 23.45C20.2105 23.5305 20.6821 23.5095 21.1327 23.3885C21.5833 23.2676 22.002 23.0495 22.3594 22.7497C22.7169 22.4499 23.0044 22.0756 23.202 21.6529C23.3995 21.2303 23.5023 20.7695 23.503 20.303L23.501 15.25Z" stroke="#14192B" stroke-width="1.8" stroke-miterlimit="10" stroke-linecap="round"/>
</svg>
