<svg width="26" height="26" viewBox="0 0 26 26" fill="none" xmlns="http://www.w3.org/2000/svg">
<path fill-rule="evenodd" clip-rule="evenodd" d="M3.88597 3.88634C6.31034 1.46197 9.59848 0.0999756 13.0271 0.0999756C16.4556 0.0999756 19.7438 1.46197 22.1681 3.88634C24.5925 6.3107 25.9545 9.59885 25.9545 13.0274C25.9545 16.456 24.5925 19.7441 22.1681 22.1685C19.7438 24.5929 16.4556 25.9549 13.0271 25.9549C9.59848 25.9549 6.31034 24.5929 3.88597 22.1685C1.4616 19.7441 0.0996094 16.456 0.0996094 13.0274C0.0996094 9.59885 1.4616 6.3107 3.88597 3.88634ZM13.0271 1.89998C10.0759 1.89998 7.24556 3.07233 5.15876 5.15913C3.07196 7.24593 1.89961 10.0762 1.89961 13.0274C1.89961 15.9786 3.07196 18.8089 5.15876 20.8957C7.24556 22.9825 10.0759 24.1549 13.0271 24.1549C15.9782 24.1549 18.8085 22.9825 20.8953 20.8957C22.9821 18.8089 24.1545 15.9786 24.1545 13.0274C24.1545 10.0762 22.9821 7.24593 20.8953 5.15913C18.8085 3.07233 15.9782 1.89998 13.0271 1.89998ZM12.1277 13.0835V6.94227H13.9277V13.0835C13.9277 13.1387 13.9725 13.1835 14.0277 13.1835H17.2052V14.9835H14.0277C12.9784 14.9835 12.1277 14.1328 12.1277 13.0835Z" fill="#14192B"/>
</svg>
