<svg width="32" height="34" viewBox="0 0 32 34" fill="none" xmlns="http://www.w3.org/2000/svg">
<path d="M29.3426 9.50274V2C29.3426 1.44771 28.8949 1 28.3426 1H20.8398" stroke="#14192B" stroke-width="1.8" stroke-miterlimit="10" stroke-linecap="round"/>
<path d="M29.3425 1L19.342 11.0005C19.1665 11.1761 18.9582 11.3153 18.7288 11.4104C18.4995 11.5054 18.2537 11.5543 18.0055 11.5543C17.7572 11.5543 17.5114 11.5054 17.2821 11.4104C17.0528 11.3153 16.8444 11.1761 16.669 11.0005L12.7287 7.06025C12.5533 6.88466 12.3449 6.74537 12.1156 6.65034C11.8863 6.55531 11.6405 6.5064 11.3922 6.5064C11.144 6.5064 10.8982 6.55531 10.6689 6.65034C10.4396 6.74537 10.2312 6.88466 10.0557 7.06025L1 16.116" stroke="#14192B" stroke-width="1.8" stroke-miterlimit="10" stroke-linecap="round"/>
</svg>
