<svg width="28" height="29" viewBox="0 0 28 29" fill="none" xmlns="http://www.w3.org/2000/svg">
<path fill-rule="evenodd" clip-rule="evenodd" d="M0 4.22222C0 2.44327 1.44327 1 3.22222 1H14.7475L22 8.25245V24.2222C22 26.0012 20.5567 27.4444 18.7778 27.4444H3.22222C1.44327 27.4444 0 26.0012 0 24.2222V4.22222ZM3.22222 3C2.54784 3 2 3.54784 2 4.22222V24.2222C2 24.8966 2.54784 25.4444 3.22222 25.4444H18.7778C19.4522 25.4444 20 24.8966 20 24.2222V9.66667L13.3333 9.66667L13.3333 3H3.22222ZM15.3333 4.41421L18.5858 7.66667L15.3333 7.66667L15.3333 4.41421Z" fill="#14192B"/>
</svg>
