<svg width="32" height="30" viewBox="0 0 32 30" fill="none" xmlns="http://www.w3.org/2000/svg">
<path d="M13.7618 28.4443H17.6824M15.7221 2.9603V1M27.484 12.7618H29.4443M2 14.7221H3.9603M24.039 22.0589L25.4256 23.4455M6.01862 4.03841L7.40521 5.425M24.039 5.425L25.4256 4.03841M6.01862 23.4455L7.40521 22.0589M23.5633 14.7221C23.5686 13.2543 23.1618 11.8146 22.3892 10.5666C21.6166 9.31862 20.5092 8.31255 19.1931 7.66285C17.877 7.01314 16.4049 6.74588 14.9444 6.89147C13.4839 7.03706 12.0935 7.58966 10.9316 8.48639C9.76958 9.38313 8.88262 10.588 8.37158 11.9639C7.86055 13.3398 7.74596 14.8316 8.04085 16.2694C8.33574 17.7072 9.02828 19.0334 10.0397 20.0971C11.051 21.1608 12.3407 21.9193 13.7618 22.2862V24.5236H17.6824V22.2862C19.3625 21.8557 20.8519 20.879 21.9164 19.5098C22.9809 18.1406 23.5603 16.4564 23.5633 14.7221Z" stroke="#14192B" stroke-width="1.8" stroke-miterlimit="10" stroke-linecap="round"/>
</svg>
