<svg width="17" height="21" viewBox="0 0 17 21" fill="none" xmlns="http://www.w3.org/2000/svg">
<path d="M8.24414 10.75C9.90099 10.75 11.2441 9.40685 11.2441 7.75C11.2441 6.09315 9.90099 4.75 8.24414 4.75C6.58729 4.75 5.24414 6.09315 5.24414 7.75C5.24414 9.40685 6.58729 10.75 8.24414 10.75Z" stroke="#14192B" stroke-width="1.8" stroke-miterlimit="10"/>
<path d="M8.24373 1C10.1649 1 12.0074 1.69233 13.3658 2.92468C14.7243 4.15703 15.4875 5.82846 15.4875 7.57126C15.4875 10.7362 9.98007 17.8195 8.56996 19.5816C8.53238 19.6281 8.48327 19.6659 8.42659 19.6919C8.36991 19.718 8.30726 19.7315 8.24373 19.7315C8.18019 19.7315 8.11754 19.718 8.06086 19.6919C8.00419 19.6659 7.95507 19.6281 7.91749 19.5816C6.50738 17.8195 1 10.7362 1 7.57126C1 5.82846 1.76318 4.15703 3.12164 2.92468C4.4801 1.69233 6.32257 1 8.24373 1V1Z" stroke="#14192B" stroke-width="1.8" stroke-miterlimit="10"/>
</svg>
