<svg width="32" height="34" viewBox="0 0 32 34" fill="none" xmlns="http://www.w3.org/2000/svg">
<path d="M29.3426 17.5027V10C29.3426 9.44771 28.8949 9 28.3426 9H20.8398" stroke="#14192B" stroke-width="1.8" stroke-miterlimit="10" stroke-linecap="round"/>
<path d="M29.3425 9L19.342 19.0005C19.1665 19.1761 18.9582 19.3153 18.7288 19.4104C18.4995 19.5054 18.2537 19.5543 18.0055 19.5543C17.7572 19.5543 17.5114 19.5054 17.2821 19.4104C17.0528 19.3153 16.8444 19.1761 16.669 19.0005L12.7287 15.0602C12.5533 14.8847 12.3449 14.7454 12.1156 14.6503C11.8863 14.5553 11.6405 14.5064 11.3922 14.5064C11.144 14.5064 10.8982 14.5553 10.6689 14.6503C10.4396 14.7454 10.2312 14.8847 10.0557 15.0602L1 24.116" stroke="#14192B" stroke-width="1.8" stroke-miterlimit="10" stroke-linecap="round"/>
</svg>
