<svg width="28" height="29" viewBox="0 0 28 29" fill="none" xmlns="http://www.w3.org/2000/svg">
<path fill-rule="evenodd" clip-rule="evenodd" d="M10.7925 0H16.4026L16.8707 2.4881C18.8294 3.04065 20.5819 4.07378 21.9981 5.4534L24.3904 4.61099L27.1957 9.46988L25.2816 11.1118C25.5226 12.0618 25.6511 13.0568 25.6511 14.0811C25.6511 15.1053 25.5226 16.1005 25.2803 17.051L27.1937 18.6924L24.3884 23.5512L21.9961 22.7088C20.58 24.0883 18.8277 25.1214 16.8692 25.674L16.4033 28.1622H10.7931L10.3251 25.6741C8.36634 25.1216 6.61387 24.0884 5.19762 22.7088L2.80533 23.5512L2.38419e-07 18.6924L1.91416 17.0504C1.67317 16.1004 1.54462 15.1055 1.54462 14.0811C1.54462 13.0568 1.67317 12.0618 1.91416 11.1118L0 9.46988L2.80522 4.61118L5.19951 5.45353C6.61567 4.07397 8.368 3.04085 10.3266 2.48825L10.7925 0ZM12.2867 1.8L11.8817 3.96334L11.3067 4.09511C9.27466 4.56074 7.47586 5.62814 6.10067 7.10596L5.69913 7.53746L3.61709 6.80496L2.30575 9.07623L3.96883 10.5028L3.79568 11.0664C3.50318 12.0184 3.34462 13.0305 3.34462 14.0811C3.34462 15.1318 3.50318 16.1438 3.79568 17.0958L3.96883 17.6594L2.30575 19.086L3.61698 21.3571L5.69698 20.6246L6.09864 21.0563C7.47383 22.5341 9.27263 23.6015 11.3046 24.0671L11.8791 24.1988L12.2861 26.3622H14.909L15.3141 24.1989L15.8891 24.0671C17.9211 23.6015 19.7199 22.5341 21.0951 21.0563L21.4967 20.6246L23.5767 21.3571L24.888 19.086L23.224 17.6587L23.3985 17.0943C23.6926 16.1433 23.8511 15.1317 23.8511 14.0811C23.8511 13.0305 23.6926 12.0184 23.4001 11.0664L23.2269 10.5028L24.89 9.07623L23.5788 6.80514L21.4988 7.53759L21.0971 7.10596C19.7219 5.62814 17.9231 4.56074 15.8911 4.09511L15.3166 3.96346L14.9097 1.8H12.2867ZM13.5979 9.91146C11.2944 9.91146 9.42821 11.7777 9.42821 14.0811C9.42821 16.3845 11.2945 18.2508 13.5979 18.2508C15.9013 18.2508 17.7675 16.3845 17.7675 14.0811C17.7675 11.7777 15.9013 9.91146 13.5979 9.91146ZM7.62821 14.0811C7.62821 10.7836 10.3003 8.11146 13.5979 8.11146C16.8954 8.11146 19.5675 10.7836 19.5675 14.0811C19.5675 17.3787 16.8954 20.0508 13.5979 20.0508C10.3003 20.0508 7.62821 17.3787 7.62821 14.0811Z" fill="#14192B"/>
</svg>
