<svg width="28" height="29" viewBox="0 0 28 29" fill="none" xmlns="http://www.w3.org/2000/svg">
<path fill-rule="evenodd" clip-rule="evenodd" d="M17.6923 4.9C17.6923 3.85066 18.543 3 19.5923 3H22.9C23.9493 3 24.8 3.85066 24.8 4.9V24.1308C24.8 25.1801 23.9493 26.0308 22.9 26.0308H19.5923C18.543 26.0308 17.6923 25.1801 17.6923 24.1308V4.9ZM19.5923 4.8C19.5371 4.8 19.4923 4.84477 19.4923 4.9V24.1308C19.4923 24.186 19.5371 24.2308 19.5923 24.2308H22.9C22.9552 24.2308 23 24.186 23 24.1308V4.9C23 4.84477 22.9552 4.8 22.9 4.8H19.5923ZM0 10.2077C0 9.15835 0.850658 8.30769 1.9 8.30769H5.20769C6.25703 8.30769 7.10769 9.15835 7.10769 10.2077V24.1308C7.10769 25.1801 6.25703 26.0308 5.20769 26.0308H1.9C0.850659 26.0308 0 25.1801 0 24.1308V10.2077ZM1.9 10.1077C1.84477 10.1077 1.8 10.1525 1.8 10.2077V24.1308C1.8 24.186 1.84477 24.2308 1.9 24.2308H5.20769C5.26292 24.2308 5.30769 24.186 5.30769 24.1308V10.2077C5.30769 10.1525 5.26292 10.1077 5.20769 10.1077H1.9ZM8.84615 15.5154C8.84615 14.466 9.69681 13.6154 10.7462 13.6154H14.0538C15.1032 13.6154 15.9538 14.466 15.9538 15.5154V24.1308C15.9538 25.1801 15.1032 26.0308 14.0538 26.0308H10.7462C9.69681 26.0308 8.84615 25.1801 8.84615 24.1308V15.5154ZM10.7462 15.4154C10.6909 15.4154 10.6462 15.4602 10.6462 15.5154V24.1308C10.6462 24.186 10.6909 24.2308 10.7462 24.2308H14.0538C14.1091 24.2308 14.1538 24.186 14.1538 24.1308V15.5154C14.1538 15.4602 14.1091 15.4154 14.0538 15.4154H10.7462Z" fill="#14192B"/>
</svg>
