<svg width="28" height="29" viewBox="0 0 28 29" fill="none" xmlns="http://www.w3.org/2000/svg">
<path d="M21.3077 23.6154H2.69231C1.75815 23.6154 1 22.8573 1 21.9231V18.5385C1 17.6043 1.75815 16.8462 2.69231 16.8462H21.3077C22.2418 16.8462 23 17.6043 23 18.5385V21.9231C23 22.8573 22.2418 23.6154 21.3077 23.6154Z" stroke="#14192B" stroke-width="1.8" stroke-miterlimit="10"/>
<path d="M19.1238 18.7683C18.7359 18.7683 18.3638 18.9224 18.0895 19.1967C17.8152 19.471 17.6611 19.843 17.6611 20.2309C17.6611 20.6189 17.8152 20.9909 18.0895 21.2652C18.3638 21.5395 18.7359 21.6936 19.1238 21.6936C19.5117 21.6936 19.8837 21.5395 20.158 21.2652C20.4323 20.9909 20.5864 20.6189 20.5864 20.2309C20.5864 19.843 20.4323 19.471 20.158 19.1967C19.8837 18.9224 19.5117 18.7683 19.1238 18.7683Z" fill="#14192B"/>
<path d="M23 19.3846V18.1154L20.7272 6.37077C20.5732 5.57538 19.876 5 19.0654 5H4.93462C4.124 5 3.42677 5.57538 3.27277 6.37077L1 18.1154V19.3846" stroke="#14192B" stroke-width="1.8" stroke-miterlimit="10"/>
</svg>
