<svg width="32" height="34" viewBox="0 0 32 34" fill="none" xmlns="http://www.w3.org/2000/svg">
<path d="M30.6665 20.6865C30.0293 18.8721 28.8452 17.3 27.2773 16.1866C25.7094 15.0732 23.8349 14.4734 21.9119 14.4697H21.9036C19.9808 14.4733 18.1063 15.0731 16.5386 16.1865C14.9709 17.2999 13.7871 18.8721 13.1504 20.6865" stroke="#14192B" stroke-width="1.8" stroke-miterlimit="10" stroke-linecap="round"/>
<path d="M21.9038 12.3974C25.0511 12.3974 27.6025 9.84601 27.6025 6.69871C27.6025 3.5514 25.0511 1 21.9038 1C18.7565 1 16.2051 3.5514 16.2051 6.69871C16.2051 9.84601 18.7565 12.3974 21.9038 12.3974Z" stroke="#14192B" stroke-width="1.8" stroke-miterlimit="10" stroke-linecap="round"/>
<path d="M6.83592 14.4697C9.12487 14.4697 10.9804 12.6141 10.9804 10.3252C10.9804 8.03623 9.12487 6.18066 6.83592 6.18066C4.54697 6.18066 2.69141 8.03623 2.69141 10.3252C2.69141 12.6141 4.54697 14.4697 6.83592 14.4697Z" stroke="#14192B" stroke-width="1.8" stroke-miterlimit="10" stroke-linecap="round"/>
<path d="M10.5144 17.7605C9.45258 16.9673 8.16222 16.5398 6.83686 16.542C5.5548 16.5444 4.30503 16.9443 3.25969 17.6865C2.21435 18.4288 1.42487 19.4769 1 20.6865" stroke="#14192B" stroke-width="1.8" stroke-miterlimit="10" stroke-linecap="round"/>
</svg>
