<svg width="23" height="25" viewBox="0 0 23 25" fill="none" xmlns="http://www.w3.org/2000/svg">
<path d="M2.67943 7.19714C2.67943 3.77425 6.55264 1 11.3306 1C16.1086 1 19.9818 3.77425 19.9818 7.19714M1 15.46C1 18.1936 1.45201 20.7805 2.25671 23.0804C2.39303 23.4701 2.76554 23.7229 3.17832 23.7229H19.4788C19.8916 23.7229 20.2641 23.4701 20.4004 23.0804C21.2051 20.7805 21.6571 18.1936 21.6571 15.46C21.6571 12.7264 21.2051 10.1395 20.4004 7.83958C20.2641 7.44995 19.8916 7.19714 19.4788 7.19714H3.17832C2.76554 7.19714 2.39303 7.44995 2.25671 7.83958C1.45201 10.1395 1 12.7264 1 15.46Z" stroke="#14192B" stroke-width="1.8" stroke-miterlimit="10"/>
<path d="M10.2949 11.2957C10.2949 10.7434 10.7426 10.2957 11.2949 10.2957H11.3606C11.9129 10.2957 12.3606 10.7434 12.3606 11.2957V19.6242C12.3606 20.1765 11.9129 20.6242 11.3606 20.6242H11.2949C10.7426 20.6242 10.2949 20.1765 10.2949 19.6242V11.2957Z" fill="#14192B"/>
<path d="M7.16406 16.4928C6.61178 16.4928 6.16406 16.0451 6.16406 15.4928V15.4271C6.16406 14.8748 6.61178 14.4271 7.16406 14.4271H15.4926C16.0449 14.4271 16.4926 14.8748 16.4926 15.4271V15.4928C16.4926 16.0451 16.0449 16.4928 15.4926 16.4928H7.16406Z" fill="#14192B"/>
</svg>
