<svg width="28" height="29" viewBox="0 0 28 29" fill="none" xmlns="http://www.w3.org/2000/svg">
<path fill-rule="evenodd" clip-rule="evenodd" d="M0 3.22222C0 1.44327 1.44327 0 3.22222 0H14.7475L22 7.25245V23.2222C22 25.0012 20.5567 26.4444 18.7778 26.4444H3.22222C1.44327 26.4444 0 25.0012 0 23.2222V3.22222ZM3.22222 2C2.54784 2 2 2.54784 2 3.22222V23.2222C2 23.8966 2.54784 24.4444 3.22222 24.4444H18.7778C19.4522 24.4444 20 23.8966 20 23.2222V8.66667L13.3333 8.66667L13.3333 2H3.22222ZM15.3333 3.41421L18.5858 6.66667L15.3333 6.66667L15.3333 3.41421Z" fill="#14192B"/>
</svg>
