<svg width="28" height="29" viewBox="0 0 28 29" fill="none" xmlns="http://www.w3.org/2000/svg">
<path fill-rule="evenodd" clip-rule="evenodd" d="M17.6923 1.9C17.6923 0.850659 18.543 0 19.5923 0H22.9C23.9493 0 24.8 0.850659 24.8 1.9V21.1308C24.8 22.1801 23.9493 23.0308 22.9 23.0308H19.5923C18.543 23.0308 17.6923 22.1801 17.6923 21.1308V1.9ZM19.5923 1.8C19.5371 1.8 19.4923 1.84477 19.4923 1.9V21.1308C19.4923 21.186 19.5371 21.2308 19.5923 21.2308H22.9C22.9552 21.2308 23 21.186 23 21.1308V1.9C23 1.84477 22.9552 1.8 22.9 1.8H19.5923ZM0 7.20769C0 6.15835 0.850658 5.30769 1.9 5.30769H5.20769C6.25703 5.30769 7.10769 6.15835 7.10769 7.20769V21.1308C7.10769 22.1801 6.25703 23.0308 5.20769 23.0308H1.9C0.850659 23.0308 0 22.1801 0 21.1308V7.20769ZM1.9 7.10769C1.84477 7.10769 1.8 7.15246 1.8 7.20769V21.1308C1.8 21.186 1.84477 21.2308 1.9 21.2308H5.20769C5.26292 21.2308 5.30769 21.186 5.30769 21.1308V7.20769C5.30769 7.15246 5.26292 7.10769 5.20769 7.10769H1.9ZM8.84615 12.5154C8.84615 11.466 9.69681 10.6154 10.7462 10.6154H14.0538C15.1032 10.6154 15.9538 11.466 15.9538 12.5154V21.1308C15.9538 22.1801 15.1032 23.0308 14.0538 23.0308H10.7462C9.69681 23.0308 8.84615 22.1801 8.84615 21.1308V12.5154ZM10.7462 12.4154C10.6909 12.4154 10.6462 12.4602 10.6462 12.5154V21.1308C10.6462 21.186 10.6909 21.2308 10.7462 21.2308H14.0538C14.1091 21.2308 14.1538 21.186 14.1538 21.1308V12.5154C14.1538 12.4602 14.1091 12.4154 14.0538 12.4154H10.7462Z" fill="#14192B"/>
</svg>
