<svg width="175" height="110" viewBox="0 0 175 110" fill="none" xmlns="http://www.w3.org/2000/svg">
<rect width="175" height="110" fill="white"/>
<path d="M147.304 68.1989L141.147 74.3589" stroke="#65CC32" stroke-width="1.4"/>
<path d="M146.783 67.7653L153.46 74.3589" stroke="#65CC32" stroke-width="1.4"/>
<path d="M22.8518 37.9963H23.8331V31.1579H25.9095V30.3005H20.7548V31.1579H22.8518V37.9963ZM28.8973 38.1203C30.4778 38.1203 31.7174 36.9117 31.7174 35.2486C31.7174 33.5854 30.4881 32.3975 28.8973 32.3975C27.3064 32.3975 26.0772 33.5854 26.0772 35.2486C26.0772 36.9117 27.3168 38.1203 28.8973 38.1203ZM28.8973 37.2629C27.8333 37.2629 27.0172 36.4055 27.0172 35.2589C27.0172 34.1123 27.8333 33.2549 28.8973 33.2549C29.9613 33.2549 30.7773 34.1123 30.7773 35.2589C30.7773 36.4055 29.9613 37.2629 28.8973 37.2629ZM35.1717 38.0583C35.3266 38.0583 35.5436 38.048 35.7192 38.0067V37.2836C35.6055 37.3042 35.4506 37.3146 35.337 37.3146C34.3969 37.3146 34.335 36.6741 34.335 36.3229V33.3685H35.6572V32.5214H34.335V30.7447H33.4466V31.7157C33.4466 32.2012 33.1367 32.5214 32.6615 32.5214H32.3826V33.3685H33.4466V36.3229C33.4466 37.4282 34.0664 38.0583 35.1717 38.0583ZM39.0863 32.3975C38.0739 32.3975 37.1856 32.976 36.8757 33.7197L37.6711 34.1329C37.9087 33.5958 38.4252 33.2445 39.0863 33.2445C39.8094 33.2445 40.3259 33.6577 40.3259 34.2879V34.4428L38.4252 34.8663C37.3198 35.1143 36.6691 35.6721 36.6691 36.4778C36.6691 37.4385 37.4541 38.1203 38.6214 38.1203C39.3239 38.1203 39.9747 37.7794 40.3465 37.2319V37.9963H41.2143V34.2879C41.2143 33.1722 40.3362 32.3975 39.0863 32.3975ZM38.6731 37.3249C38.0223 37.3249 37.6091 36.9943 37.6091 36.4778C37.6091 36.0336 38.012 35.6927 38.6318 35.5585L40.3259 35.1659V35.6411C40.3259 36.6018 39.6338 37.3249 38.6731 37.3249ZM42.5826 37.9963H43.471V30.3005H42.5826V37.9963ZM49.3554 32.4595C48.6943 32.4595 48.1675 32.697 47.8782 33.2032V32.5214H47.0208V37.9963H47.9092V34.7321C47.9092 33.823 48.4361 33.3065 49.2211 33.3065H49.7996V32.4595H49.3554ZM55.8667 35.0213C55.8667 33.6267 54.875 32.3975 53.3152 32.3975C51.7864 32.3975 50.6501 33.5958 50.6501 35.2486C50.6501 36.9014 51.8174 38.1203 53.3875 38.1203C54.5135 38.1203 55.4019 37.5108 55.7428 36.7567L54.968 36.3435C54.6788 36.9014 54.1726 37.3146 53.3978 37.3146C52.4372 37.3146 51.6211 36.6121 51.5798 35.5275H55.8254C55.8564 35.3519 55.8667 35.1762 55.8667 35.0213ZM51.6004 34.763C51.7244 33.7714 52.4578 33.1826 53.3152 33.1826C54.1209 33.1826 54.875 33.854 54.8854 34.763H51.6004ZM60.6249 32.5214L59.0134 36.7774L57.4019 32.5214H56.4102L58.6002 37.9963H59.4163L61.6166 32.5214H60.6249ZM67.4775 35.0213C67.4775 33.6267 66.4858 32.3975 64.926 32.3975C63.3971 32.3975 62.2608 33.5958 62.2608 35.2486C62.2608 36.9014 63.4281 38.1203 64.9983 38.1203C66.1242 38.1203 67.0126 37.5108 67.3535 36.7567L66.5788 36.3435C66.2895 36.9014 65.7834 37.3146 65.0086 37.3146C64.0479 37.3146 63.2318 36.6121 63.1905 35.5275H67.4362C67.4671 35.3519 67.4775 35.1762 67.4775 35.0213ZM63.2112 34.763C63.3351 33.7714 64.0686 33.1826 64.926 33.1826C65.7317 33.1826 66.4858 33.854 66.4961 34.763H63.2112ZM71.0866 32.3975C70.4151 32.3975 69.8263 32.6764 69.5061 33.1516V32.5214H68.6384V37.9963H69.5268V34.6804C69.5268 33.823 70.0743 33.2549 70.8903 33.2549C71.7167 33.2549 72.2436 33.8127 72.2436 34.6804V37.9963H73.1319V34.3912C73.1319 33.2445 72.2745 32.3975 71.0866 32.3975ZM78.097 32.5214V35.8374C78.097 36.6948 77.5495 37.2629 76.7437 37.2629C75.9173 37.2629 75.3802 36.7051 75.3802 35.8374V32.5214H74.4918V36.0026C74.4918 37.1699 75.3595 38.1203 76.5475 38.1203C77.2086 38.1203 77.7974 37.8414 78.1176 37.3662V37.9963H78.9853V32.5214H78.097ZM85.4585 35.0213C85.4585 33.6267 84.4668 32.3975 82.907 32.3975C81.3782 32.3975 80.2419 33.5958 80.2419 35.2486C80.2419 36.9014 81.4092 38.1203 82.9793 38.1203C84.1053 38.1203 84.9937 37.5108 85.3346 36.7567L84.5598 36.3435C84.2706 36.9014 83.7644 37.3146 82.9897 37.3146C82.029 37.3146 81.2129 36.6121 81.1716 35.5275H85.4172C85.4482 35.3519 85.4585 35.1762 85.4585 35.0213ZM81.1922 34.763C81.3162 33.7714 82.0496 33.1826 82.907 33.1826C83.7128 33.1826 84.4668 33.854 84.4772 34.763H81.1922Z" fill="#888B94"/>
<path d="M35.2262 69.877C35.2262 67.424 33.6808 65.805 30.6636 64.8729L29.8786 64.6276V59.3291C31.0806 59.7706 31.9882 60.7273 32.4543 62.0764L35.128 60.8499C34.3676 58.7404 32.4543 57.0233 29.8786 56.4836V54.0306H27.6955V56.3119C24.1877 56.4836 21.8328 58.5687 21.8328 61.5613C21.8328 63.9162 23.3046 65.7314 26.3218 66.639L27.6955 67.056V72.3545C26.0274 72.0111 24.6047 70.8091 23.8933 68.9203L21.2441 70.1223C22.0781 72.7715 24.5556 74.7585 27.6955 75.1264V77.3341H29.8786V75.1019C33.1166 74.7339 35.2262 72.7225 35.2262 69.877ZM27.2049 63.8181C25.7331 63.3765 24.9481 62.5425 24.9481 61.4141C24.9481 60.1386 26.0274 59.1819 27.6955 59.0593V63.9653L27.2049 63.8181ZM29.8786 72.33V67.7429H29.9032C31.3504 68.1844 32.1109 68.8467 32.1109 70.0978C32.1109 71.1771 31.2768 72.0356 29.8786 72.33ZM40.1481 74.8811H43.2634V56.6063L36.7139 56.6308V59.2555H40.1481V74.8811ZM61.975 68.2089H59.1786V56.6063H56.0142L47.3796 68.2089V70.8091H56.1614V74.8811H59.1786V70.8091H61.975V68.2089ZM50.4704 68.2089L56.1614 60.4329V68.2089H50.4704ZM74.2193 65.0936C75.4948 64.2841 76.2798 62.8369 76.2798 61.2424C76.2798 58.3724 73.8268 56.3119 70.4662 56.3119C67.1056 56.3119 64.6526 58.3969 64.6526 61.2424C64.6526 62.8369 65.4375 64.3087 66.7376 65.0936C64.9224 66.0012 63.9167 67.5712 63.9167 69.509C63.9167 72.7715 66.6886 75.1755 70.4662 75.1755C74.2438 75.1755 77.0648 72.7715 77.0648 69.509C77.0648 67.5712 76.0345 66.0258 74.2193 65.0936ZM70.4662 58.9366C72.0116 58.9366 73.1154 59.9669 73.1154 61.4387C73.1154 62.8859 72.0116 63.8917 70.4662 63.8917C68.8963 63.8917 67.817 62.8859 67.817 61.4387C67.817 59.9669 68.9208 58.9366 70.4662 58.9366ZM70.4662 72.5262C68.4547 72.5262 67.032 71.2997 67.032 69.5336C67.032 67.7674 68.4547 66.5409 70.4662 66.5409C72.5022 66.5409 73.9249 67.7674 73.9249 69.5336C73.9249 71.2997 72.5022 72.5262 70.4662 72.5262ZM79.9313 77.7511H81.9673L83.7825 71.5696H80.9125L79.9313 77.7511ZM94.1744 75.1755C98.5898 75.1755 101.484 71.3733 101.484 65.7314C101.484 60.0895 98.5653 56.3119 94.1499 56.3119C89.7836 56.3119 86.84 60.065 86.84 65.7314C86.84 71.3978 89.8081 75.1755 94.1744 75.1755ZM94.1744 72.33C91.5743 72.33 89.9307 69.8034 89.9307 65.7314C89.9307 61.6594 91.5497 59.1574 94.1499 59.1574C96.7991 59.1574 98.4181 61.6594 98.4181 65.7314C98.4181 69.8279 96.7991 72.33 94.1744 72.33ZM110.181 63.0086C109.102 63.0086 108.218 63.2539 107.507 63.72L108.145 59.2064L115.651 59.231V56.6063H105.986L104.539 66.7126L106.869 67.2768C107.36 66.2465 108.415 65.6824 109.69 65.6824C111.726 65.6824 113.1 67.0315 113.1 69.0184C113.1 71.0299 111.702 72.379 109.715 72.379C107.998 72.379 106.477 71.3733 105.864 69.8034L103.411 71.1525C104.318 73.6055 106.771 75.1755 109.715 75.1755C113.468 75.1755 116.215 72.5262 116.215 68.8713C116.215 65.4371 113.713 63.0086 110.181 63.0086ZM128.861 65.0936C130.136 64.2841 130.921 62.8369 130.921 61.2424C130.921 58.3724 128.468 56.3119 125.108 56.3119C121.747 56.3119 119.294 58.3969 119.294 61.2424C119.294 62.8369 120.079 64.3087 121.379 65.0936C119.564 66.0012 118.558 67.5712 118.558 69.509C118.558 72.7715 121.33 75.1755 125.108 75.1755C128.885 75.1755 131.706 72.7715 131.706 69.509C131.706 67.5712 130.676 66.0258 128.861 65.0936ZM125.108 58.9366C126.653 58.9366 127.757 59.9669 127.757 61.4387C127.757 62.8859 126.653 63.8917 125.108 63.8917C123.538 63.8917 122.458 62.8859 122.458 61.4387C122.458 59.9669 123.562 58.9366 125.108 58.9366ZM125.108 72.5262C123.096 72.5262 121.674 71.2997 121.674 69.5336C121.674 67.7674 123.096 66.5409 125.108 66.5409C127.144 66.5409 128.566 67.7674 128.566 69.5336C128.566 71.2997 127.144 72.5262 125.108 72.5262Z" fill="#14192B"/>
</svg>
