<svg width="165" height="160" viewBox="0 0 165 160" fill="none" xmlns="http://www.w3.org/2000/svg">
<rect width="165" height="160" fill="white"/>
<path d="M72.8403 96.181C74.3083 96.181 75.3132 95.3534 75.3132 94.1416C75.3132 93.1563 74.7122 92.5357 73.5103 92.1711L72.1999 91.777C71.4807 91.5701 71.0965 91.1366 71.0965 90.5751C71.0965 89.8854 71.6778 89.4224 72.5645 89.4224C73.461 89.4224 74.131 89.8953 74.4364 90.7623L75.2541 90.378C74.9191 89.4027 73.9044 88.6046 72.5546 88.6046C71.1457 88.6046 70.1605 89.4421 70.1605 90.6342C70.1605 91.5406 70.7517 92.2795 71.9241 92.6243L73.2935 93.0381C74.0226 93.2549 74.3773 93.5898 74.3773 94.2105C74.3773 94.8903 73.7664 95.3632 72.8403 95.3632C71.8649 95.3632 71.1063 94.8312 70.7615 93.8263L69.9339 94.1908C70.2886 95.3041 71.4019 96.181 72.8403 96.181ZM78.8187 90.7229C77.8532 90.7229 77.0059 91.2746 76.7104 91.9839L77.469 92.378C77.6956 91.8657 78.1882 91.5307 78.8187 91.5307C79.5084 91.5307 80.001 91.9248 80.001 92.5258V92.6736L78.1882 93.0775C77.134 93.314 76.5133 93.846 76.5133 94.6145C76.5133 95.5307 77.2621 96.181 78.3754 96.181C79.0453 96.181 79.666 95.8558 80.0207 95.3337V96.0627H80.8483V92.5258C80.8483 91.4618 80.0109 90.7229 78.8187 90.7229ZM78.4247 95.4224C77.804 95.4224 77.4099 95.1071 77.4099 94.6145C77.4099 94.1908 77.7941 93.8657 78.3853 93.7376L80.001 93.3632V93.8164C80.001 94.7327 79.3409 95.4224 78.4247 95.4224ZM82.3504 96.0627H83.1977V88.7229H82.3504V96.0627ZM89.5698 93.2253C89.5698 91.8953 88.624 90.7229 87.1363 90.7229C85.6782 90.7229 84.5944 91.8657 84.5944 93.4421C84.5944 95.0184 85.7077 96.181 87.2053 96.181C88.2792 96.181 89.1264 95.5997 89.4516 94.8805L88.7127 94.4864C88.4368 95.0184 87.954 95.4125 87.2151 95.4125C86.2989 95.4125 85.5205 94.7426 85.4811 93.7081H89.5304C89.5599 93.5406 89.5698 93.3731 89.5698 93.2253ZM85.5008 92.979C85.6191 92.0332 86.3186 91.4716 87.1363 91.4716C87.9048 91.4716 88.624 92.112 88.6338 92.979H85.5008ZM92.6967 96.181C93.8199 96.181 94.5982 95.5603 94.5982 94.6539C94.5982 93.9544 94.1253 93.4421 93.2484 93.1859L92.3617 92.9199C91.9085 92.782 91.613 92.5455 91.613 92.1908C91.613 91.777 91.9874 91.5012 92.5489 91.5012C93.1696 91.5012 93.6622 91.8263 93.879 92.3879L94.5883 92.0431C94.2829 91.2253 93.5144 90.7229 92.5489 90.7229C91.4652 90.7229 90.7361 91.3337 90.7361 92.2401C90.7361 92.9495 91.1893 93.4519 92.0662 93.6982L92.9233 93.9347C93.4061 94.0726 93.7213 94.2795 93.7213 94.6539C93.7213 95.0874 93.3075 95.4026 92.6967 95.4026C92.0465 95.4026 91.4849 95.0578 91.2189 94.3977L90.4997 94.7524C90.8346 95.6391 91.6721 96.181 92.6967 96.181Z" fill="#888B94"/>
<path d="M56.2837 78.0484C56.2837 76.2247 55.1348 75.0211 52.8916 74.3281L52.308 74.1457V70.2065C53.2016 70.5347 53.8764 71.246 54.2229 72.249L56.2107 71.3372C55.6454 69.7688 54.2229 68.4922 52.308 68.091V66.2673H50.6849V67.9633C48.077 68.091 46.3262 69.6411 46.3262 71.866C46.3262 73.6168 47.4205 74.9664 49.6636 75.6411L50.6849 75.9512V79.8904C49.4448 79.6351 48.387 78.7414 47.8581 77.3372L45.8885 78.2308C46.5086 80.2004 48.3505 81.6776 50.6849 81.9512V83.5925H52.308V81.9329C54.7153 81.6594 56.2837 80.1639 56.2837 78.0484ZM50.3202 73.5439C49.2259 73.2156 48.6423 72.5955 48.6423 71.7566C48.6423 70.8083 49.4448 70.097 50.6849 70.0059V73.6533L50.3202 73.5439ZM52.308 79.8721V76.4618H52.3262C53.4022 76.7901 53.9676 77.2825 53.9676 78.2126C53.9676 79.015 53.3475 79.6533 52.308 79.8721ZM57.6451 81.7688H66.7271V79.7992H60.5995L63.8457 76.4253C65.6329 74.5834 66.4901 73.2703 66.4901 71.7749C66.4901 69.5135 64.7393 67.9633 62.2226 67.9633C60.0159 67.9633 58.2469 69.1122 57.6086 70.9542L59.4505 71.9572C59.87 70.7353 60.8366 70.0423 62.1132 70.0423C63.3898 70.0423 64.1739 70.7718 64.1739 71.9937C64.1739 73.1062 63.5174 73.9451 61.329 76.2065L57.6268 80.0545L57.6451 81.7688ZM76.1194 74.4922C77.0677 73.8904 77.6513 72.8144 77.6513 71.629C77.6513 69.4952 75.8276 67.9633 73.3291 67.9633C70.8306 67.9633 69.0069 69.5135 69.0069 71.629C69.0069 72.8144 69.5905 73.9086 70.5571 74.4922C69.2075 75.167 68.4598 76.3341 68.4598 77.7749C68.4598 80.2004 70.5206 81.9876 73.3291 81.9876C76.1376 81.9876 78.2349 80.2004 78.2349 77.7749C78.2349 76.3341 77.4689 75.1852 76.1194 74.4922ZM73.3291 69.9147C74.4781 69.9147 75.2987 70.6806 75.2987 71.7749C75.2987 72.8509 74.4781 73.5986 73.3291 73.5986C72.1619 73.5986 71.3595 72.8509 71.3595 71.7749C71.3595 70.6806 72.1802 69.9147 73.3291 69.9147ZM73.3291 80.018C71.8337 80.018 70.7759 79.1062 70.7759 77.7931C70.7759 76.48 71.8337 75.5682 73.3291 75.5682C74.8428 75.5682 75.9006 76.48 75.9006 77.7931C75.9006 79.1062 74.8428 80.018 73.3291 80.018ZM80.3661 83.9025H81.8798L83.2293 79.3068H81.0956L80.3661 83.9025ZM90.3352 72.942C89.5328 72.942 88.8763 73.1244 88.3474 73.4709L88.8215 70.1153L94.4021 70.1335V68.1822H87.2167L86.1407 75.6958L87.8732 76.1153C88.238 75.3493 89.0222 74.9299 89.9705 74.9299C91.4842 74.9299 92.5054 75.9329 92.5054 77.4101C92.5054 78.9056 91.4659 79.9086 89.9887 79.9086C88.7121 79.9086 87.5814 79.1609 87.1255 77.9937L85.3018 78.9968C85.9766 80.8205 87.8003 81.9876 89.9887 81.9876C92.779 81.9876 94.8216 80.018 94.8216 77.3007C94.8216 74.7475 92.9614 72.942 90.3352 72.942ZM104.223 74.4922C105.171 73.8904 105.755 72.8144 105.755 71.629C105.755 69.4952 103.931 67.9633 101.433 67.9633C98.9343 67.9633 97.1106 69.5135 97.1106 71.629C97.1106 72.8144 97.6942 73.9086 98.6608 74.4922C97.3112 75.167 96.5635 76.3341 96.5635 77.7749C96.5635 80.2004 98.6243 81.9876 101.433 81.9876C104.241 81.9876 106.339 80.2004 106.339 77.7749C106.339 76.3341 105.573 75.1852 104.223 74.4922ZM101.433 69.9147C102.582 69.9147 103.402 70.6806 103.402 71.7749C103.402 72.8509 102.582 73.5986 101.433 73.5986C100.266 73.5986 99.4632 72.8509 99.4632 71.7749C99.4632 70.6806 100.284 69.9147 101.433 69.9147ZM101.433 80.018C99.9373 80.018 98.8796 79.1062 98.8796 77.7931C98.8796 76.48 99.9373 75.5682 101.433 75.5682C102.946 75.5682 104.004 76.48 104.004 77.7931C104.004 79.1062 102.946 80.018 101.433 80.018ZM113.467 81.9876C116.749 81.9876 118.901 79.1609 118.901 74.9664C118.901 70.7718 116.731 67.9633 113.448 67.9633C110.202 67.9633 108.014 70.7536 108.014 74.9664C108.014 79.1791 110.221 81.9876 113.467 81.9876ZM113.467 79.8721C111.534 79.8721 110.312 77.9937 110.312 74.9664C110.312 71.939 111.515 70.0788 113.448 70.0788C115.418 70.0788 116.622 71.939 116.622 74.9664C116.622 78.012 115.418 79.8721 113.467 79.8721Z" fill="#14192B"/>
<path d="M139.911 79.9999C139.911 111.639 114.211 137.294 82.5001 137.294C50.789 137.294 25.0889 111.639 25.0889 79.9999C25.0889 48.361 50.789 22.7058 82.5001 22.7058C114.211 22.7058 139.911 48.361 139.911 79.9999Z" stroke="#E9EAF0" stroke-width="4"/>
<path d="M32.7691 108.627C25.9427 96.8168 23.5606 82.9643 26.0503 69.5587C28.54 56.153 35.7386 44.0722 46.3535 35.4874C56.9686 26.9025 70.304 22.3768 83.9635 22.7244C97.623 23.072 110.71 28.27 120.873 37.3835" stroke="#FFCA42" stroke-width="4" stroke-linecap="round"/>
<path d="M107.679 28.5099C118.183 33.6255 126.872 41.8185 132.585 51.9935C138.298 62.1684 140.763 73.8407 139.651 85.4507" stroke="#7F42FF" stroke-width="4" stroke-linecap="round"/>
<path d="M88.4029 136.99C77.1281 138.153 65.7608 135.96 55.7336 130.686C45.7064 125.412 37.4681 117.295 32.0565 107.357" stroke="#0144E4" stroke-width="4" stroke-linecap="round"/>
</svg>
