<svg width="294" height="221" viewBox="0 0 294 221" fill="none" xmlns="http://www.w3.org/2000/svg">
<rect width="294" height="220.252" fill="white"/>
<circle cx="219.587" cy="62.4218" r="52.5219" fill="#FFCA42"/>
<rect opacity="0.58" x="40.4512" y="52.4084" width="189.735" height="141.018" rx="4" fill="#E9EAF0"/>
<rect x="54.8457" y="40.783" width="188.841" height="140.018" rx="3.5" fill="white" stroke="#14192B"/>
<path d="M103.464 112.57C102.198 112.57 100.983 113.073 100.088 113.968C99.1925 114.864 98.6895 116.078 98.6895 117.345C98.6895 118.611 99.1925 119.825 100.088 120.721C100.983 121.616 102.198 122.119 103.464 122.119C104.73 122.119 105.945 121.616 106.84 120.721C107.736 119.825 108.239 118.611 108.239 117.345C108.239 116.078 107.736 114.864 106.84 113.968C105.945 113.073 104.73 112.57 103.464 112.57V112.57Z" stroke="#14192B" stroke-miterlimit="10"/>
<path d="M103.464 115.682C103.023 115.682 102.601 115.857 102.289 116.169C101.977 116.481 101.802 116.904 101.802 117.345C101.802 117.785 101.977 118.208 102.289 118.52C102.601 118.832 103.023 119.007 103.464 119.007C103.905 119.007 104.328 118.832 104.64 118.52C104.952 118.208 105.127 117.785 105.127 117.345C105.127 116.904 104.952 116.481 104.64 116.169C104.328 115.857 103.905 115.682 103.464 115.682V115.682Z" fill="#14192B"/>
<path d="M95.2578 117.345C95.2578 117.345 97.3372 112.57 103.464 112.57C109.592 112.57 111.671 117.345 111.671 117.345C111.671 117.345 109.592 122.119 103.464 122.119C97.3372 122.119 95.2578 117.345 95.2578 117.345Z" stroke="#14192B" stroke-miterlimit="10"/>
<circle cx="103.464" cy="117.344" r="13.5" stroke="#14192B"/>
<circle cx="103.464" cy="83.3445" r="13.5" stroke="#14192B"/>
<path d="M96.5791 86.8377L98.5093 86.2441C99.3089 85.9979 100.152 85.9252 100.982 86.0307C101.812 86.1362 102.61 86.4176 103.322 86.8561C104.017 87.2846 104.794 87.5638 105.603 87.6756C106.413 87.7875 107.236 87.7298 108.022 87.506L109.85 86.9834C109.994 86.9423 110.12 86.8554 110.21 86.7359C110.3 86.6164 110.349 86.4708 110.349 86.3212V79.1443C110.349 79.0378 110.324 78.9327 110.277 78.8374C110.229 78.742 110.16 78.659 110.075 78.5948C109.99 78.5307 109.891 78.4871 109.786 78.4675C109.682 78.448 109.574 78.453 109.471 78.4821L108.022 78.8964C107.236 79.1207 106.413 79.1791 105.604 79.0678C104.795 78.9566 104.018 78.6781 103.322 78.2502C102.61 77.8117 101.812 77.5303 100.982 77.4248C100.152 77.3193 99.3089 77.392 98.5093 77.6382L96.5791 78.2312" stroke="#14192B" stroke-linecap="round" stroke-linejoin="round"/>
<path d="M96.5791 90.2294V76.4595" stroke="#14192B" stroke-linecap="round" stroke-linejoin="round"/>
<circle cx="103.464" cy="151.344" r="13.5" stroke="#14192B"/>
<path d="M100.243 154.565L106.684 148.124" stroke="#14192B" stroke-linecap="round" stroke-linejoin="round"/>
<path d="M100.847 151.358C100.462 151.336 100.075 151.395 99.7141 151.533C99.3529 151.67 99.0248 151.883 98.7513 152.156L97.371 153.536C96.8533 154.054 96.5625 154.756 96.5625 155.488C96.5625 155.85 96.6339 156.209 96.7726 156.544C96.9114 156.879 97.1147 157.183 97.371 157.44C97.6274 157.696 97.9317 157.9 98.2666 158.038C98.6015 158.177 98.9605 158.248 99.323 158.248C100.055 158.248 100.757 157.958 101.275 157.44L102.655 156.06C102.928 155.786 103.141 155.458 103.278 155.097C103.415 154.736 103.475 154.349 103.453 153.963" stroke="#14192B" stroke-linecap="round" stroke-linejoin="round"/>
<path d="M106.08 151.331C106.465 151.353 106.852 151.293 107.213 151.156C107.574 151.018 107.902 150.806 108.176 150.533L109.556 149.153C110.074 148.635 110.364 147.933 110.364 147.201C110.364 146.469 110.074 145.767 109.556 145.249C109.038 144.731 108.336 144.44 107.604 144.44C106.872 144.44 106.17 144.731 105.652 145.249L104.272 146.629C103.999 146.903 103.788 147.231 103.651 147.592C103.514 147.954 103.455 148.34 103.477 148.725" stroke="#14192B" stroke-linecap="round" stroke-linejoin="round"/>
<line x1="179.957" y1="82.8445" x2="198.84" y2="82.8445" stroke="#FFCA42"/>
<line x1="179.957" y1="150.844" x2="198.84" y2="150.844" stroke="#14192B"/>
<line x1="202.258" y1="82.8445" x2="231.815" y2="82.8445" stroke="#14192B"/>
<line x1="197.318" y1="116.844" x2="220.455" y2="116.844" stroke="#14192B"/>
<line x1="202.258" y1="150.844" x2="231.815" y2="150.844" stroke="#FFCA42"/>
<line x1="121.453" y1="82.8445" x2="152" y2="82.8445" stroke="#14192B"/>
<line x1="121.453" y1="116.844" x2="178.777" y2="116.844" stroke="#14192B"/>
<line x1="121.453" y1="150.844" x2="154.266" y2="150.844" stroke="#14192B"/>
<line x1="54.3457" y1="59.6873" x2="244.186" y2="59.6873" stroke="#14192B"/>
<circle cx="70.4639" cy="50.2351" r="3" fill="white" stroke="#14192B"/>
<circle cx="81.4639" cy="50.2351" r="3" fill="white" stroke="#14192B"/>
<circle cx="92.4639" cy="50.2351" r="3" fill="white" stroke="#14192B"/>
<line x1="75.1146" y1="78.8336" x2="75.1146" y2="153.135" stroke="#D8DAE3" stroke-width="0.824837" stroke-dasharray="6.6 6.6"/>
<circle cx="74.7019" cy="83.8773" r="5.04366" fill="#FFCA42"/>
<circle cx="74.7019" cy="117.345" r="5.04366" fill="#FFCA42"/>
<circle cx="74.7019" cy="151.354" r="5.04366" fill="#FFCA42"/>
</svg>
