<svg width="775" height="518" viewBox="0 0 775 518" fill="none" xmlns="http://www.w3.org/2000/svg">
<path d="M0 0H775V518H0V0Z" fill="white"/>
<rect x="20.6212" y="58.2614" width="732.943" height="252.663" rx="4.97453" fill="white" stroke="#E9EAF0" stroke-width="0.904461"/>
<path d="M52.707 272.901C52.707 272.087 52.2105 271.574 51.2174 271.273L50.8837 271.175V269.051C51.3965 269.181 51.7872 269.547 51.9826 270.109L52.6582 269.791C52.4221 269.099 51.7709 268.513 50.8837 268.367V267.528H50.265V268.334C49.1905 268.391 48.4497 269.067 48.4497 270.003C48.4497 270.752 48.9382 271.362 49.9068 271.647L50.265 271.753V273.87C49.6545 273.747 49.1824 273.324 48.9463 272.64L48.2625 272.942C48.523 273.756 49.2719 274.415 50.265 274.561V275.302H50.8837V274.578C51.9744 274.496 52.707 273.837 52.707 272.901ZM50.1348 270.947C49.5405 270.776 49.2231 270.418 49.2231 269.954C49.2231 269.433 49.6301 269.067 50.265 269.01V270.988L50.1348 270.947ZM50.8837 273.902V271.94L51.0383 271.989C51.6407 272.168 51.9337 272.445 51.9337 272.958C51.9337 273.463 51.5267 273.829 50.8837 273.902ZM56.1569 274.586C57.5977 274.586 58.5583 273.332 58.5583 271.452C58.5583 269.58 57.5977 268.326 56.1488 268.326C54.7161 268.326 53.7475 269.58 53.7475 271.452C53.7475 273.324 54.7243 274.586 56.1569 274.586ZM56.1569 273.87C55.172 273.87 54.5208 272.909 54.5208 271.452C54.5208 269.995 55.1638 269.042 56.1488 269.042C57.1419 269.042 57.7931 269.995 57.7931 271.452C57.7931 272.917 57.1419 273.87 56.1569 273.87Z" fill="#888B94"/>
<path d="M42.549 121.896C42.549 121.082 42.0525 120.569 41.0594 120.268L40.7256 120.17V118.045C41.2385 118.176 41.6292 118.542 41.8245 119.104L42.5002 118.786C42.2641 118.094 41.6129 117.508 40.7256 117.362V116.523H40.107V117.329C39.0325 117.386 38.2917 118.062 38.2917 118.998C38.2917 119.747 38.7801 120.357 39.7488 120.642L40.107 120.748V122.864C39.4965 122.742 39.0243 122.319 38.7883 121.635L38.1045 121.936C38.365 122.75 39.1139 123.41 40.107 123.556V124.297H40.7256V123.572C41.8164 123.491 42.549 122.832 42.549 121.896ZM39.9767 119.942C39.3825 119.771 39.065 119.413 39.065 118.949C39.065 118.428 39.472 118.062 40.107 118.005V119.983L39.9767 119.942ZM40.7256 122.897V120.935L40.8803 120.984C41.4827 121.163 41.7757 121.44 41.7757 121.953C41.7757 122.457 41.3687 122.824 40.7256 122.897ZM43.508 123.483H47.4804V122.815H44.5581L46.0559 121.236C46.935 120.316 47.3339 119.698 47.3339 119.022C47.3339 118.021 46.5606 117.321 45.4779 117.321C44.5093 117.321 43.736 117.842 43.4592 118.664L44.0697 118.973C44.2895 118.346 44.7779 118.005 45.4617 118.005C46.1536 118.005 46.5606 118.387 46.5606 119.055C46.5606 119.673 46.178 120.154 45.1849 121.204L43.4999 122.962L43.508 123.483ZM51.0108 123.581C52.4516 123.581 53.4122 122.327 53.4122 120.447C53.4122 118.574 52.4516 117.321 51.0027 117.321C49.57 117.321 48.6013 118.574 48.6013 120.447C48.6013 122.319 49.5782 123.581 51.0108 123.581ZM51.0108 122.864C50.0259 122.864 49.3747 121.904 49.3747 120.447C49.3747 118.99 50.0177 118.037 51.0027 118.037C51.9958 118.037 52.647 118.99 52.647 120.447C52.647 121.912 51.9958 122.864 51.0108 122.864ZM56.9926 123.581C58.4334 123.581 59.3939 122.327 59.3939 120.447C59.3939 118.574 58.4334 117.321 56.9844 117.321C55.5518 117.321 54.5831 118.574 54.5831 120.447C54.5831 122.319 55.5599 123.581 56.9926 123.581ZM56.9926 122.864C56.0076 122.864 55.3564 121.904 55.3564 120.447C55.3564 118.99 55.9995 118.037 56.9844 118.037C57.9775 118.037 58.6287 118.99 58.6287 120.447C58.6287 121.912 57.9775 122.864 56.9926 122.864ZM62.9417 119.673L64.9361 117.419H64.0244L61.4521 120.308V117.419H60.6788V123.483H61.4521V121.366L62.4289 120.268L64.3663 123.483H65.2617L62.9417 119.673Z" fill="#888B94"/>
<path d="M44.8855 152.097C44.8855 151.283 44.389 150.77 43.3959 150.469L43.0621 150.371V148.246C43.5749 148.377 43.9657 148.743 44.161 149.305L44.8367 148.987C44.6006 148.295 43.9494 147.709 43.0621 147.563V146.724H42.4435V147.53C41.369 147.587 40.6282 148.263 40.6282 149.199C40.6282 149.948 41.1166 150.558 42.0853 150.843L42.4435 150.949V153.065C41.833 152.943 41.3608 152.52 41.1248 151.836L40.441 152.137C40.7015 152.951 41.4504 153.611 42.4435 153.757V154.498H43.0621V153.774C44.1529 153.692 44.8855 153.033 44.8855 152.097ZM42.3132 150.143C41.719 149.972 41.4015 149.614 41.4015 149.15C41.4015 148.629 41.8085 148.263 42.4435 148.206V150.184L42.3132 150.143ZM43.0621 153.098V151.136L43.2168 151.185C43.8191 151.364 44.1122 151.641 44.1122 152.154C44.1122 152.658 43.7052 153.025 43.0621 153.098ZM46.7888 153.684H47.5621V147.62H45.6492V148.287H46.7888V153.684ZM51.414 149.817C51.0233 149.817 50.6896 149.907 50.4128 150.102L50.6163 148.279H53.2211V147.611H50.0709L49.6965 150.933L50.2174 151.047C50.4209 150.705 50.8524 150.501 51.3489 150.501C52.1385 150.501 52.6839 151.03 52.6839 151.795C52.6839 152.569 52.1385 153.098 51.3489 153.098C50.6977 153.098 50.1116 152.723 49.8674 152.129L49.2732 152.439C49.5825 153.269 50.3802 153.782 51.3489 153.782C52.5862 153.782 53.4572 152.951 53.4572 151.779C53.4572 150.631 52.6106 149.817 51.414 149.817ZM56.9919 153.782C58.4327 153.782 59.3933 152.528 59.3933 150.648C59.3933 148.775 58.4327 147.522 56.9838 147.522C55.5511 147.522 54.5825 148.775 54.5825 150.648C54.5825 152.52 55.5593 153.782 56.9919 153.782ZM56.9919 153.065C56.007 153.065 55.3558 152.105 55.3558 150.648C55.3558 149.191 55.9988 148.238 56.9838 148.238C57.9769 148.238 58.6281 149.191 58.6281 150.648C58.6281 152.113 57.9769 153.065 56.9919 153.065ZM62.9411 149.874L64.9354 147.62H64.0238L61.4515 150.509V147.62H60.6782V153.684H61.4515V151.568L62.4283 150.469L64.3656 153.684H65.2611L62.9411 149.874Z" fill="#888B94"/>
<path d="M44.0749 182.298C44.0749 181.484 43.5783 180.971 42.5852 180.67L42.2515 180.572V178.447C42.7643 178.578 43.155 178.944 43.3504 179.506L44.026 179.188C43.79 178.496 43.1388 177.91 42.2515 177.764V176.925H41.6328V177.731C40.5583 177.788 39.8176 178.464 39.8176 179.4C39.8176 180.149 40.306 180.759 41.2747 181.044L41.6328 181.15V183.266C41.0223 183.144 40.5502 182.721 40.3141 182.037L39.6304 182.338C39.8908 183.152 40.6397 183.812 41.6328 183.958V184.699H42.2515V183.975C43.3423 183.893 44.0749 183.234 44.0749 182.298ZM41.5026 180.344C40.9084 180.173 40.5909 179.815 40.5909 179.351C40.5909 178.83 40.9979 178.464 41.6328 178.407V180.385L41.5026 180.344ZM42.2515 183.299V181.337L42.4062 181.386C43.0085 181.565 43.3016 181.842 43.3016 182.355C43.3016 182.859 42.8946 183.226 42.2515 183.299ZM45.9782 183.885H46.7515V177.821H44.8385V178.488H45.9782V183.885ZM51.0104 183.983C52.4512 183.983 53.4118 182.729 53.4118 180.849C53.4118 178.977 52.4512 177.723 51.0023 177.723C49.5696 177.723 48.6009 178.977 48.6009 180.849C48.6009 182.721 49.5777 183.983 51.0104 183.983ZM51.0104 183.266C50.0255 183.266 49.3742 182.306 49.3742 180.849C49.3742 179.392 50.0173 178.439 51.0023 178.439C51.9954 178.439 52.6466 179.392 52.6466 180.849C52.6466 182.314 51.9954 183.266 51.0104 183.266ZM56.9921 183.983C58.433 183.983 59.3935 182.729 59.3935 180.849C59.3935 178.977 58.433 177.723 56.984 177.723C55.5513 177.723 54.5827 178.977 54.5827 180.849C54.5827 182.721 55.5595 183.983 56.9921 183.983ZM56.9921 183.266C56.0072 183.266 55.356 182.306 55.356 180.849C55.356 179.392 55.9991 178.439 56.984 178.439C57.9771 178.439 58.6283 179.392 58.6283 180.849C58.6283 182.314 57.9771 183.266 56.9921 183.266ZM62.9413 180.075L64.9357 177.821H64.024L61.4517 180.71V177.821H60.6784V183.885H61.4517V181.769L62.4285 180.67L64.3658 183.885H65.2613L62.9413 180.075Z" fill="#888B94"/>
<path d="M48.3725 212.499C48.3725 211.685 47.8759 211.172 46.8828 210.871L46.5491 210.773V208.648C47.0619 208.779 47.4526 209.145 47.648 209.707L48.3236 209.389C48.0876 208.697 47.4364 208.111 46.5491 207.965V207.126H45.9304V207.932C44.8559 207.989 44.1152 208.665 44.1152 209.601C44.1152 210.35 44.6036 210.96 45.5723 211.245L45.9304 211.351V213.467C45.3199 213.345 44.8478 212.922 44.6117 212.238L43.928 212.539C44.1884 213.353 44.9373 214.013 45.9304 214.159V214.9H46.5491V214.175C47.6399 214.094 48.3725 213.435 48.3725 212.499ZM45.8002 210.545C45.206 210.374 44.8885 210.016 44.8885 209.552C44.8885 209.031 45.2955 208.665 45.9304 208.608V210.586L45.8002 210.545ZM46.5491 213.5V211.538L46.7037 211.587C47.3061 211.766 47.5992 212.043 47.5992 212.556C47.5992 213.06 47.1922 213.427 46.5491 213.5ZM51.4154 210.219C51.0246 210.219 50.6909 210.309 50.4141 210.504L50.6176 208.681H53.2225V208.013H50.0722L49.6978 211.335L50.2188 211.449C50.4223 211.107 50.8537 210.903 51.3502 210.903C52.1398 210.903 52.6852 211.432 52.6852 212.197C52.6852 212.971 52.1398 213.5 51.3502 213.5C50.699 213.5 50.1129 213.125 49.8687 212.531L49.2745 212.84C49.5838 213.671 50.3816 214.184 51.3502 214.184C52.5875 214.184 53.4585 213.353 53.4585 212.181C53.4585 211.033 52.612 210.219 51.4154 210.219ZM56.9933 214.184C58.4341 214.184 59.3946 212.93 59.3946 211.05C59.3946 209.177 58.4341 207.924 56.9851 207.924C55.5525 207.924 54.5838 209.177 54.5838 211.05C54.5838 212.922 55.5606 214.184 56.9933 214.184ZM56.9933 213.467C56.0083 213.467 55.3571 212.507 55.3571 211.05C55.3571 209.593 56.0002 208.64 56.9851 208.64C57.9782 208.64 58.6294 209.593 58.6294 211.05C58.6294 212.515 57.9782 213.467 56.9933 213.467ZM62.9424 210.276L64.9368 208.022H64.0251L61.4528 210.911V208.022H60.6795V214.086H61.4528V211.969L62.4296 210.871L64.367 214.086H65.2624L62.9424 210.276Z" fill="#888B94"/>
<path d="M49.3421 242.7C49.3421 241.886 48.8455 241.373 47.8524 241.072L47.5187 240.974V238.849C48.0315 238.98 48.4222 239.346 48.6176 239.908L49.2932 239.59C49.0572 238.898 48.406 238.312 47.5187 238.166V237.327H46.9V238.133C45.8255 238.19 45.0848 238.866 45.0848 239.802C45.0848 240.551 45.5732 241.161 46.5419 241.446L46.9 241.552V243.668C46.2895 243.546 45.8174 243.123 45.5813 242.439L44.8976 242.74C45.1581 243.554 45.9069 244.214 46.9 244.36V245.101H47.5187V244.377C48.6095 244.295 49.3421 243.636 49.3421 242.7ZM46.7698 240.746C46.1756 240.575 45.8581 240.217 45.8581 239.753C45.8581 239.232 46.2651 238.866 46.9 238.809V240.787L46.7698 240.746ZM47.5187 243.701V241.739L47.6734 241.788C48.2757 241.967 48.5688 242.244 48.5688 242.757C48.5688 243.261 48.1618 243.628 47.5187 243.701ZM50.3011 244.287H54.2735V243.62H51.3512L52.849 242.04C53.7281 241.121 54.127 240.502 54.127 239.826C54.127 238.825 53.3537 238.125 52.271 238.125C51.3023 238.125 50.529 238.646 50.2523 239.468L50.8628 239.777C51.0825 239.151 51.571 238.809 52.2547 238.809C52.9466 238.809 53.3537 239.191 53.3537 239.859C53.3537 240.478 52.9711 240.958 51.978 242.008L50.293 243.766L50.3011 244.287ZM57.3969 240.421C57.0062 240.421 56.6724 240.51 56.3956 240.705L56.5992 238.882H59.204V238.215H56.0538L55.6793 241.536L56.2003 241.65C56.4038 241.308 56.8352 241.104 57.3318 241.104C58.1214 241.104 58.6667 241.633 58.6667 242.399C58.6667 243.172 58.1214 243.701 57.3318 243.701C56.6806 243.701 56.0945 243.327 55.8503 242.732L55.256 243.042C55.5654 243.872 56.3631 244.385 57.3318 244.385C58.5691 244.385 59.4401 243.554 59.4401 242.382C59.4401 241.235 58.5935 240.421 57.3969 240.421ZM62.9422 240.478L64.9366 238.223H64.0249L61.4526 241.112V238.223H60.6793V244.287H61.4526V242.171L62.4294 241.072L64.3668 244.287H65.2622L62.9422 240.478Z" fill="#888B94"/>
<rect opacity="0.32" x="637.34" y="72.8323" width="92.2849" height="25.8593" rx="1.80892" fill="#E9EAF0"/>
<path d="M715.379 84.2957L717.853 86.7211L720.327 84.2957" stroke="#888B94" stroke-width="0.904461" stroke-miterlimit="10" stroke-linecap="round" stroke-linejoin="round"/>
<path d="M650.962 82.0132L648.972 85.1372L646.972 82.0132H645.928L648.504 86.0227V89.4253H649.45V86.0227L652.007 82.0132H650.962ZM656.404 86.56C656.404 85.2168 655.449 84.0329 653.946 84.0329C652.474 84.0329 651.379 85.187 651.379 86.7788C651.379 88.3707 652.504 89.5447 654.016 89.5447C655.1 89.5447 655.956 88.9577 656.284 88.2314L655.538 87.8334C655.26 88.3707 654.772 88.7687 654.026 88.7687C653.101 88.7687 652.315 88.0921 652.275 87.0475H656.364C656.394 86.8783 656.404 86.7092 656.404 86.56ZM652.295 86.3112C652.414 85.3561 653.121 84.789 653.946 84.789C654.722 84.789 655.449 85.4357 655.459 86.3112H652.295ZM659.253 84.0329C658.278 84.0329 657.422 84.59 657.124 85.3064L657.89 85.7043C658.119 85.187 658.616 84.8487 659.253 84.8487C659.949 84.8487 660.447 85.2467 660.447 85.8536V86.0028L658.616 86.4107C657.552 86.6495 656.925 87.1868 656.925 87.9628C656.925 88.888 657.681 89.5447 658.805 89.5447C659.482 89.5447 660.109 89.2164 660.467 88.6891V89.4253H661.302V85.8536C661.302 84.7791 660.457 84.0329 659.253 84.0329ZM658.855 88.7786C658.228 88.7786 657.83 88.4602 657.83 87.9628C657.83 87.535 658.218 87.2067 658.815 87.0773L660.447 86.6992V87.1569C660.447 88.0822 659.78 88.7786 658.855 88.7786ZM664.57 84.0926C663.934 84.0926 663.426 84.3214 663.148 84.8089V84.1523H662.322V89.4253H663.177V86.2814C663.177 85.4059 663.685 84.9084 664.441 84.9084H664.998V84.0926H664.57ZM666.126 85.2467H667.061V84.0727H666.126V85.2467ZM666.126 89.4253H667.061V88.2513H666.126V89.4253ZM670.055 89.4253H674.91V88.6095H671.339L673.169 86.6794C674.244 85.5551 674.731 84.799 674.731 83.9732C674.731 82.7495 673.786 81.8938 672.463 81.8938C671.279 81.8938 670.334 82.5306 669.995 83.5354L670.742 83.9135C671.01 83.1474 671.607 82.7296 672.443 82.7296C673.289 82.7296 673.786 83.1972 673.786 84.013C673.786 84.7691 673.318 85.3561 672.105 86.6396L670.045 88.7886L670.055 89.4253ZM678.927 89.5447C680.688 89.5447 681.862 88.0125 681.862 85.7143C681.862 83.426 680.688 81.8938 678.917 81.8938C677.166 81.8938 675.982 83.426 675.982 85.7143C675.982 88.0026 677.176 89.5447 678.927 89.5447ZM678.927 88.6692C677.723 88.6692 676.927 87.4952 676.927 85.7143C676.927 83.9334 677.713 82.7694 678.917 82.7694C680.131 82.7694 680.927 83.9334 680.927 85.7143C680.927 87.5051 680.131 88.6692 678.927 88.6692ZM682.895 89.4253H687.75V88.6095H684.178L686.009 86.6794C687.083 85.5551 687.571 84.799 687.571 83.9732C687.571 82.7495 686.626 81.8938 685.303 81.8938C684.119 81.8938 683.173 82.5306 682.835 83.5354L683.581 83.9135C683.85 83.1474 684.447 82.7296 685.283 82.7296C686.128 82.7296 686.626 83.1972 686.626 84.013C686.626 84.7691 686.158 85.3561 684.944 86.6396L682.885 88.7886L682.895 89.4253ZM694.137 86.9281H693.122V82.0132H692.236L688.486 86.9281V87.7041H692.256V89.4253H693.122V87.7041H694.137V86.9281ZM689.451 86.9281L692.256 83.2171V86.9281H689.451Z" fill="#4B5166"/>
<path d="M44.3473 91.672C46.348 91.672 47.7028 90.5703 47.7028 88.9369C47.7028 87.6706 46.9051 86.8349 45.3476 86.3537L43.5622 85.8093C42.8025 85.5813 42.3973 85.1508 42.3973 84.5683C42.3973 83.8466 43.0557 83.3401 44.0434 83.3401C45.1197 83.3401 45.9301 83.9099 46.272 84.9102L47.6522 84.2771C47.171 82.9475 45.8161 81.9345 44.0307 81.9345C42.106 81.9345 40.7891 83.0362 40.7891 84.6443C40.7891 85.8599 41.5489 86.7969 43.1064 87.2654L44.9551 87.8352C45.7022 88.0632 46.0947 88.4051 46.0947 89.0508C46.0947 89.7473 45.4109 90.2664 44.3473 90.2664C43.271 90.2664 42.296 89.6207 41.8528 88.443L40.4852 89.0635C40.9664 90.583 42.4859 91.672 44.3473 91.672ZM51.915 84.543C50.5601 84.543 49.4205 85.2648 49.0279 86.3031L50.3448 86.9615C50.5981 86.3158 51.1806 85.9106 51.915 85.9106C52.6747 85.9106 53.1939 86.3284 53.1939 86.9615V87.1768L50.9526 87.658C49.5724 87.9619 48.7747 88.633 48.7747 89.646C48.7747 90.8109 49.737 91.672 51.2565 91.672C52.0796 91.672 52.776 91.3681 53.2825 90.7603V91.52H54.7134V86.9615C54.7134 85.5433 53.5738 84.543 51.915 84.543ZM51.4338 90.469C50.7754 90.469 50.3575 90.1525 50.3575 89.6333C50.3575 89.2155 50.6867 88.8862 51.2565 88.7596L53.1939 88.3291V88.7723C53.1939 89.7346 52.4468 90.469 51.4338 90.469ZM56.1842 91.52H57.7037V82.0865H56.1842V91.52ZM65.7108 87.8606C65.7108 86.0498 64.3433 84.543 62.4186 84.543C60.4939 84.543 59.0377 86.0498 59.0377 88.1012C59.0377 90.1018 60.4686 91.672 62.5325 91.672C63.9254 91.672 65.0397 90.9629 65.4576 89.9879L64.204 89.3801C63.9001 89.9372 63.3556 90.3297 62.5452 90.3297C61.4942 90.3297 60.6965 89.6333 60.6205 88.5443H65.6348C65.6855 88.3417 65.7108 88.1012 65.7108 87.8606ZM60.6458 87.3667C60.8231 86.3664 61.5322 85.8093 62.4186 85.8093C63.2923 85.8093 64.0267 86.455 64.0774 87.3667H60.6458ZM69.5126 91.672C71.0701 91.672 72.1464 90.8362 72.1464 89.608C72.1464 88.6583 71.5133 87.9745 70.3357 87.6453L69.1201 87.3034C68.7276 87.1895 68.297 86.9742 68.297 86.5437C68.297 86.1132 68.6896 85.8219 69.3227 85.8219C70.0951 85.8219 70.7029 86.2145 70.9561 86.8602L72.1464 86.3031C71.7286 85.2141 70.6649 84.543 69.3227 84.543C67.8159 84.543 66.7902 85.3787 66.7902 86.607C66.7902 87.5313 67.3853 88.2278 68.5756 88.557L69.7405 88.8609C70.1584 88.9749 70.6396 89.1775 70.6396 89.646C70.6396 90.1145 70.1964 90.431 69.5126 90.431C68.7022 90.431 68.0311 90.0005 67.6766 89.1901L66.499 89.7599C66.9295 90.9502 68.0944 91.672 69.5126 91.672ZM79.1984 84.619C78.3627 84.619 77.7042 84.8976 77.3497 85.6446V84.695H75.9188V91.52H77.4383V87.658C77.4383 86.5943 78.0714 85.9865 79.0085 85.9865H79.8315V84.619H79.1984ZM87.325 87.8606C87.325 86.0498 85.9575 84.543 84.0328 84.543C82.1081 84.543 80.6519 86.0498 80.6519 88.1012C80.6519 90.1018 82.0828 91.672 84.1468 91.672C85.5396 91.672 86.6539 90.9629 87.0718 89.9879L85.8182 89.3801C85.5143 89.9372 84.9698 90.3297 84.1594 90.3297C83.1084 90.3297 82.3107 89.6333 82.2347 88.5443H87.2491C87.2997 88.3417 87.325 88.1012 87.325 87.8606ZM82.26 87.3667C82.4373 86.3664 83.1464 85.8093 84.0328 85.8093C84.9065 85.8093 85.6409 86.455 85.6916 87.3667H82.26ZM92.2285 84.543C91.2661 84.543 90.4431 84.9229 89.9745 85.556V84.695H88.5437V94.0525H90.0632V90.8236C90.5444 91.3554 91.3168 91.672 92.2158 91.672C94.1658 91.672 95.6853 90.1272 95.6853 88.1012C95.6853 86.0752 94.1532 84.543 92.2285 84.543ZM92.0765 90.2664C90.8989 90.2664 90.0632 89.3674 90.0632 88.1138C90.0632 86.8476 90.8989 85.9485 92.0765 85.9485C93.2415 85.9485 94.1025 86.8602 94.1025 88.1138C94.1025 89.3547 93.2415 90.2664 92.0765 90.2664ZM100.224 91.672C102.212 91.672 103.807 90.1651 103.807 88.1012C103.807 86.0372 102.224 84.543 100.224 84.543C98.2104 84.543 96.6402 86.0372 96.6402 88.1012C96.6402 90.1651 98.223 91.672 100.224 91.672ZM100.224 90.2664C99.0588 90.2664 98.223 89.3674 98.223 88.1138C98.223 86.8602 99.0588 85.9485 100.224 85.9485C101.376 85.9485 102.224 86.8602 102.224 88.1138C102.224 89.3674 101.376 90.2664 100.224 90.2664ZM108.417 84.619C107.582 84.619 106.923 84.8976 106.569 85.6446V84.695H105.138V91.52H106.657V87.658C106.657 86.5943 107.291 85.9865 108.228 85.9865H109.051V84.619H108.417ZM113.489 91.596C113.729 91.596 114.033 91.5707 114.274 91.5327V90.3171C114.109 90.3424 113.944 90.3551 113.818 90.3551C112.855 90.3551 112.615 89.8106 112.615 89.2281V86.0625H114.236V84.695H112.615V82.5803H111.095V83.6693C111.095 84.3277 110.716 84.695 110.057 84.695H109.854V86.0625H111.095V89.2281C111.095 90.7349 111.956 91.596 113.489 91.596Z" fill="#14192B"/>
<line x1="729.625" y1="271.919" x2="76.2495" y2="271.919" stroke="#E9EAF0" stroke-width="0.904461"/>
<path d="M113.575 288.513H113.876C114.926 288.513 115.594 287.846 115.594 286.788V282.449H114.82V286.796C114.82 287.39 114.454 287.765 113.876 287.765H113.575V288.513ZM118.57 284.101C117.772 284.101 117.072 284.557 116.828 285.143L117.455 285.469C117.642 285.046 118.049 284.769 118.57 284.769C119.14 284.769 119.547 285.095 119.547 285.591V285.713L118.049 286.047C117.178 286.242 116.665 286.682 116.665 287.317C116.665 288.074 117.284 288.611 118.203 288.611C118.757 288.611 119.27 288.342 119.563 287.911V288.513H120.247V285.591C120.247 284.712 119.555 284.101 118.57 284.101ZM118.244 287.984C117.731 287.984 117.406 287.724 117.406 287.317C117.406 286.967 117.723 286.698 118.212 286.592L119.547 286.283V286.657C119.547 287.415 119.001 287.984 118.244 287.984ZM123.254 284.101C122.725 284.101 122.261 284.321 122.009 284.696V284.199H121.325V288.513H122.025V285.9C122.025 285.225 122.456 284.777 123.099 284.777C123.751 284.777 124.166 285.217 124.166 285.9V288.513H124.866V285.673C124.866 284.769 124.19 284.101 123.254 284.101Z" fill="#888B94"/>
<line opacity="0.7" x1="119.794" y1="115.483" x2="119.794" y2="271.467" stroke="#E9EAF0" stroke-width="0.904461"/>
<path d="M165.272 288.513H166.045V285.843H169.016V285.168H166.045V283.125H169.228V282.449H165.272V288.513ZM174.005 286.169C174.005 285.07 173.224 284.101 171.994 284.101C170.79 284.101 169.894 285.046 169.894 286.348C169.894 287.651 170.814 288.611 172.051 288.611C172.939 288.611 173.639 288.131 173.907 287.537L173.297 287.211C173.069 287.651 172.67 287.976 172.06 287.976C171.303 287.976 170.66 287.423 170.627 286.568H173.973C173.997 286.43 174.005 286.291 174.005 286.169ZM170.643 285.966C170.741 285.184 171.319 284.72 171.994 284.72C172.629 284.72 173.224 285.249 173.232 285.966H170.643ZM177.158 284.101C176.499 284.101 175.921 284.378 175.62 284.834V282.449H174.92V288.513H175.604V287.887C175.921 288.351 176.507 288.611 177.15 288.611C178.371 288.611 179.332 287.659 179.332 286.356C179.332 285.054 178.371 284.101 177.158 284.101ZM177.11 287.935C176.255 287.935 175.62 287.268 175.62 286.356C175.62 285.453 176.255 284.777 177.11 284.777C177.956 284.777 178.591 285.453 178.591 286.356C178.591 287.268 177.956 287.935 177.11 287.935Z" fill="#888B94"/>
<line opacity="0.7" x1="172.589" y1="115.483" x2="172.589" y2="271.467" stroke="#E9EAF0" stroke-width="0.904461"/>
<path d="M224.165 282.449L222.082 285.42L219.998 282.449H219.298V288.513H220.071V283.865L222.049 286.706H222.114L224.092 283.898V288.513H224.865V282.449H224.165ZM227.844 284.101C227.046 284.101 226.346 284.557 226.102 285.143L226.729 285.469C226.916 285.046 227.323 284.769 227.844 284.769C228.414 284.769 228.821 285.095 228.821 285.591V285.713L227.323 286.047C226.452 286.242 225.939 286.682 225.939 287.317C225.939 288.074 226.558 288.611 227.478 288.611C228.031 288.611 228.544 288.342 228.837 287.911V288.513H229.521V285.591C229.521 284.712 228.829 284.101 227.844 284.101ZM227.519 287.984C227.006 287.984 226.68 287.724 226.68 287.317C226.68 286.967 226.998 286.698 227.486 286.592L228.821 286.283V286.657C228.821 287.415 228.276 287.984 227.519 287.984ZM232.439 284.15C231.918 284.15 231.503 284.338 231.275 284.736V284.199H230.599V288.513H231.299V285.941C231.299 285.225 231.715 284.818 232.333 284.818H232.789V284.15H232.439Z" fill="#888B94"/>
<line opacity="0.7" x1="226.296" y1="115.483" x2="226.296" y2="271.467" stroke="#E9EAF0" stroke-width="0.904461"/>
<path d="M275.282 282.449H274.395L272.197 288.513H273.011L273.516 287.064H276.161L276.666 288.513H277.48L275.282 282.449ZM273.752 286.389L274.843 283.287L275.925 286.389H273.752ZM280.585 284.101C279.917 284.101 279.331 284.386 279.038 284.859V284.199H278.354V290.141H279.055V287.919C279.372 288.351 279.934 288.611 280.569 288.611C281.798 288.611 282.766 287.659 282.766 286.348C282.766 285.038 281.798 284.101 280.585 284.101ZM280.544 287.935C279.681 287.935 279.055 287.268 279.055 286.356C279.055 285.445 279.689 284.777 280.544 284.777C281.391 284.777 282.026 285.445 282.026 286.356C282.026 287.268 281.399 287.935 280.544 287.935ZM285.596 284.15C285.075 284.15 284.659 284.338 284.432 284.736V284.199H283.756V288.513H284.456V285.941C284.456 285.225 284.871 284.818 285.49 284.818H285.946V284.15H285.596Z" fill="#888B94"/>
<line opacity="0.7" x1="279.546" y1="115.483" x2="279.546" y2="271.467" stroke="#E9EAF0" stroke-width="0.904461"/>
<path d="M330.781 282.449L328.697 285.42L326.613 282.449H325.913V288.513H326.686V283.865L328.664 286.706H328.73L330.708 283.898V288.513H331.481V282.449H330.781ZM334.46 284.101C333.662 284.101 332.962 284.557 332.718 285.143L333.344 285.469C333.532 285.046 333.939 284.769 334.46 284.769C335.029 284.769 335.437 285.095 335.437 285.591V285.713L333.939 286.047C333.068 286.242 332.555 286.682 332.555 287.317C332.555 288.074 333.174 288.611 334.093 288.611C334.647 288.611 335.16 288.342 335.453 287.911V288.513H336.137V285.591C336.137 284.712 335.445 284.101 334.46 284.101ZM334.134 287.984C333.621 287.984 333.296 287.724 333.296 287.317C333.296 286.967 333.613 286.698 334.102 286.592L335.437 286.283V286.657C335.437 287.415 334.891 287.984 334.134 287.984ZM340.259 284.191L338.932 287.528L337.606 284.191H336.808L338.534 288.473L338.346 288.92C338.216 289.222 338.053 289.612 337.418 289.612C337.247 289.612 337.052 289.588 336.971 289.564V290.19C337.133 290.255 337.345 290.28 337.54 290.28C338.55 290.28 338.859 289.596 339.079 289.051L341.073 284.191H340.259Z" fill="#888B94"/>
<line opacity="0.7" x1="333.7" y1="115.483" x2="333.7" y2="271.467" stroke="#E9EAF0" stroke-width="0.904461"/>
<path d="M382.403 288.513H382.704C383.754 288.513 384.422 287.846 384.422 286.788V282.449H383.648V286.796C383.648 287.39 383.282 287.765 382.704 287.765H382.403V288.513ZM388.497 284.199V286.812C388.497 287.488 388.065 287.935 387.43 287.935C386.779 287.935 386.356 287.496 386.356 286.812V284.199H385.656V286.942C385.656 287.862 386.34 288.611 387.276 288.611C387.797 288.611 388.261 288.391 388.513 288.017V288.513H389.197V284.199H388.497ZM392.36 284.101C391.831 284.101 391.367 284.321 391.115 284.696V284.199H390.431V288.513H391.131V285.9C391.131 285.225 391.563 284.777 392.206 284.777C392.857 284.777 393.272 285.217 393.272 285.9V288.513H393.972V285.673C393.972 284.769 393.296 284.101 392.36 284.101Z" fill="#888B94"/>
<line opacity="0.7" x1="388.761" y1="115.483" x2="388.761" y2="271.467" stroke="#E9EAF0" stroke-width="0.904461"/>
<path d="M438.841 288.513H439.142C440.192 288.513 440.859 287.846 440.859 286.788V282.449H440.086V286.796C440.086 287.39 439.72 287.765 439.142 287.765H438.841V288.513ZM444.934 284.199V286.812C444.934 287.488 444.503 287.935 443.868 287.935C443.217 287.935 442.794 287.496 442.794 286.812V284.199H442.094V286.942C442.094 287.862 442.777 288.611 443.713 288.611C444.234 288.611 444.698 288.391 444.951 288.017V288.513H445.635V284.199H444.934ZM446.869 288.513H447.569V282.449H446.869V288.513Z" fill="#888B94"/>
<line opacity="0.7" x1="443.819" y1="115.483" x2="443.819" y2="271.467" stroke="#E9EAF0" stroke-width="0.904461"/>
<path d="M493.935 282.449H493.048L490.85 288.513H491.664L492.168 287.064H494.814L495.319 288.513H496.133L493.935 282.449ZM492.405 286.389L493.495 283.287L494.578 286.389H492.405ZM499.687 284.199V286.812C499.687 287.488 499.256 287.935 498.621 287.935C497.969 287.935 497.546 287.496 497.546 286.812V284.199H496.846V286.942C496.846 287.862 497.53 288.611 498.466 288.611C498.987 288.611 499.451 288.391 499.703 288.017V288.513H500.387V284.199H499.687ZM504.951 284.199V284.793C504.65 284.362 504.12 284.101 503.486 284.101C502.313 284.101 501.377 284.989 501.377 286.193C501.377 287.382 502.322 288.294 503.494 288.294C504.096 288.294 504.617 288.066 504.934 287.667V288.334C504.934 289.156 504.291 289.629 503.534 289.629C502.867 289.629 502.444 289.262 502.273 288.847L501.654 289.181C501.931 289.832 502.639 290.304 503.551 290.304C504.747 290.304 505.635 289.474 505.635 288.334V284.199H504.951ZM503.526 287.618C502.696 287.618 502.118 287.032 502.118 286.193C502.118 285.339 502.729 284.777 503.518 284.777C504.34 284.777 504.934 285.371 504.934 286.193C504.934 287.008 504.365 287.618 503.526 287.618Z" fill="#888B94"/>
<line opacity="0.7" x1="498.88" y1="115.483" x2="498.88" y2="271.467" stroke="#E9EAF0" stroke-width="0.904461"/>
<path d="M548.554 288.611C549.767 288.611 550.597 287.927 550.597 286.926C550.597 286.112 550.101 285.599 549.107 285.298L548.025 284.972C547.431 284.802 547.113 284.443 547.113 283.979C547.113 283.41 547.593 283.027 548.326 283.027C549.067 283.027 549.62 283.418 549.873 284.134L550.548 283.817C550.272 283.011 549.433 282.351 548.318 282.351C547.154 282.351 546.34 283.043 546.34 284.028C546.34 284.777 546.828 285.388 547.797 285.673L548.928 286.014C549.531 286.193 549.824 286.47 549.824 286.983C549.824 287.545 549.319 287.935 548.554 287.935C547.748 287.935 547.121 287.496 546.836 286.666L546.153 286.967C546.446 287.887 547.365 288.611 548.554 288.611ZM555.537 286.169C555.537 285.07 554.755 284.101 553.526 284.101C552.321 284.101 551.426 285.046 551.426 286.348C551.426 287.651 552.346 288.611 553.583 288.611C554.47 288.611 555.17 288.131 555.439 287.537L554.828 287.211C554.601 287.651 554.202 287.976 553.591 287.976C552.834 287.976 552.191 287.423 552.158 286.568H555.504C555.529 286.43 555.537 286.291 555.537 286.169ZM552.175 285.966C552.272 285.184 552.85 284.72 553.526 284.72C554.161 284.72 554.755 285.249 554.763 285.966H552.175ZM558.682 284.101C558.014 284.101 557.428 284.386 557.135 284.859V284.199H556.451V290.141H557.152V287.919C557.469 288.351 558.031 288.611 558.666 288.611C559.895 288.611 560.863 287.659 560.863 286.348C560.863 285.038 559.895 284.101 558.682 284.101ZM558.641 287.935C557.778 287.935 557.152 287.268 557.152 286.356C557.152 285.445 557.786 284.777 558.641 284.777C559.488 284.777 560.123 285.445 560.123 286.356C560.123 287.268 559.496 287.935 558.641 287.935Z" fill="#888B94"/>
<line opacity="0.7" x1="553.939" y1="115.483" x2="553.939" y2="271.467" stroke="#E9EAF0" stroke-width="0.904461"/>
<path d="M604.596 288.611C606.314 288.611 607.673 287.292 607.673 285.477C607.673 283.67 606.314 282.351 604.596 282.351C602.887 282.351 601.527 283.662 601.527 285.477C601.527 287.301 602.887 288.611 604.596 288.611ZM604.596 287.895C603.261 287.895 602.3 286.828 602.3 285.477C602.3 284.142 603.253 283.068 604.596 283.068C605.947 283.068 606.9 284.142 606.9 285.477C606.9 286.828 605.939 287.895 604.596 287.895ZM610.704 288.611C611.543 288.611 612.267 288.106 612.536 287.471L611.909 287.146C611.698 287.618 611.266 287.935 610.704 287.935C609.89 287.935 609.288 287.252 609.288 286.356C609.288 285.445 609.89 284.777 610.704 284.777C611.266 284.777 611.698 285.095 611.909 285.567L612.536 285.241C612.267 284.598 611.551 284.101 610.704 284.101C609.467 284.101 608.547 285.054 608.547 286.348C608.547 287.642 609.467 288.611 610.704 288.611ZM615.253 288.562C615.375 288.562 615.546 288.554 615.684 288.522V287.952C615.595 287.968 615.473 287.976 615.383 287.976C614.642 287.976 614.593 287.471 614.593 287.195V284.867H615.635V284.199H614.593V282.799H613.893V283.564C613.893 283.947 613.649 284.199 613.275 284.199H613.055V284.867H613.893V287.195C613.893 288.066 614.382 288.562 615.253 288.562Z" fill="#888B94"/>
<line opacity="0.7" x1="608.997" y1="115.483" x2="608.997" y2="271.467" stroke="#E9EAF0" stroke-width="0.904461"/>
<path d="M660.33 282.449V287.032L657.114 282.449H656.463V288.513H657.237V283.898L660.452 288.513H661.103V282.449H660.33ZM664.397 288.611C665.643 288.611 666.62 287.659 666.62 286.348C666.62 285.038 665.651 284.101 664.397 284.101C663.144 284.101 662.175 285.038 662.175 286.348C662.175 287.659 663.152 288.611 664.397 288.611ZM664.397 287.935C663.559 287.935 662.916 287.26 662.916 286.356C662.916 285.453 663.559 284.777 664.397 284.777C665.236 284.777 665.879 285.453 665.879 286.356C665.879 287.26 665.236 287.935 664.397 287.935ZM670.449 284.199L669.179 287.553L667.909 284.199H667.127L668.853 288.513H669.496L671.23 284.199H670.449Z" fill="#888B94"/>
<line opacity="0.7" x1="664.058" y1="115.483" x2="664.058" y2="271.467" stroke="#E9EAF0" stroke-width="0.904461"/>
<path d="M711.54 288.513H713.534C715.366 288.513 716.554 287.301 716.554 285.477C716.554 283.646 715.366 282.449 713.534 282.449H711.54V288.513ZM712.313 287.838V283.125H713.534C714.877 283.125 715.756 284.053 715.756 285.477C715.756 286.902 714.885 287.838 713.534 287.838H712.313ZM721.537 286.169C721.537 285.07 720.756 284.101 719.527 284.101C718.322 284.101 717.426 285.046 717.426 286.348C717.426 287.651 718.346 288.611 719.584 288.611C720.471 288.611 721.171 288.131 721.439 287.537L720.829 287.211C720.601 287.651 720.202 287.976 719.592 287.976C718.835 287.976 718.192 287.423 718.159 286.568H721.505C721.529 286.43 721.537 286.291 721.537 286.169ZM718.175 285.966C718.273 285.184 718.851 284.72 719.527 284.72C720.161 284.72 720.756 285.249 720.764 285.966H718.175ZM724.365 288.611C725.203 288.611 725.928 288.106 726.196 287.471L725.57 287.146C725.358 287.618 724.927 287.935 724.365 287.935C723.551 287.935 722.949 287.252 722.949 286.356C722.949 285.445 723.551 284.777 724.365 284.777C724.927 284.777 725.358 285.095 725.57 285.567L726.196 285.241C725.928 284.598 725.211 284.101 724.365 284.101C723.128 284.101 722.208 285.054 722.208 286.348C722.208 287.642 723.128 288.611 724.365 288.611Z" fill="#888B94"/>
<line opacity="0.7" x1="719.116" y1="115.483" x2="719.116" y2="271.467" stroke="#E9EAF0" stroke-width="0.904461"/>
<line x1="76.7022" y1="115.483" x2="76.7022" y2="271.467" stroke="#E9EAF0" stroke-width="0.904461"/>
<path d="M76.2471 210.176L162.918 232.9L244.716 246.245L316.33 210.139L396.914 183.638L506.832 213.891L576.567 169.197L718.664 202.931" stroke="#7F42FF" stroke-width="1.80892"/>
<path d="M78.5635 155.641L148.953 241.334L203.833 195.665L249.755 183.247L310.816 238.437L363.802 165.771L439.433 221.706L486.933 238.437L553.419 161.865L593.411 214.525L661.537 172.209L711.004 214.525" stroke="#FC5656" stroke-width="1.80955"/>
<path d="M78.2949 238.757L162.921 186.051L227.472 219.592L310.936 186.051L401.012 197.309L514.626 176.723L564.379 139.457L711.095 125.725" stroke="#0144E4" stroke-width="1.80892"/>
<ellipse cx="71.2839" cy="27.0259" rx="6.75067" ry="6.75648" fill="#5FCF65"/>
<ellipse cx="49.1003" cy="27.0259" rx="6.75067" ry="6.75648" fill="#F8CE52"/>
<ellipse cx="26.9196" cy="27.0259" rx="6.75067" ry="6.75648" fill="#F96057"/>
<rect x="20.7565" y="330.237" width="355.574" height="160.048" rx="6.46268" fill="white" stroke="#E9EAF0" stroke-width="1.17503"/>
<path d="M251.486 377.432H252.515V376.033H251.486V377.432ZM251.486 384.941H252.515V378.604H251.486V384.941ZM258.806 385.084C261.329 385.084 263.326 383.147 263.326 380.481C263.326 377.826 261.329 375.889 258.806 375.889C256.295 375.889 254.298 377.814 254.298 380.481C254.298 383.159 256.295 385.084 258.806 385.084ZM258.806 384.032C256.845 384.032 255.434 382.466 255.434 380.481C255.434 378.52 256.833 376.942 258.806 376.942C260.791 376.942 262.19 378.52 262.19 380.481C262.19 382.466 260.779 384.032 258.806 384.032ZM268.436 385.084C270.218 385.084 271.437 384.08 271.437 382.609C271.437 381.414 270.708 380.66 269.249 380.218L267.659 379.74C266.786 379.488 266.32 378.962 266.32 378.281C266.32 377.444 267.025 376.882 268.101 376.882C269.189 376.882 270.003 377.456 270.373 378.508L271.366 378.042C270.959 376.858 269.728 375.889 268.089 375.889C266.38 375.889 265.184 376.906 265.184 378.353C265.184 379.453 265.901 380.349 267.324 380.768L268.986 381.27C269.871 381.533 270.301 381.94 270.301 382.693C270.301 383.518 269.56 384.092 268.436 384.092C267.252 384.092 266.332 383.446 265.913 382.227L264.909 382.669C265.339 384.02 266.69 385.084 268.436 385.084Z" fill="#888B94"/>
<ellipse cx="241.418" cy="380.866" rx="4.09577" ry="4.0993" fill="#0144E4"/>
<path d="M255.576 406.34H254.272L251.044 415.248H252.24L252.981 413.12H256.867L257.608 415.248H258.804L255.576 406.34ZM253.328 412.128L254.93 407.572L256.52 412.128H253.328ZM262.683 408.768C261.906 408.768 261.224 409.09 260.854 409.641V408.911H259.849V415.248H260.877V411.41C260.877 410.418 261.511 409.76 262.456 409.76C263.412 409.76 264.022 410.406 264.022 411.41V415.248H265.05V411.075C265.05 409.748 264.058 408.768 262.683 408.768ZM271.599 406.34V409.844C271.144 409.174 270.295 408.768 269.339 408.768C267.557 408.768 266.146 410.167 266.146 412.08C266.146 413.993 267.545 415.392 269.351 415.392C270.307 415.392 271.156 415.009 271.622 414.328V415.248H272.627V406.34H271.599ZM269.41 414.399C268.155 414.399 267.234 413.419 267.234 412.08C267.234 410.753 268.155 409.76 269.41 409.76C270.666 409.76 271.599 410.753 271.599 412.08C271.599 413.419 270.666 414.399 269.41 414.399ZM276.902 408.839C276.137 408.839 275.527 409.114 275.192 409.7V408.911H274.2V415.248H275.228V411.47C275.228 410.418 275.838 409.82 276.747 409.82H277.416V408.839H276.902ZM281.426 415.392C283.255 415.392 284.69 413.993 284.69 412.068C284.69 410.143 283.267 408.768 281.426 408.768C279.584 408.768 278.161 410.143 278.161 412.068C278.161 413.993 279.596 415.392 281.426 415.392ZM281.426 414.399C280.194 414.399 279.25 413.407 279.25 412.08C279.25 410.753 280.194 409.76 281.426 409.76C282.657 409.76 283.602 410.753 283.602 412.08C283.602 413.407 282.657 414.399 281.426 414.399ZM285.816 407.739H286.844V406.34H285.816V407.739ZM285.816 415.248H286.844V408.911H285.816V415.248ZM293.422 406.34V409.844C292.968 409.174 292.119 408.768 291.162 408.768C289.381 408.768 287.97 410.167 287.97 412.08C287.97 413.993 289.369 415.392 291.174 415.392C292.131 415.392 292.98 415.009 293.446 414.328V415.248H294.45V406.34H293.422ZM291.234 414.399C289.979 414.399 289.058 413.419 289.058 412.08C289.058 410.753 289.979 409.76 291.234 409.76C292.49 409.76 293.422 410.753 293.422 412.08C293.422 413.419 292.49 414.399 291.234 414.399Z" fill="#888B94"/>
<ellipse cx="241.418" cy="411.614" rx="4.09579" ry="4.09931" fill="#65CC32"/>
<path d="M256.67 444.756C259.193 444.756 261.19 442.819 261.19 440.153C261.19 437.498 259.193 435.561 256.67 435.561C254.159 435.561 252.163 437.486 252.163 440.153C252.163 442.831 254.159 444.756 256.67 444.756ZM256.67 443.704C254.709 443.704 253.298 442.137 253.298 440.153C253.298 438.192 254.697 436.613 256.67 436.613C258.655 436.613 260.054 438.192 260.054 440.153C260.054 442.137 258.643 443.704 256.67 443.704ZM265.248 444.684C265.428 444.684 265.679 444.672 265.882 444.625V443.788C265.751 443.811 265.571 443.823 265.44 443.823C264.352 443.823 264.28 443.082 264.28 442.676V439.256H265.81V438.275H264.28V436.219H263.252V437.343C263.252 437.905 262.893 438.275 262.343 438.275H262.02V439.256H263.252V442.676C263.252 443.955 263.969 444.684 265.248 444.684ZM269.935 438.132C269.17 438.132 268.512 438.443 268.129 438.969V435.705H267.101V444.613H268.129V440.774C268.129 439.782 268.763 439.124 269.708 439.124C270.664 439.124 271.274 439.782 271.274 440.774V444.613H272.302V440.452C272.302 439.112 271.31 438.132 269.935 438.132ZM279.436 441.169C279.436 439.555 278.289 438.132 276.483 438.132C274.713 438.132 273.398 439.519 273.398 441.432C273.398 443.345 274.749 444.756 276.567 444.756C277.87 444.756 278.898 444.051 279.293 443.178L278.396 442.699C278.061 443.345 277.475 443.823 276.579 443.823C275.467 443.823 274.522 443.01 274.474 441.755H279.389C279.424 441.552 279.436 441.348 279.436 441.169ZM274.498 440.87C274.642 439.722 275.491 439.041 276.483 439.041C277.416 439.041 278.289 439.818 278.3 440.87H274.498ZM283.243 438.204C282.478 438.204 281.868 438.479 281.533 439.065V438.275H280.541V444.613H281.569V440.834C281.569 439.782 282.179 439.184 283.088 439.184H283.757V438.204H283.243Z" fill="#888B94"/>
<ellipse cx="241.417" cy="440.097" rx="4.09507" ry="4.09859" fill="#FF9428"/>
<path d="M113.073 432.699H115.784C118.273 432.699 119.888 431.05 119.888 428.572C119.888 426.083 118.273 424.456 115.784 424.456H113.073V432.699ZM114.124 431.78V425.375H115.784C117.609 425.375 118.804 426.636 118.804 428.572C118.804 430.508 117.62 431.78 115.784 431.78H114.124ZM126.44 429.512C126.44 428.019 125.378 426.702 123.707 426.702C122.07 426.702 120.853 427.986 120.853 429.756C120.853 431.526 122.103 432.831 123.785 432.831C124.99 432.831 125.942 432.179 126.307 431.371L125.477 430.928C125.167 431.526 124.625 431.968 123.796 431.968C122.767 431.968 121.893 431.216 121.848 430.054H126.395C126.429 429.866 126.44 429.678 126.44 429.512ZM121.871 429.236C122.003 428.174 122.789 427.543 123.707 427.543C124.57 427.543 125.378 428.262 125.389 429.236H121.871ZM131.314 426.835L129.588 431.393L127.863 426.835H126.801L129.146 432.699H130.02L132.376 426.835H131.314ZM133.197 425.751H134.148V424.456H133.197V425.751ZM133.197 432.699H134.148V426.835H133.197V432.699ZM138.121 432.831C139.261 432.831 140.246 432.145 140.611 431.283L139.759 430.84C139.471 431.482 138.885 431.913 138.121 431.913C137.015 431.913 136.196 430.984 136.196 429.767C136.196 428.528 137.015 427.621 138.121 427.621C138.885 427.621 139.471 428.052 139.759 428.694L140.611 428.251C140.246 427.377 139.272 426.702 138.121 426.702C136.44 426.702 135.19 427.997 135.19 429.756C135.19 431.515 136.44 432.831 138.121 432.831ZM146.881 429.512C146.881 428.019 145.819 426.702 144.148 426.702C142.511 426.702 141.294 427.986 141.294 429.756C141.294 431.526 142.544 432.831 144.226 432.831C145.432 432.831 146.383 432.179 146.748 431.371L145.918 430.928C145.609 431.526 145.066 431.968 144.237 431.968C143.208 431.968 142.334 431.216 142.29 430.054H146.837C146.87 429.866 146.881 429.678 146.881 429.512ZM142.312 429.236C142.444 428.174 143.23 427.543 144.148 427.543C145.011 427.543 145.819 428.262 145.83 429.236H142.312ZM149.95 432.831C151.211 432.831 152.085 432.134 152.085 431.117C152.085 430.331 151.554 429.756 150.569 429.468L149.573 429.169C149.064 429.015 148.733 428.749 148.733 428.351C148.733 427.886 149.153 427.576 149.784 427.576C150.481 427.576 151.034 427.941 151.277 428.572L152.074 428.185C151.731 427.267 150.868 426.702 149.784 426.702C148.567 426.702 147.748 427.388 147.748 428.406C147.748 429.203 148.257 429.767 149.242 430.043L150.204 430.309C150.746 430.464 151.1 430.696 151.1 431.117C151.1 431.603 150.635 431.957 149.95 431.957C149.219 431.957 148.589 431.57 148.29 430.829L147.482 431.227C147.859 432.223 148.799 432.831 149.95 432.831Z" fill="#888B94"/>
<path d="M109.817 400.117C108.658 400.117 107.709 400.381 106.945 400.881L107.63 396.032L115.695 396.058V393.238H105.311L103.756 404.097L106.26 404.703C106.787 403.596 107.92 402.99 109.29 402.99C111.478 402.99 112.954 404.439 112.954 406.574C112.954 408.735 111.451 410.184 109.317 410.184C107.472 410.184 105.838 409.104 105.179 407.417L102.544 408.867C103.519 411.502 106.154 413.189 109.317 413.189C113.349 413.189 116.301 410.343 116.301 406.416C116.301 402.726 113.613 400.117 109.817 400.117ZM130.414 402.357C131.785 401.487 132.628 399.932 132.628 398.219C132.628 395.136 129.993 392.922 126.382 392.922C122.771 392.922 120.136 395.162 120.136 398.219C120.136 399.932 120.979 401.514 122.376 402.357C120.426 403.332 119.345 405.019 119.345 407.101C119.345 410.606 122.323 413.189 126.382 413.189C130.441 413.189 133.471 410.606 133.471 407.101C133.471 405.019 132.364 403.359 130.414 402.357ZM126.382 395.742C128.042 395.742 129.228 396.849 129.228 398.43C129.228 399.985 128.042 401.066 126.382 401.066C124.695 401.066 123.536 399.985 123.536 398.43C123.536 396.849 124.722 395.742 126.382 395.742ZM126.382 410.343C124.221 410.343 122.692 409.025 122.692 407.127C122.692 405.23 124.221 403.912 126.382 403.912C128.569 403.912 130.098 405.23 130.098 407.127C130.098 409.025 128.569 410.343 126.382 410.343ZM142.428 402.673C145.09 402.673 147.278 400.486 147.278 397.798C147.278 395.11 145.116 392.922 142.428 392.922C139.714 392.922 137.553 395.11 137.553 397.798C137.553 400.486 139.74 402.673 142.428 402.673ZM143.008 412.873H146.197L154.973 393.238H151.784L143.008 412.873ZM142.428 400.012C141.19 400.012 140.214 399.01 140.214 397.798C140.214 396.585 141.19 395.584 142.428 395.584C143.641 395.584 144.642 396.585 144.642 397.798C144.642 399.01 143.641 400.012 142.428 400.012ZM155.79 413.189C158.505 413.189 160.666 411.028 160.666 408.313C160.666 405.625 158.505 403.464 155.79 403.464C153.102 403.464 150.941 405.625 150.941 408.313C150.941 411.028 153.102 413.189 155.79 413.189ZM155.79 410.527C154.578 410.527 153.576 409.552 153.576 408.313C153.576 407.101 154.578 406.099 155.79 406.099C157.029 406.099 158.004 407.101 158.004 408.313C158.004 409.552 157.029 410.527 155.79 410.527Z" fill="#14192B"/>
<path d="M190.676 410.261C190.676 442.523 164.545 468.673 132.314 468.673C100.083 468.673 73.9519 442.523 73.9519 410.261C73.9519 378 100.083 351.85 132.314 351.85C164.545 351.85 190.676 378 190.676 410.261Z" stroke="#E9EAF0" stroke-width="4.88619"/>
<path d="M151.68 355.159C159.985 358.083 167.521 362.849 173.725 369.101" stroke="#FF9428" stroke-width="4.88619" stroke-linecap="round"/>
<path d="M173.582 368.957C181.509 376.891 186.986 386.943 189.357 397.91C191.727 408.877 190.892 420.295 186.95 430.799C183.008 441.303 176.127 450.449 167.129 457.142C158.132 463.835 147.398 467.793 136.213 468.542" stroke="#65CC32" stroke-width="4.88619" stroke-linecap="round"/>
<path d="M138.314 468.363C129.488 469.276 120.57 468.163 112.238 465.108C103.906 462.053 96.3798 457.137 90.2315 450.733C84.0832 444.329 79.4748 436.607 76.7568 428.152C74.0389 419.698 73.283 410.734 74.5467 401.943C75.8104 393.152 79.0604 384.766 84.0494 377.421C89.0385 370.076 95.6351 363.967 103.338 359.558C111.04 355.148 119.646 352.555 128.5 351.975C137.354 351.394 146.224 352.842 154.436 356.208" stroke="#0144E4" stroke-width="4.88619" stroke-linecap="round"/>
<rect x="397.857" y="330.237" width="355.574" height="160.048" rx="6.46268" fill="white" stroke="#E9EAF0" stroke-width="1.17503"/>
<path d="M625.432 361.351V367.353C625.432 368.537 624.523 369.398 623.316 369.398C622.096 369.398 621.199 368.537 621.199 367.353V361.351H620.051V367.353C620.051 369.183 621.343 370.402 623.316 370.402C625.288 370.402 626.58 369.171 626.58 367.353V361.351H625.432ZM631.114 363.778C630.337 363.778 629.656 364.101 629.285 364.651V363.922H628.281V370.259H629.309V366.421C629.309 365.428 629.943 364.771 630.887 364.771C631.844 364.771 632.453 365.416 632.453 366.421V370.259H633.482V366.086C633.482 364.759 632.489 363.778 631.114 363.778ZM634.841 362.75H635.869V361.351H634.841V362.75ZM634.841 370.259H635.869V363.922H634.841V370.259ZM640.008 370.331C640.187 370.331 640.438 370.319 640.641 370.271V369.434C640.51 369.458 640.331 369.47 640.199 369.47C639.111 369.47 639.039 368.728 639.039 368.322V364.902H640.57V363.922H639.039V361.865H638.011V362.989C638.011 363.551 637.652 363.922 637.102 363.922H636.779V364.902H638.011V368.322C638.011 369.601 638.728 370.331 640.008 370.331ZM647.353 366.815C647.353 365.201 646.205 363.778 644.4 363.778C642.63 363.778 641.315 365.165 641.315 367.078C641.315 368.991 642.666 370.402 644.484 370.402C645.787 370.402 646.815 369.697 647.21 368.824L646.313 368.346C645.978 368.991 645.392 369.47 644.495 369.47C643.383 369.47 642.439 368.657 642.391 367.401H647.305C647.341 367.198 647.353 366.995 647.353 366.815ZM642.415 366.516C642.558 365.368 643.407 364.687 644.4 364.687C645.332 364.687 646.205 365.464 646.217 366.516H642.415ZM653.551 361.351V364.854C653.097 364.185 652.248 363.778 651.292 363.778C649.51 363.778 648.099 365.177 648.099 367.09C648.099 369.003 649.498 370.402 651.304 370.402C652.26 370.402 653.109 370.02 653.575 369.338V370.259H654.58V361.351H653.551ZM651.363 369.41C650.108 369.41 649.187 368.429 649.187 367.09C649.187 365.763 650.108 364.771 651.363 364.771C652.619 364.771 653.551 365.763 653.551 367.09C653.551 368.429 652.619 369.41 651.363 369.41ZM661.436 370.402C663.218 370.402 664.437 369.398 664.437 367.927C664.437 366.732 663.708 365.978 662.249 365.536L660.659 365.058C659.786 364.806 659.32 364.28 659.32 363.599C659.32 362.762 660.025 362.2 661.101 362.2C662.189 362.2 663.003 362.774 663.373 363.826L664.366 363.36C663.959 362.176 662.727 361.207 661.089 361.207C659.38 361.207 658.184 362.224 658.184 363.671C658.184 364.771 658.901 365.667 660.324 366.086L661.986 366.588C662.871 366.851 663.301 367.258 663.301 368.011C663.301 368.836 662.56 369.41 661.436 369.41C660.252 369.41 659.332 368.764 658.913 367.545L657.909 367.987C658.339 369.338 659.69 370.402 661.436 370.402ZM668.429 370.331C668.608 370.331 668.859 370.319 669.062 370.271V369.434C668.931 369.458 668.752 369.47 668.62 369.47C667.532 369.47 667.46 368.728 667.46 368.322V364.902H668.991V363.922H667.46V361.865H666.432V362.989C666.432 363.551 666.073 363.922 665.523 363.922H665.2V364.902H666.432V368.322C666.432 369.601 667.149 370.331 668.429 370.331ZM672.721 363.778C671.549 363.778 670.521 364.448 670.162 365.309L671.083 365.787C671.358 365.165 671.955 364.759 672.721 364.759C673.558 364.759 674.155 365.237 674.155 365.966V366.146L671.955 366.636C670.676 366.923 669.923 367.568 669.923 368.501C669.923 369.613 670.831 370.402 672.183 370.402C672.996 370.402 673.749 370.008 674.179 369.374V370.259H675.184V365.966C675.184 364.675 674.167 363.778 672.721 363.778ZM672.242 369.482C671.489 369.482 671.011 369.099 671.011 368.501C671.011 367.987 671.477 367.592 672.195 367.437L674.155 366.983V367.533C674.155 368.645 673.354 369.482 672.242 369.482ZM679.183 370.331C679.362 370.331 679.613 370.319 679.817 370.271V369.434C679.685 369.458 679.506 369.47 679.374 369.47C678.286 369.47 678.214 368.728 678.214 368.322V364.902H679.745V363.922H678.214V361.865H677.186V362.989C677.186 363.551 676.827 363.922 676.277 363.922H675.955V364.902H677.186V368.322C677.186 369.601 677.904 370.331 679.183 370.331ZM686.528 366.815C686.528 365.201 685.38 363.778 683.575 363.778C681.805 363.778 680.49 365.165 680.49 367.078C680.49 368.991 681.841 370.402 683.659 370.402C684.962 370.402 685.99 369.697 686.385 368.824L685.488 368.346C685.153 368.991 684.567 369.47 683.671 369.47C682.559 369.47 681.614 368.657 681.566 367.401H686.481C686.516 367.198 686.528 366.995 686.528 366.815ZM681.59 366.516C681.734 365.368 682.583 364.687 683.575 364.687C684.508 364.687 685.38 365.464 685.392 366.516H681.59ZM689.845 370.402C691.208 370.402 692.153 369.649 692.153 368.549C692.153 367.7 691.579 367.078 690.515 366.767L689.438 366.445C688.888 366.277 688.53 365.99 688.53 365.56C688.53 365.058 688.984 364.723 689.666 364.723C690.419 364.723 691.017 365.117 691.28 365.799L692.141 365.38C691.77 364.388 690.837 363.778 689.666 363.778C688.35 363.778 687.466 364.519 687.466 365.62C687.466 366.48 688.016 367.09 689.08 367.389L690.12 367.676C690.706 367.843 691.088 368.095 691.088 368.549C691.088 369.075 690.586 369.458 689.845 369.458C689.056 369.458 688.374 369.039 688.051 368.238L687.179 368.669C687.585 369.745 688.601 370.402 689.845 370.402Z" fill="#888B94"/>
<ellipse cx="609.768" cy="366.184" rx="4.09577" ry="4.0993" fill="#0144E4"/>
<path d="M624.129 400.71C625.958 400.71 627.297 399.622 627.752 398.462L626.735 397.972C626.317 399.012 625.384 399.705 624.129 399.705C622.227 399.705 620.888 398.235 620.888 396.118C620.888 394.002 622.227 392.519 624.129 392.519C625.384 392.519 626.317 393.225 626.735 394.265L627.752 393.775C627.297 392.615 625.958 391.515 624.129 391.515C621.594 391.515 619.752 393.452 619.752 396.118C619.752 398.773 621.606 400.71 624.129 400.71ZM631.409 394.086C630.237 394.086 629.209 394.755 628.85 395.616L629.771 396.094C630.046 395.473 630.643 395.066 631.409 395.066C632.246 395.066 632.843 395.544 632.843 396.274V396.453L630.643 396.943C629.364 397.23 628.611 397.876 628.611 398.808C628.611 399.92 629.519 400.71 630.871 400.71C631.684 400.71 632.437 400.315 632.867 399.681V400.566H633.872V396.274C633.872 394.982 632.855 394.086 631.409 394.086ZM630.93 399.789C630.177 399.789 629.699 399.406 629.699 398.808C629.699 398.294 630.165 397.9 630.883 397.744L632.843 397.29V397.84C632.843 398.952 632.042 399.789 630.93 399.789ZM638.05 394.086C637.273 394.086 636.592 394.408 636.221 394.958V394.229H635.216V400.566H636.245V396.728C636.245 395.736 636.878 395.078 637.823 395.078C638.78 395.078 639.389 395.724 639.389 396.728V400.566H640.418V396.393C640.418 395.066 639.425 394.086 638.05 394.086ZM644.311 394.086C643.14 394.086 642.111 394.755 641.753 395.616L642.673 396.094C642.948 395.473 643.546 395.066 644.311 395.066C645.148 395.066 645.746 395.544 645.746 396.274V396.453L643.546 396.943C642.267 397.23 641.513 397.876 641.513 398.808C641.513 399.92 642.422 400.71 643.773 400.71C644.586 400.71 645.34 400.315 645.77 399.681V400.566H646.774V396.274C646.774 394.982 645.758 394.086 644.311 394.086ZM643.833 399.789C643.08 399.789 642.602 399.406 642.602 398.808C642.602 398.294 643.068 397.9 643.785 397.744L645.746 397.29V397.84C645.746 398.952 644.945 399.789 643.833 399.789ZM653.213 391.658V395.162C652.758 394.492 651.91 394.086 650.953 394.086C649.171 394.086 647.76 395.484 647.76 397.398C647.76 399.311 649.159 400.71 650.965 400.71C651.921 400.71 652.77 400.327 653.237 399.645V400.566H654.241V391.658H653.213ZM651.025 399.717C649.769 399.717 648.849 398.737 648.849 397.398C648.849 396.07 649.769 395.078 651.025 395.078C652.28 395.078 653.213 396.07 653.213 397.398C653.213 398.737 652.28 399.717 651.025 399.717ZM658.253 394.086C657.082 394.086 656.053 394.755 655.695 395.616L656.615 396.094C656.89 395.473 657.488 395.066 658.253 395.066C659.09 395.066 659.688 395.544 659.688 396.274V396.453L657.488 396.943C656.209 397.23 655.455 397.876 655.455 398.808C655.455 399.92 656.364 400.71 657.715 400.71C658.528 400.71 659.282 400.315 659.712 399.681V400.566H660.716V396.274C660.716 394.982 659.7 394.086 658.253 394.086ZM657.775 399.789C657.022 399.789 656.543 399.406 656.543 398.808C656.543 398.294 657.01 397.9 657.727 397.744L659.688 397.29V397.84C659.688 398.952 658.887 399.789 657.775 399.789Z" fill="#888B94"/>
<ellipse cx="609.768" cy="396.931" rx="4.09579" ry="4.09931" fill="#7F42FF"/>
<path d="M626.192 421.023V427.025C626.192 428.209 625.283 429.07 624.075 429.07C622.856 429.07 621.959 428.209 621.959 427.025V421.023H620.811V427.025C620.811 428.854 622.102 430.074 624.075 430.074C626.048 430.074 627.34 428.842 627.34 427.025V421.023H626.192ZM632.484 424.335L635.413 421.023H634.074L630.296 425.267V421.023H629.16V429.931H630.296V426.822L631.731 425.208L634.576 429.931H635.892L632.484 424.335Z" fill="#888B94"/>
<ellipse cx="609.767" cy="425.415" rx="4.09507" ry="4.09859" fill="#FC5656"/>
<path d="M624.685 450.387H623.382L620.153 459.295H621.349L622.09 457.166H625.976L626.718 459.295H627.913L624.685 450.387ZM622.437 456.174L624.039 451.618L625.63 456.174H622.437ZM632.895 452.958V456.796C632.895 457.788 632.261 458.446 631.329 458.446C630.372 458.446 629.751 457.8 629.751 456.796V452.958H628.722V456.987C628.722 458.338 629.727 459.438 631.102 459.438C631.867 459.438 632.548 459.115 632.919 458.565V459.295H633.923V452.958H632.895ZM637.71 459.438C639.073 459.438 640.017 458.685 640.017 457.585C640.017 456.736 639.443 456.114 638.379 455.803L637.303 455.48C636.753 455.313 636.394 455.026 636.394 454.596C636.394 454.093 636.849 453.759 637.53 453.759C638.283 453.759 638.881 454.153 639.144 454.835L640.005 454.416C639.635 453.424 638.702 452.814 637.53 452.814C636.215 452.814 635.33 453.555 635.33 454.655C635.33 455.516 635.88 456.126 636.944 456.425L637.985 456.712C638.57 456.879 638.953 457.13 638.953 457.585C638.953 458.111 638.451 458.494 637.71 458.494C636.92 458.494 636.239 458.075 635.916 457.274L635.043 457.704C635.45 458.781 636.466 459.438 637.71 459.438ZM643.792 459.366C643.971 459.366 644.222 459.354 644.425 459.307V458.47C644.294 458.494 644.115 458.506 643.983 458.506C642.895 458.506 642.823 457.764 642.823 457.358V453.938H644.354V452.958H642.823V450.901H641.795V452.025C641.795 452.587 641.436 452.958 640.886 452.958H640.563V453.938H641.795V457.358C641.795 458.637 642.512 459.366 643.792 459.366ZM648.347 452.886C647.582 452.886 646.972 453.161 646.637 453.747V452.958H645.644V459.295H646.673V455.516C646.673 454.464 647.283 453.866 648.191 453.866H648.861V452.886H648.347ZM652.404 452.814C651.232 452.814 650.204 453.484 649.845 454.345L650.766 454.823C651.041 454.201 651.639 453.795 652.404 453.795C653.241 453.795 653.839 454.273 653.839 455.002V455.182L651.639 455.672C650.359 455.959 649.606 456.604 649.606 457.537C649.606 458.649 650.515 459.438 651.866 459.438C652.679 459.438 653.432 459.044 653.863 458.41V459.295H654.867V455.002C654.867 453.711 653.851 452.814 652.404 452.814ZM651.926 458.517C651.173 458.517 650.694 458.135 650.694 457.537C650.694 457.023 651.161 456.628 651.878 456.473L653.839 456.018V456.569C653.839 457.68 653.038 458.517 651.926 458.517ZM656.212 459.295H657.24V450.387H656.212V459.295ZM658.72 451.786H659.748V450.387H658.72V451.786ZM658.72 459.295H659.748V452.958H658.72V459.295ZM663.672 452.814C662.5 452.814 661.472 453.484 661.113 454.345L662.034 454.823C662.309 454.201 662.907 453.795 663.672 453.795C664.509 453.795 665.107 454.273 665.107 455.002V455.182L662.907 455.672C661.627 455.959 660.874 456.604 660.874 457.537C660.874 458.649 661.783 459.438 663.134 459.438C663.947 459.438 664.7 459.044 665.131 458.41V459.295H666.135V455.002C666.135 453.711 665.119 452.814 663.672 452.814ZM663.194 458.517C662.44 458.517 661.962 458.135 661.962 457.537C661.962 457.023 662.429 456.628 663.146 456.473L665.107 456.018V456.569C665.107 457.68 664.306 458.517 663.194 458.517Z" fill="#888B94"/>
<ellipse cx="609.767" cy="454.779" rx="4.09507" ry="4.09859" fill="#FFCA42"/>
<path d="M491.41 432.561C493.103 432.561 494.342 431.554 494.763 430.481L493.822 430.027C493.435 430.99 492.572 431.631 491.41 431.631C489.651 431.631 488.412 430.271 488.412 428.312C488.412 426.354 489.651 424.982 491.41 424.982C492.572 424.982 493.435 425.635 493.822 426.598L494.763 426.144C494.342 425.071 493.103 424.053 491.41 424.053C489.065 424.053 487.361 425.845 487.361 428.312C487.361 430.768 489.076 432.561 491.41 432.561ZM498.578 432.561C500.27 432.561 501.598 431.266 501.598 429.485C501.598 427.704 500.282 426.432 498.578 426.432C496.874 426.432 495.558 427.704 495.558 429.485C495.558 431.266 496.885 432.561 498.578 432.561ZM498.578 431.642C497.438 431.642 496.564 430.724 496.564 429.496C496.564 428.268 497.438 427.35 498.578 427.35C499.717 427.35 500.591 428.268 500.591 429.496C500.591 430.724 499.717 431.642 498.578 431.642ZM506.479 426.564V430.116C506.479 431.034 505.892 431.642 505.03 431.642C504.144 431.642 503.569 431.045 503.569 430.116V426.564H502.618V430.293C502.618 431.543 503.547 432.561 504.819 432.561C505.527 432.561 506.158 432.262 506.501 431.753V432.428H507.43V426.564H506.479ZM511.509 426.432C510.789 426.432 510.159 426.73 509.816 427.239V426.564H508.887V432.428H509.838V428.877C509.838 427.958 510.424 427.35 511.298 427.35C512.183 427.35 512.748 427.947 512.748 428.877V432.428H513.699V428.567C513.699 427.339 512.781 426.432 511.509 426.432ZM517.501 432.494C517.667 432.494 517.899 432.483 518.087 432.439V431.664C517.966 431.687 517.8 431.698 517.678 431.698C516.671 431.698 516.605 431.012 516.605 430.636V427.472H518.021V426.564H516.605V424.661H515.653V425.701C515.653 426.221 515.321 426.564 514.813 426.564H514.514V427.472H515.653V430.636C515.653 431.819 516.317 432.494 517.501 432.494ZM521.716 426.498C521.007 426.498 520.443 426.752 520.133 427.295V426.564H519.215V432.428H520.167V428.932C520.167 427.958 520.731 427.405 521.572 427.405H522.191V426.498H521.716ZM523.124 425.48H524.076V424.186H523.124V425.48ZM523.124 432.428H524.076V426.564H523.124V432.428ZM530.704 429.242C530.704 427.748 529.642 426.432 527.972 426.432C526.334 426.432 525.117 427.715 525.117 429.485C525.117 431.255 526.367 432.561 528.049 432.561C529.255 432.561 530.206 431.908 530.571 431.1L529.742 430.658C529.432 431.255 528.89 431.698 528.06 431.698C527.031 431.698 526.157 430.945 526.113 429.784H530.66C530.693 429.596 530.704 429.408 530.704 429.242ZM526.135 428.965C526.268 427.903 527.053 427.272 527.972 427.272C528.834 427.272 529.642 427.991 529.653 428.965H526.135ZM533.773 432.561C535.034 432.561 535.908 431.864 535.908 430.846C535.908 430.06 535.377 429.485 534.392 429.197L533.397 428.899C532.888 428.744 532.556 428.478 532.556 428.08C532.556 427.615 532.976 427.306 533.607 427.306C534.304 427.306 534.857 427.671 535.101 428.301L535.897 427.914C535.554 426.996 534.691 426.432 533.607 426.432C532.39 426.432 531.571 427.117 531.571 428.135C531.571 428.932 532.08 429.496 533.065 429.773L534.027 430.038C534.569 430.193 534.923 430.425 534.923 430.846C534.923 431.333 534.459 431.687 533.773 431.687C533.043 431.687 532.412 431.299 532.113 430.558L531.306 430.956C531.682 431.952 532.622 432.561 533.773 432.561Z" fill="#888B94"/>
<path d="M486.88 412.704H490.412L498.529 395.863V393.043H485.668V395.863H495.182L486.88 412.704ZM500.693 412.704H513.818V409.858H504.963L509.654 404.982C512.237 402.32 513.476 400.423 513.476 398.262C513.476 394.994 510.945 392.754 507.308 392.754C504.12 392.754 501.563 394.414 500.641 397.076L503.303 398.525C503.909 396.759 505.306 395.758 507.15 395.758C508.995 395.758 510.128 396.812 510.128 398.578C510.128 400.186 509.18 401.398 506.017 404.666L500.667 410.227L500.693 412.704ZM522.779 402.505C525.441 402.505 527.628 400.317 527.628 397.629C527.628 394.941 525.467 392.754 522.779 392.754C520.064 392.754 517.903 394.941 517.903 397.629C517.903 400.317 520.091 402.505 522.779 402.505ZM523.359 412.704H526.548L535.324 393.07H532.135L523.359 412.704ZM522.779 399.843C521.54 399.843 520.565 398.841 520.565 397.629C520.565 396.417 521.54 395.415 522.779 395.415C523.991 395.415 524.993 396.417 524.993 397.629C524.993 398.841 523.991 399.843 522.779 399.843ZM536.141 413.02C538.855 413.02 541.017 410.859 541.017 408.145C541.017 405.457 538.855 403.295 536.141 403.295C533.453 403.295 531.292 405.457 531.292 408.145C531.292 410.859 533.453 413.02 536.141 413.02ZM536.141 410.359C534.929 410.359 533.927 409.383 533.927 408.145C533.927 406.932 534.929 405.931 536.141 405.931C537.38 405.931 538.355 406.932 538.355 408.145C538.355 409.383 537.38 410.359 536.141 410.359Z" fill="#14192B"/>
<path d="M569.293 410.261C569.293 442.523 543.161 468.673 510.93 468.673C478.7 468.673 452.568 442.523 452.568 410.261C452.568 378 478.7 351.85 510.93 351.85C543.161 351.85 569.293 378 569.293 410.261Z" stroke="#E9EAF0" stroke-width="4.88619"/>
<path d="M454.657 394.775C457.134 385.758 461.738 377.468 468.082 370.602C474.426 363.737 482.324 358.496 491.112 355.321C499.9 352.145 509.322 351.128 518.584 352.354C527.847 353.581 536.68 357.015 544.341 362.368" stroke="#7F42FF" stroke-width="4.88619" stroke-linecap="round"/>
<path d="M544.947 362.798C551.718 367.659 557.371 373.915 561.525 381.145C565.679 388.375 568.238 396.412 569.029 404.715" stroke="#FC5656" stroke-width="4.88619" stroke-linecap="round"/>
<path d="M569.055 404.994C570.284 418.582 566.722 432.172 558.987 443.407" stroke="#FFCA42" stroke-width="4.88619" stroke-linecap="round"/>
<path d="M516.93 468.363C507.262 469.364 497.497 467.931 488.522 464.196C479.547 460.461 471.646 454.541 465.537 446.974C459.427 439.408 455.303 430.434 453.538 420.866C451.773 411.299 452.424 401.443 455.431 392.191" stroke="#0144E4" stroke-width="4.88619" stroke-linecap="round"/>
</svg>
