<svg width="294" height="221" viewBox="0 0 294 221" fill="none" xmlns="http://www.w3.org/2000/svg">
<rect width="294" height="220.252" fill="white"/>
<rect x="37.7334" y="26.8253" width="104.533" height="104.533" rx="4" fill="#0144E4"/>
<rect opacity="0.58" x="66.5312" y="52.4084" width="189.735" height="141.018" rx="4" fill="#E9EAF0"/>
<rect x="54.8457" y="40.783" width="188.841" height="140.018" rx="3.5" fill="white" stroke="#14192B"/>
<line x1="54.3457" y1="59.6873" x2="244.186" y2="59.6873" stroke="#14192B"/>
<circle cx="70.4639" cy="50.2351" r="3" fill="white" stroke="#14192B"/>
<circle cx="81.4639" cy="50.2351" r="3" fill="white" stroke="#14192B"/>
<circle cx="92.4639" cy="50.2351" r="3" fill="white" stroke="#14192B"/>
<rect x="67.0312" y="67.442" width="50.16" height="45.1875" rx="3.5" fill="white" stroke="#14192B"/>
<rect x="181.341" y="67.442" width="50.16" height="45.1875" rx="3.5" fill="white" stroke="#14192B"/>
<rect x="124.187" y="67.442" width="50.16" height="45.1875" rx="3.5" fill="white" stroke="#14192B"/>
<circle cx="92.1113" cy="89.6509" r="15.6073" fill="white" stroke="#14192B"/>
<mask id="path-13-inside-1" fill="white">
<path d="M82.9028 76.4354C80.2796 78.2632 78.2597 80.8303 77.1003 83.8098C75.9409 86.7893 75.6944 90.0465 76.3923 93.1666L92.1112 89.6509L82.9028 76.4354Z"/>
</mask>
<path d="M82.9028 76.4354C80.2796 78.2632 78.2597 80.8303 77.1003 83.8098C75.9409 86.7893 75.6944 90.0465 76.3923 93.1666L92.1112 89.6509L82.9028 76.4354Z" fill="#0144E4" stroke="#0144E4" stroke-width="2" mask="url(#path-13-inside-1)"/>
<circle cx="206.421" cy="89.6509" r="15.6073" fill="white" stroke="#14192B"/>
<mask id="path-15-inside-2" fill="white">
<path d="M200.395 104.589C202.357 105.38 204.455 105.777 206.57 105.758C208.685 105.738 210.776 105.302 212.723 104.474C214.669 103.647 216.434 102.444 217.916 100.934C219.397 99.4249 220.567 97.6384 221.359 95.6767L206.421 89.6509L200.395 104.589Z"/>
</mask>
<path d="M200.395 104.589C202.357 105.38 204.455 105.777 206.57 105.758C208.685 105.738 210.776 105.302 212.723 104.474C214.669 103.647 216.434 102.444 217.916 100.934C219.397 99.4249 220.567 97.6384 221.359 95.6767L206.421 89.6509L200.395 104.589Z" fill="#0144E4" stroke="#0144E4" stroke-width="2" mask="url(#path-15-inside-2)"/>
<circle cx="149.267" cy="89.6509" r="15.6073" fill="white" stroke="#14192B"/>
<mask id="path-17-inside-3" fill="white">
<path d="M140.058 76.4354C136.943 78.6059 134.695 81.8068 133.71 85.4734C132.726 89.1401 133.068 93.0366 134.676 96.4756C136.285 99.9145 139.057 102.675 142.502 104.269C145.948 105.863 149.846 106.19 153.508 105.19L149.267 89.6509L140.058 76.4354Z"/>
</mask>
<path d="M140.058 76.4354C136.943 78.6059 134.695 81.8068 133.71 85.4734C132.726 89.1401 133.068 93.0366 134.676 96.4756C136.285 99.9145 139.057 102.675 142.502 104.269C145.948 105.863 149.846 106.19 153.508 105.19L149.267 89.6509L140.058 76.4354Z" fill="#0144E4" stroke="#0144E4" stroke-width="2" mask="url(#path-17-inside-3)"/>
<rect x="67.0312" y="118.63" width="107.315" height="52.8103" rx="3.5" fill="white" stroke="#14192B"/>
<line x1="76.4375" y1="164.02" x2="76.4375" y2="152.878" stroke="#0144E4"/>
<line x1="85.1875" y1="164.02" x2="85.1875" y2="141.305" stroke="#0144E4"/>
<line x1="93.9375" y1="164.02" x2="93.9375" y2="145.418" stroke="#0144E4"/>
<line x1="102.688" y1="164.02" x2="102.688" y2="133.175" stroke="#0144E4"/>
<line x1="111.438" y1="164.02" x2="111.438" y2="138.148" stroke="#0144E4"/>
<line x1="120.188" y1="164.02" x2="120.188" y2="143.489" stroke="#0144E4"/>
<line x1="128.938" y1="164.02" x2="128.938" y2="129.308" stroke="#0144E4"/>
<line x1="137.689" y1="164.02" x2="137.689" y2="134.926" stroke="#0144E4"/>
<line x1="146.439" y1="164.02" x2="146.439" y2="126.05" stroke="#0144E4"/>
<line x1="155.189" y1="164.02" x2="155.189" y2="137.179" stroke="#0144E4"/>
<line x1="163.94" y1="164.02" x2="163.94" y2="129.308" stroke="#0144E4"/>
<rect x="181.341" y="118.63" width="52.1592" height="52.8103" rx="3.5" fill="white" stroke="#14192B"/>
<path d="M186.264 162.178L189.905 151.252L200.103 156.205L208.698 147.027L219.041 149.067L225.888 130.42L229.53 134.207" stroke="#0144E4"/>
</svg>
