<svg width="315" height="312" viewBox="0 0 315 312" fill="none" xmlns="http://www.w3.org/2000/svg">
<rect width="315" height="312" fill="white"/>
<path d="M44.8919 88.606C44.8919 85.9706 43.2316 84.2311 39.99 83.2297L39.1466 82.9661V77.2735C40.438 77.7479 41.4131 78.7757 41.9139 80.2252L44.7865 78.9075C43.9695 76.641 41.9139 74.7961 39.1466 74.2163V71.5808H36.801V74.0318C33.0323 74.2163 30.5022 76.4565 30.5022 79.6718C30.5022 82.2018 32.0835 84.1521 35.3252 85.1272L36.801 85.5752V91.2679C35.0089 90.8989 33.4803 89.6075 32.716 87.5782L29.8697 88.8696C30.7658 91.7159 33.4276 93.8506 36.801 94.246V96.6179H39.1466V94.2196C42.6254 93.8243 44.8919 91.6632 44.8919 88.606ZM36.2739 82.0964C34.6926 81.622 33.8493 80.726 33.8493 79.5136C33.8493 78.1432 35.0089 77.1153 36.801 76.9836V82.2545L36.2739 82.0964ZM39.1466 91.2415V86.3132H39.173C40.7279 86.7876 41.5449 87.4991 41.5449 88.8432C41.5449 90.0028 40.6488 90.9253 39.1466 91.2415ZM50.7071 93.9824H54.0542V74.3481L47.0174 74.3744V77.1944H50.7071V93.9824ZM59.1091 93.9824H72.2338V91.1361H63.3786L68.0698 86.2605C70.6525 83.5986 71.8912 81.7011 71.8912 79.54C71.8912 76.272 69.3612 74.0318 65.7242 74.0318C62.5353 74.0318 59.9788 75.6922 59.0564 78.354L61.7183 79.8035C62.3244 78.0378 63.7212 77.0363 65.5661 77.0363C67.4109 77.0363 68.5442 78.0905 68.5442 79.8562C68.5442 81.4639 67.5954 82.6762 64.4328 85.9442L59.0828 91.5051L59.1091 93.9824ZM75.8446 97.0659H78.0321L79.9823 90.4245H76.8988L75.8446 97.0659ZM94.9424 83.4669C96.3129 82.5971 97.1562 81.0422 97.1562 79.3291C97.1562 76.2456 94.5207 74.0318 90.9101 74.0318C87.2995 74.0318 84.664 76.272 84.664 79.3291C84.664 81.0422 85.5074 82.6235 86.9042 83.4669C84.9539 84.442 83.8734 86.1287 83.8734 88.2107C83.8734 91.7159 86.8515 94.2987 90.9101 94.2987C94.9688 94.2987 97.9996 91.7159 97.9996 88.2107C97.9996 86.1287 96.8927 84.4683 94.9424 83.4669ZM90.9101 76.8518C92.5705 76.8518 93.7564 77.9587 93.7564 79.54C93.7564 81.0949 92.5705 82.1755 90.9101 82.1755C89.2234 82.1755 88.0638 81.0949 88.0638 79.54C88.0638 77.9587 89.2498 76.8518 90.9101 76.8518ZM90.9101 91.4524C88.749 91.4524 87.2204 90.1346 87.2204 88.2371C87.2204 86.3395 88.749 85.0218 90.9101 85.0218C93.0976 85.0218 94.6261 86.3395 94.6261 88.2371C94.6261 90.1346 93.0976 91.4524 90.9101 91.4524ZM108.828 94.2987C113.572 94.2987 116.681 90.2137 116.681 84.1521C116.681 78.0905 113.545 74.0318 108.801 74.0318C104.11 74.0318 100.948 78.0641 100.948 84.1521C100.948 90.24 104.137 94.2987 108.828 94.2987ZM108.828 91.2415C106.034 91.2415 104.268 88.527 104.268 84.1521C104.268 79.7772 106.008 77.089 108.801 77.089C111.648 77.089 113.387 79.7772 113.387 84.1521C113.387 88.5533 111.648 91.2415 108.828 91.2415ZM134.959 86.8139H131.955V74.3481H128.555L119.278 86.8139V89.6075H128.713V93.9824H131.955V89.6075H134.959V86.8139ZM122.599 86.8139L128.713 78.4594V86.8139H122.599ZM138.416 93.9824H141.684V90.4245H138.416V93.9824ZM152.494 81.2267C151.334 81.2267 150.386 81.4902 149.621 81.991L150.306 77.1417L158.371 77.1681V74.3481H147.987L146.432 85.2063L148.936 85.8124C149.463 84.7055 150.596 84.0994 151.967 84.0994C154.154 84.0994 155.63 85.5489 155.63 87.6836C155.63 89.8447 154.128 91.2942 151.993 91.2942C150.148 91.2942 148.514 90.2137 147.855 88.527L145.22 89.9765C146.195 92.612 148.831 94.2987 151.993 94.2987C156.025 94.2987 158.977 91.4524 158.977 87.5255C158.977 83.8358 156.289 81.2267 152.494 81.2267ZM169.823 94.2987C174.566 94.2987 177.676 90.2137 177.676 84.1521C177.676 78.0905 174.54 74.0318 169.796 74.0318C165.105 74.0318 161.942 78.0641 161.942 84.1521C161.942 90.24 165.131 94.2987 169.823 94.2987ZM169.823 91.2415C167.029 91.2415 165.263 88.527 165.263 84.1521C165.263 79.7772 167.003 77.089 169.796 77.089C172.643 77.089 174.382 79.7772 174.382 84.1521C174.382 88.5533 172.643 91.2415 169.823 91.2415Z" fill="#14192B"/>
<path d="M193.131 86.8361L186.975 92.9926" stroke="#65CC32" stroke-width="1.8"/>
<path d="M192.5 86.2055L199.287 92.9926" stroke="#65CC32" stroke-width="1.8"/>
<path d="M32.27 52H34.175V42.49H37.085V40.825H29.345V42.49H32.27V52ZM41.0185 52.18C43.3735 52.18 45.2635 50.395 45.2635 47.95C45.2635 45.505 43.3885 43.735 41.0185 43.735C38.6335 43.735 36.7735 45.505 36.7735 47.95C36.7735 50.395 38.6485 52.18 41.0185 52.18ZM41.0185 50.515C39.6385 50.515 38.6485 49.45 38.6485 47.965C38.6485 46.48 39.6385 45.4 41.0185 45.4C42.3835 45.4 43.3885 46.48 43.3885 47.965C43.3885 49.45 42.3835 50.515 41.0185 50.515ZM50.0384 52.09C50.3234 52.09 50.6834 52.06 50.9684 52.015V50.575C50.7734 50.605 50.5784 50.62 50.4284 50.62C49.2884 50.62 49.0034 49.975 49.0034 49.285V45.535H50.9234V43.915H49.0034V41.41H47.2034V42.7C47.2034 43.48 46.7534 43.915 45.9734 43.915H45.7334V45.535H47.2034V49.285C47.2034 51.07 48.2234 52.09 50.0384 52.09ZM55.5082 43.735C53.9032 43.735 52.5532 44.59 52.0882 45.82L53.6482 46.6C53.9482 45.835 54.6382 45.355 55.5082 45.355C56.4082 45.355 57.0232 45.85 57.0232 46.6V46.855L54.3682 47.425C52.7332 47.785 51.7882 48.58 51.7882 49.78C51.7882 51.16 52.9282 52.18 54.7282 52.18C55.7032 52.18 56.5282 51.82 57.1282 51.1V52H58.8232V46.6C58.8232 44.92 57.4732 43.735 55.5082 43.735ZM54.9382 50.755C54.1582 50.755 53.6632 50.38 53.6632 49.765C53.6632 49.27 54.0532 48.88 54.7282 48.73L57.0232 48.22V48.745C57.0232 49.885 56.1382 50.755 54.9382 50.755ZM60.2655 52H62.0655V40.825H60.2655V52ZM73.8875 47.665C73.8875 45.52 72.2675 43.735 69.9875 43.735C67.7075 43.735 65.9825 45.52 65.9825 47.95C65.9825 50.32 67.6775 52.18 70.1225 52.18C71.7725 52.18 73.0925 51.34 73.5875 50.185L72.1025 49.465C71.7425 50.125 71.0975 50.59 70.1375 50.59C68.8925 50.59 67.9475 49.765 67.8575 48.475H73.7975C73.8575 48.235 73.8875 47.95 73.8875 47.665ZM67.8875 47.08C68.0975 45.895 68.9375 45.235 69.9875 45.235C71.0225 45.235 71.8925 46 71.9525 47.08H67.8875ZM78.3011 43.735C76.6961 43.735 75.3461 44.59 74.8811 45.82L76.4411 46.6C76.7411 45.835 77.4311 45.355 78.3011 45.355C79.2011 45.355 79.8161 45.85 79.8161 46.6V46.855L77.1611 47.425C75.5261 47.785 74.5811 48.58 74.5811 49.78C74.5811 51.16 75.7211 52.18 77.5211 52.18C78.4961 52.18 79.3211 51.82 79.9211 51.1V52H81.6161V46.6C81.6161 44.92 80.2661 43.735 78.3011 43.735ZM77.7311 50.755C76.9511 50.755 76.4561 50.38 76.4561 49.765C76.4561 49.27 76.8461 48.88 77.5211 48.73L79.8161 48.22V48.745C79.8161 49.885 78.9311 50.755 77.7311 50.755ZM86.9435 43.825C85.9535 43.825 85.1735 44.155 84.7535 45.04V43.915H83.0585V52H84.8585V47.425C84.8585 46.165 85.6085 45.445 86.7185 45.445H87.6935V43.825H86.9435ZM92.8053 43.735C91.8003 43.735 90.9603 44.14 90.5103 44.89V43.915H88.8153V52H90.6153V47.2C90.6153 46.105 91.3053 45.4 92.3403 45.4C93.3603 45.4 94.0503 46.105 94.0503 47.2V52H95.8503V46.75C95.8503 44.98 94.6053 43.735 92.8053 43.735ZM97.3832 42.85H99.1832V40.825H97.3832V42.85ZM97.3832 52H99.1832V43.915H97.3832V52ZM104.846 43.735C103.841 43.735 103.001 44.14 102.551 44.89V43.915H100.856V52H102.656V47.2C102.656 46.105 103.346 45.4 104.381 45.4C105.401 45.4 106.091 46.105 106.091 47.2V52H107.891V46.75C107.891 44.98 106.646 43.735 104.846 43.735ZM115.574 43.915V44.89C115.004 44.17 114.104 43.735 112.994 43.735C110.864 43.735 109.034 45.295 109.034 47.65C109.034 49.96 110.834 51.595 113.024 51.595C114.029 51.595 114.899 51.25 115.484 50.605V51.61C115.484 52.885 114.479 53.665 113.219 53.665C112.124 53.665 111.389 53.065 111.104 52.24L109.544 53.02C110.054 54.385 111.464 55.315 113.234 55.315C115.484 55.315 117.284 53.815 117.284 51.61V43.915H115.574ZM113.204 49.93C111.869 49.93 110.909 49 110.909 47.665C110.909 46.315 111.914 45.4 113.189 45.4C114.494 45.4 115.484 46.33 115.484 47.665C115.484 48.985 114.539 49.93 113.204 49.93ZM122.066 52.18C123.911 52.18 125.186 51.19 125.186 49.735C125.186 48.61 124.436 47.8 123.041 47.41L121.601 47.005C121.136 46.87 120.626 46.615 120.626 46.105C120.626 45.595 121.091 45.25 121.841 45.25C122.756 45.25 123.476 45.715 123.776 46.48L125.186 45.82C124.691 44.53 123.431 43.735 121.841 43.735C120.056 43.735 118.841 44.725 118.841 46.18C118.841 47.275 119.546 48.1 120.956 48.49L122.336 48.85C122.831 48.985 123.401 49.225 123.401 49.78C123.401 50.335 122.876 50.71 122.066 50.71C121.106 50.71 120.311 50.2 119.891 49.24L118.496 49.915C119.006 51.325 120.386 52.18 122.066 52.18Z" fill="#B8BAC3"/>
<rect x="285.242" y="127.959" width="4" height="254.199" rx="2" transform="rotate(90 285.242 127.959)" fill="#E9EAF0"/>
<rect x="285.242" y="148.959" width="4" height="254.199" rx="2" transform="rotate(90 285.242 148.959)" fill="#E9EAF0"/>
<rect x="285.242" y="169.959" width="4" height="254.199" rx="2" transform="rotate(90 285.242 169.959)" fill="#E9EAF0"/>
<rect x="285.242" y="190.959" width="4" height="254.199" rx="2" transform="rotate(90 285.242 190.959)" fill="#E9EAF0"/>
<rect x="285.242" y="211.959" width="4" height="254.199" rx="2" transform="rotate(90 285.242 211.959)" fill="#E9EAF0"/>
<rect x="285.242" y="232.959" width="4" height="254.199" rx="2" transform="rotate(90 285.242 232.959)" fill="#E9EAF0"/>
<rect x="285.242" y="253.959" width="4" height="254.199" rx="2" transform="rotate(90 285.242 253.959)" fill="#E9EAF0"/>
<rect x="285.242" y="274.959" width="4" height="254.199" rx="2" transform="rotate(90 285.242 274.959)" fill="#E9EAF0"/>
<rect x="106.82" y="127.959" width="4" height="75.7749" rx="2" transform="rotate(90 106.82 127.959)" fill="#0144E4"/>
<rect x="159.281" y="148.959" width="4" height="128.236" rx="2" transform="rotate(90 159.281 148.959)" fill="#FFCA42"/>
<rect x="122.215" y="169.959" width="4" height="91.1667" rx="2" transform="rotate(90 122.215 169.959)" fill="#0144E4"/>
<rect x="199.49" y="190.959" width="4" height="168.447" rx="2" transform="rotate(90 199.49 190.959)" fill="#FFCA42"/>
<rect x="238.176" y="211.959" width="4" height="207.13" rx="2" transform="rotate(90 238.176 211.959)" fill="#0144E4"/>
<rect x="159.281" y="232.959" width="4" height="128.235" rx="2" transform="rotate(90 159.281 232.959)" fill="#FFCA42"/>
<rect x="265.676" y="253.959" width="4" height="234.631" rx="2" transform="rotate(90 265.676 253.959)" fill="#0144E4"/>
<rect x="229.109" y="274.959" width="4" height="198.064" rx="2" transform="rotate(90 229.109 274.959)" fill="#FFCA42"/>
</svg>
