<svg width="538" height="480" viewBox="0 0 538 480" fill="none" xmlns="http://www.w3.org/2000/svg">
<circle cx="409.798" cy="362.665" r="102.055" fill="#F7F8FA"/>
<path d="M144.724 1.73205C146.58 0.660258 148.867 0.660254 150.724 1.73205L233.612 49.5878C235.469 50.6596 236.612 52.6404 236.612 54.784V150.495C236.612 152.639 235.469 154.62 233.612 155.692L150.724 203.547C148.867 204.619 146.58 204.619 144.724 203.547L61.8351 155.692C59.9787 154.62 58.8351 152.639 58.8351 150.495V54.784C58.8351 52.6404 59.9787 50.6596 61.8351 49.5878L144.724 1.73205Z" fill="#E1E6ED"/>
<path d="M284.413 419.191C390.99 419.191 477.387 332.794 477.387 226.217C477.387 119.641 390.99 33.2437 284.413 33.2437C177.837 33.2437 91.4395 119.641 91.4395 226.217C91.4395 332.794 177.837 419.191 284.413 419.191Z" stroke="#14192B" stroke-width="2" stroke-linecap="round" stroke-linejoin="round"/>
<path d="M420.871 362.665L536.774 478.568" stroke="#14192B" stroke-width="2" stroke-linecap="round" stroke-linejoin="round"/>
<rect x="1" y="101.578" width="336.276" height="249.279" rx="3" fill="white" stroke="#14192B" stroke-width="2"/>
<rect x="208.973" y="196.375" width="100.502" height="117.583" rx="3" fill="white" stroke="#14192B" stroke-width="2"/>
<rect x="24.373" y="196.375" width="169.821" height="117.583" rx="3" fill="white" stroke="#14192B" stroke-width="2"/>
<line x1="38.8809" y1="297.357" x2="38.8809" y2="272.597" stroke="#0144E4" stroke-width="2"/>
<line x1="52.7617" y1="297.358" x2="52.7617" y2="246.878" stroke="#0144E4" stroke-width="2"/>
<line x1="66.6426" y1="297.358" x2="66.6426" y2="256.018" stroke="#0144E4" stroke-width="2"/>
<line x1="80.5234" y1="297.358" x2="80.5234" y2="228.81" stroke="#0144E4" stroke-width="2"/>
<line x1="94.4043" y1="297.358" x2="94.4043" y2="239.863" stroke="#0144E4" stroke-width="2"/>
<line x1="108.283" y1="297.358" x2="108.283" y2="251.731" stroke="#0144E4" stroke-width="2"/>
<line x1="122.164" y1="297.358" x2="122.164" y2="220.218" stroke="#0144E4" stroke-width="2"/>
<line x1="136.045" y1="297.358" x2="136.045" y2="232.703" stroke="#0144E4" stroke-width="2"/>
<line x1="149.926" y1="297.358" x2="149.926" y2="212.976" stroke="#0144E4" stroke-width="2"/>
<line x1="163.807" y1="297.358" x2="163.807" y2="237.708" stroke="#0144E4" stroke-width="2"/>
<line x1="177.688" y1="297.358" x2="177.688" y2="220.217" stroke="#0144E4" stroke-width="2"/>
<circle cx="259.225" cy="255.167" r="37.4184" fill="white" stroke="black" stroke-width="2"/>
<mask id="path-20-inside-1" fill="white">
<path d="M237.261 223.646C231.005 228.006 226.187 234.128 223.422 241.235C220.656 248.342 220.069 256.11 221.733 263.552L259.225 255.167L237.261 223.646Z"/>
</mask>
<path d="M237.261 223.646C231.005 228.006 226.187 234.128 223.422 241.235C220.656 248.342 220.069 256.11 221.733 263.552L259.225 255.167L237.261 223.646Z" fill="#0149BC" stroke="#0144E4" stroke-width="4" mask="url(#path-20-inside-1)"/>
<line x1="23.373" y1="162.609" x2="187.976" y2="162.609" stroke="#14192B" stroke-width="2"/>
<line x1="23.373" y1="176.308" x2="87.4978" y2="176.308" stroke="#14192B" stroke-width="2"/>
<line x1="8.74228e-08" y1="135.045" x2="338.276" y2="135.045" stroke="#14192B" stroke-width="2"/>
<circle cx="28.7187" cy="118.311" r="5.34568" fill="white" stroke="#14192B" stroke-width="2"/>
<circle cx="48.3242" cy="118.311" r="5.34568" fill="white" stroke="#14192B" stroke-width="2"/>
<circle cx="67.9219" cy="118.311" r="5.34568" fill="white" stroke="#14192B" stroke-width="2"/>
</svg>
