<svg width="294" height="220" viewBox="0 0 294 220" fill="none" xmlns="http://www.w3.org/2000/svg">
<rect width="294" height="220" fill="white"/>
<path d="M217.592 7.8988C219.448 6.827 221.735 6.827 223.592 7.8988L267.813 33.4302C269.67 34.502 270.813 36.4828 270.813 38.6264V89.6892C270.813 91.8328 269.67 93.8136 267.813 94.8854L223.592 120.417C221.735 121.489 219.448 121.489 217.592 120.417L173.37 94.8854C171.514 93.8136 170.37 91.8328 170.37 89.6892V38.6264C170.37 36.4828 171.514 34.502 173.37 33.4302L217.592 7.8988Z" fill="#FC5656"/>
<rect opacity="0.58" x="41.0596" y="46.7024" width="189.735" height="141.018" rx="4" fill="#E9EAF0"/>
<rect x="55.4541" y="35.0769" width="188.841" height="140.018" rx="3.5" fill="white" stroke="#14192B"/>
<rect x="68.5557" y="62.8728" width="162.637" height="46.7532" rx="3.5" fill="white" stroke="#14192B"/>
<rect x="68.5557" y="116.626" width="66.3649" height="46.7532" rx="3.5" fill="white" stroke="#14192B"/>
<circle cx="94.5264" cy="140.003" r="18.3751" fill="white" stroke="#14192B"/>
<mask id="path-8-inside-1" fill="white">
<path d="M99.243 158.279C101.865 157.602 104.311 156.369 106.414 154.664C108.517 152.959 110.229 150.821 111.433 148.395C112.637 145.97 113.305 143.313 113.392 140.607C113.479 137.901 112.982 135.207 111.936 132.71L94.5264 140.003L99.243 158.279Z"/>
</mask>
<path d="M99.243 158.279C101.865 157.602 104.311 156.369 106.414 154.664C108.517 152.959 110.229 150.821 111.433 148.395C112.637 145.97 113.305 143.313 113.392 140.607C113.479 137.901 112.982 135.207 111.936 132.71L94.5264 140.003L99.243 158.279Z" fill="#FC5656" stroke="#FC5656" stroke-width="2" mask="url(#path-8-inside-1)"/>
<rect x="141.927" y="116.626" width="89.5" height="46.7532" rx="3.5" fill="white" stroke="#14192B"/>
<line x1="148.314" y1="124.798" x2="170.962" y2="124.798" stroke="#FC5656"/>
<line x1="148.314" y1="131.78" x2="205.091" y2="131.78" stroke="#FC5656"/>
<line x1="148.314" y1="139.707" x2="217.11" y2="139.707" stroke="#FC5656"/>
<line x1="148.314" y1="147.247" x2="186.061" y2="147.247" stroke="#FC5656"/>
<line x1="148.314" y1="154.207" x2="223.454" y2="154.207" stroke="#FC5656"/>
<path d="M77.9033 104.151L88.3398 84.1235L121.625 95.4065L141.088 77.6358L160.551 84.1235L180.86 71.4302L207.18 93.0077L223.454 71.4302" stroke="#14192B"/>
<circle cx="88.9375" cy="84.6001" r="3.5" fill="#FC5656"/>
<circle cx="121.954" cy="95.5146" r="3.5" fill="#FC5656"/>
<circle cx="141.427" cy="77.5696" r="3.5" fill="#FC5656"/>
<circle cx="160.527" cy="84.8196" r="3.5" fill="#FC5656"/>
<circle cx="181.075" cy="71.8479" r="3.5" fill="#FC5656"/>
<circle cx="207.213" cy="92.8553" r="3.5" fill="#FC5656"/>
<line x1="54.9541" y1="53.9812" x2="244.795" y2="53.9812" stroke="#14192B"/>
<circle cx="71.0723" cy="44.5291" r="3" fill="white" stroke="#14192B"/>
<circle cx="82.0723" cy="44.5291" r="3" fill="white" stroke="#14192B"/>
<circle cx="93.0723" cy="44.5291" r="3" fill="white" stroke="#14192B"/>
</svg>
