<svg width="598" height="495" viewBox="0 0 598 495" fill="none" xmlns="http://www.w3.org/2000/svg">
<rect width="598" height="495" fill="white"/>
<rect opacity="0.38" x="0.102783" y="0.107666" width="597.28" height="494.162" fill="#E9EAF0"/>
<mask id="mask0" mask-type="alpha" maskUnits="userSpaceOnUse" x="0" y="0" width="598" height="495">
<rect x="0.102783" y="0.107666" width="597.28" height="494.162" fill="#E9EAF0"/>
</mask>
<g mask="url(#mask0)">
<g filter="url(#filter0_dd)">
<rect x="88.6562" y="52.4058" width="420.173" height="496.967" rx="6" fill="white"/>
</g>
<path d="M144.598 163.778H150.988V162.533H146.023V152.603H144.598V163.778Z" fill="#888B94"/>
<path d="M156.314 163.958C158.609 163.958 160.409 162.203 160.409 159.788C160.409 157.373 158.624 155.648 156.314 155.648C154.004 155.648 152.219 157.373 152.219 159.788C152.219 162.203 154.019 163.958 156.314 163.958ZM156.314 162.713C154.769 162.713 153.584 161.468 153.584 159.803C153.584 158.138 154.769 156.893 156.314 156.893C157.859 156.893 159.044 158.138 159.044 159.803C159.044 161.468 157.859 162.713 156.314 162.713Z" fill="#888B94"/>
<path d="M165.481 155.738C164.521 155.738 163.756 156.083 163.336 156.818V155.828H162.091V163.778H163.381V159.038C163.381 157.718 164.146 156.968 165.286 156.968H166.126V155.738H165.481Z" fill="#888B94"/>
<path d="M174.786 159.458C174.786 157.433 173.346 155.648 171.081 155.648C168.861 155.648 167.211 157.388 167.211 159.788C167.211 162.188 168.906 163.958 171.186 163.958C172.821 163.958 174.111 163.073 174.606 161.978L173.481 161.378C173.061 162.188 172.326 162.788 171.201 162.788C169.806 162.788 168.621 161.768 168.561 160.193H174.726C174.771 159.938 174.786 159.683 174.786 159.458ZM168.591 159.083C168.771 157.643 169.836 156.788 171.081 156.788C172.251 156.788 173.346 157.763 173.361 159.083H168.591Z" fill="#888B94"/>
<path d="M184.827 155.648C183.717 155.648 182.787 156.158 182.277 157.058C181.797 156.188 180.882 155.648 179.787 155.648C178.842 155.648 178.032 156.053 177.582 156.743V155.828H176.322V163.778H177.612V158.963C177.612 157.703 178.362 156.893 179.487 156.893C180.627 156.893 181.362 157.688 181.362 158.963V163.778H182.652V158.963C182.652 157.703 183.402 156.893 184.527 156.893C185.667 156.893 186.402 157.688 186.402 158.963V163.778H187.692V158.543C187.692 156.863 186.477 155.648 184.827 155.648Z" fill="#888B94"/>
<path d="M192.278 154.358H193.568V152.603H192.278V154.358ZM192.278 163.778H193.568V155.828H192.278V163.778Z" fill="#888B94"/>
<path d="M199.691 155.648C198.461 155.648 197.381 156.173 196.841 157.043V155.828H195.581V166.778H196.871V162.683C197.456 163.478 198.491 163.958 199.661 163.958C201.926 163.958 203.711 162.203 203.711 159.788C203.711 157.373 201.926 155.648 199.691 155.648ZM199.616 162.713C198.026 162.713 196.871 161.483 196.871 159.803C196.871 158.123 198.041 156.893 199.616 156.893C201.176 156.893 202.346 158.123 202.346 159.803C202.346 161.483 201.191 162.713 199.616 162.713Z" fill="#888B94"/>
<path d="M208.159 163.958C209.869 163.958 211.054 163.013 211.054 161.633C211.054 160.568 210.334 159.788 208.999 159.398L207.649 158.993C206.959 158.783 206.509 158.423 206.509 157.883C206.509 157.253 207.079 156.833 207.934 156.833C208.879 156.833 209.629 157.328 209.959 158.183L211.039 157.658C210.574 156.413 209.404 155.648 207.934 155.648C206.284 155.648 205.174 156.578 205.174 157.958C205.174 159.038 205.864 159.803 207.199 160.178L208.504 160.538C209.239 160.748 209.719 161.063 209.719 161.633C209.719 162.293 209.089 162.773 208.159 162.773C207.169 162.773 206.314 162.248 205.909 161.243L204.814 161.783C205.324 163.133 206.599 163.958 208.159 163.958Z" fill="#888B94"/>
<path d="M217.694 155.828V160.643C217.694 161.888 216.899 162.713 215.729 162.713C214.529 162.713 213.749 161.903 213.749 160.643V155.828H212.459V160.883C212.459 162.578 213.719 163.958 215.444 163.958C216.404 163.958 217.259 163.553 217.724 162.863V163.778H218.984V155.828H217.694Z" fill="#888B94"/>
<path d="M229.614 155.648C228.504 155.648 227.574 156.158 227.064 157.058C226.584 156.188 225.669 155.648 224.574 155.648C223.629 155.648 222.819 156.053 222.369 156.743V155.828H221.109V163.778H222.399V158.963C222.399 157.703 223.149 156.893 224.274 156.893C225.414 156.893 226.149 157.688 226.149 158.963V163.778H227.439V158.963C227.439 157.703 228.189 156.893 229.314 156.893C230.454 156.893 231.189 157.688 231.189 158.963V163.778H232.479V158.543C232.479 156.863 231.264 155.648 229.614 155.648Z" fill="#888B94"/>
<path d="M243.575 152.603V156.998C243.005 156.158 241.94 155.648 240.74 155.648C238.505 155.648 236.735 157.403 236.735 159.803C236.735 162.203 238.49 163.958 240.755 163.958C241.955 163.958 243.02 163.478 243.605 162.623V163.778H244.865V152.603H243.575ZM240.83 162.713C239.255 162.713 238.1 161.483 238.1 159.803C238.1 158.138 239.255 156.893 240.83 156.893C242.405 156.893 243.575 158.138 243.575 159.803C243.575 161.483 242.405 162.713 240.83 162.713Z" fill="#888B94"/>
<path d="M250.633 163.958C252.928 163.958 254.728 162.203 254.728 159.788C254.728 157.373 252.943 155.648 250.633 155.648C248.323 155.648 246.538 157.373 246.538 159.788C246.538 162.203 248.338 163.958 250.633 163.958ZM250.633 162.713C249.088 162.713 247.903 161.468 247.903 159.803C247.903 158.138 249.088 156.893 250.633 156.893C252.178 156.893 253.363 158.138 253.363 159.803C253.363 161.468 252.178 162.713 250.633 162.713Z" fill="#888B94"/>
<path d="M256.411 163.778H257.701V152.603H256.411V163.778Z" fill="#888B94"/>
<path d="M263.473 163.958C265.768 163.958 267.568 162.203 267.568 159.788C267.568 157.373 265.783 155.648 263.473 155.648C261.163 155.648 259.378 157.373 259.378 159.788C259.378 162.203 261.178 163.958 263.473 163.958ZM263.473 162.713C261.928 162.713 260.743 161.468 260.743 159.803C260.743 158.138 261.928 156.893 263.473 156.893C265.018 156.893 266.203 158.138 266.203 159.803C266.203 161.468 265.018 162.713 263.473 162.713Z" fill="#888B94"/>
<path d="M272.64 155.738C271.68 155.738 270.915 156.083 270.495 156.818V155.828H269.25V163.778H270.54V159.038C270.54 157.718 271.305 156.968 272.445 156.968H273.285V155.738H272.64Z" fill="#888B94"/>
<path d="M280.323 163.958C282.033 163.958 283.218 163.013 283.218 161.633C283.218 160.568 282.498 159.788 281.163 159.398L279.813 158.993C279.123 158.783 278.673 158.423 278.673 157.883C278.673 157.253 279.243 156.833 280.098 156.833C281.043 156.833 281.793 157.328 282.123 158.183L283.203 157.658C282.738 156.413 281.568 155.648 280.098 155.648C278.448 155.648 277.338 156.578 277.338 157.958C277.338 159.038 278.028 159.803 279.363 160.178L280.668 160.538C281.403 160.748 281.883 161.063 281.883 161.633C281.883 162.293 281.253 162.773 280.323 162.773C279.333 162.773 278.478 162.248 278.073 161.243L276.978 161.783C277.488 163.133 278.763 163.958 280.323 163.958Z" fill="#888B94"/>
<path d="M284.653 154.358H285.943V152.603H284.653V154.358ZM284.653 163.778H285.943V155.828H284.653V163.778Z" fill="#888B94"/>
<path d="M291.285 163.868C291.51 163.868 291.825 163.853 292.08 163.793V162.743C291.915 162.773 291.69 162.788 291.525 162.788C290.16 162.788 290.07 161.858 290.07 161.348V157.058H291.99V155.828H290.07V153.248H288.78V154.658C288.78 155.363 288.33 155.828 287.64 155.828H287.235V157.058H288.78V161.348C288.78 162.953 289.68 163.868 291.285 163.868Z" fill="#888B94"/>
<path d="M299.548 155.648C298.078 155.648 296.788 156.488 296.338 157.568L297.493 158.168C297.838 157.388 298.588 156.878 299.548 156.878C300.598 156.878 301.348 157.478 301.348 158.393V158.618L298.588 159.233C296.983 159.593 296.038 160.403 296.038 161.573C296.038 162.968 297.178 163.958 298.873 163.958C299.893 163.958 300.838 163.463 301.378 162.668V163.778H302.638V158.393C302.638 156.773 301.363 155.648 299.548 155.648ZM298.948 162.803C298.003 162.803 297.403 162.323 297.403 161.573C297.403 160.928 297.988 160.433 298.888 160.238L301.348 159.668V160.358C301.348 161.753 300.343 162.803 298.948 162.803Z" fill="#888B94"/>
<path d="M312.98 155.648C311.87 155.648 310.94 156.158 310.43 157.058C309.95 156.188 309.035 155.648 307.94 155.648C306.995 155.648 306.185 156.053 305.735 156.743V155.828H304.475V163.778H305.765V158.963C305.765 157.703 306.515 156.893 307.64 156.893C308.78 156.893 309.515 157.688 309.515 158.963V163.778H310.805V158.963C310.805 157.703 311.555 156.893 312.68 156.893C313.82 156.893 314.555 157.688 314.555 158.963V163.778H315.845V158.543C315.845 156.863 314.63 155.648 312.98 155.648Z" fill="#888B94"/>
<path d="M324.948 159.458C324.948 157.433 323.508 155.648 321.243 155.648C319.023 155.648 317.373 157.388 317.373 159.788C317.373 162.188 319.068 163.958 321.348 163.958C322.983 163.958 324.273 163.073 324.768 161.978L323.643 161.378C323.223 162.188 322.488 162.788 321.363 162.788C319.968 162.788 318.783 161.768 318.723 160.193H324.888C324.933 159.938 324.948 159.683 324.948 159.458ZM318.753 159.083C318.933 157.643 319.998 156.788 321.243 156.788C322.413 156.788 323.508 157.763 323.523 159.083H318.753Z" fill="#888B94"/>
<path d="M329.814 163.868C330.039 163.868 330.354 163.853 330.609 163.793V162.743C330.444 162.773 330.219 162.788 330.054 162.788C328.689 162.788 328.599 161.858 328.599 161.348V157.058H330.519V155.828H328.599V153.248H327.309V154.658C327.309 155.363 326.859 155.828 326.169 155.828H325.764V157.058H327.309V161.348C327.309 162.953 328.209 163.868 329.814 163.868Z" fill="#888B94"/>
<path d="M332.603 165.563H333.563L334.613 162.008H333.188L332.603 165.563Z" fill="#888B94"/>
<path d="M343.467 163.958C345.012 163.958 346.347 163.028 346.842 161.858L345.687 161.258C345.297 162.128 344.502 162.713 343.467 162.713C341.967 162.713 340.857 161.453 340.857 159.803C340.857 158.123 341.967 156.893 343.467 156.893C344.502 156.893 345.297 157.478 345.687 158.348L346.842 157.748C346.347 156.563 345.027 155.648 343.467 155.648C341.187 155.648 339.492 157.403 339.492 159.788C339.492 162.173 341.187 163.958 343.467 163.958Z" fill="#888B94"/>
<path d="M352.013 163.958C354.308 163.958 356.108 162.203 356.108 159.788C356.108 157.373 354.323 155.648 352.013 155.648C349.703 155.648 347.918 157.373 347.918 159.788C347.918 162.203 349.718 163.958 352.013 163.958ZM352.013 162.713C350.468 162.713 349.283 161.468 349.283 159.803C349.283 158.138 350.468 156.893 352.013 156.893C353.558 156.893 354.743 158.138 354.743 159.803C354.743 161.468 353.558 162.713 352.013 162.713Z" fill="#888B94"/>
<path d="M361.345 155.648C360.37 155.648 359.515 156.053 359.05 156.743V155.828H357.79V163.778H359.08V158.963C359.08 157.718 359.875 156.893 361.06 156.893C362.26 156.893 363.025 157.703 363.025 158.963V163.778H364.315V158.543C364.315 156.878 363.07 155.648 361.345 155.648Z" fill="#888B94"/>
<path d="M369.065 163.958C370.775 163.958 371.96 163.013 371.96 161.633C371.96 160.568 371.24 159.788 369.905 159.398L368.555 158.993C367.865 158.783 367.415 158.423 367.415 157.883C367.415 157.253 367.985 156.833 368.84 156.833C369.785 156.833 370.535 157.328 370.865 158.183L371.945 157.658C371.48 156.413 370.31 155.648 368.84 155.648C367.19 155.648 366.08 156.578 366.08 157.958C366.08 159.038 366.77 159.803 368.105 160.178L369.41 160.538C370.145 160.748 370.625 161.063 370.625 161.633C370.625 162.293 369.995 162.773 369.065 162.773C368.075 162.773 367.22 162.248 366.815 161.243L365.72 161.783C366.23 163.133 367.505 163.958 369.065 163.958Z" fill="#888B94"/>
<path d="M380.64 159.458C380.64 157.433 379.2 155.648 376.935 155.648C374.715 155.648 373.065 157.388 373.065 159.788C373.065 162.188 374.76 163.958 377.04 163.958C378.675 163.958 379.965 163.073 380.46 161.978L379.335 161.378C378.915 162.188 378.18 162.788 377.055 162.788C375.66 162.788 374.475 161.768 374.415 160.193H380.58C380.625 159.938 380.64 159.683 380.64 159.458ZM374.445 159.083C374.625 157.643 375.69 156.788 376.935 156.788C378.105 156.788 379.2 157.763 379.215 159.083H374.445Z" fill="#888B94"/>
<path d="M385.701 163.958C387.246 163.958 388.581 163.028 389.076 161.858L387.921 161.258C387.531 162.128 386.736 162.713 385.701 162.713C384.201 162.713 383.091 161.453 383.091 159.803C383.091 158.123 384.201 156.893 385.701 156.893C386.736 156.893 387.531 157.478 387.921 158.348L389.076 157.748C388.581 156.563 387.261 155.648 385.701 155.648C383.421 155.648 381.726 157.403 381.726 159.788C381.726 162.173 383.421 163.958 385.701 163.958Z" fill="#888B94"/>
<path d="M393.932 163.868C394.157 163.868 394.472 163.853 394.727 163.793V162.743C394.562 162.773 394.337 162.788 394.172 162.788C392.807 162.788 392.717 161.858 392.717 161.348V157.058H394.637V155.828H392.717V153.248H391.427V154.658C391.427 155.363 390.977 155.828 390.287 155.828H389.882V157.058H391.427V161.348C391.427 162.953 392.327 163.868 393.932 163.868Z" fill="#888B94"/>
<path d="M403.297 159.458C403.297 157.433 401.857 155.648 399.592 155.648C397.372 155.648 395.722 157.388 395.722 159.788C395.722 162.188 397.417 163.958 399.697 163.958C401.332 163.958 402.622 163.073 403.117 161.978L401.992 161.378C401.572 162.188 400.837 162.788 399.712 162.788C398.317 162.788 397.132 161.768 397.072 160.193H403.237C403.282 159.938 403.297 159.683 403.297 159.458ZM397.102 159.083C397.282 157.643 398.347 156.788 399.592 156.788C400.762 156.788 401.857 157.763 401.872 159.083H397.102Z" fill="#888B94"/>
<path d="M408.163 163.868C408.388 163.868 408.703 163.853 408.958 163.793V162.743C408.793 162.773 408.568 162.788 408.403 162.788C407.038 162.788 406.948 161.858 406.948 161.348V157.058H408.868V155.828H406.948V153.248H405.658V154.658C405.658 155.363 405.208 155.828 404.518 155.828H404.113V157.058H405.658V161.348C405.658 162.953 406.558 163.868 408.163 163.868Z" fill="#888B94"/>
<path d="M415.722 155.828V160.643C415.722 161.888 414.927 162.713 413.757 162.713C412.557 162.713 411.777 161.903 411.777 160.643V155.828H410.487V160.883C410.487 162.578 411.747 163.958 413.472 163.958C414.432 163.958 415.287 163.553 415.752 162.863V163.778H417.012V155.828H415.722Z" fill="#888B94"/>
<path d="M422.527 155.738C421.567 155.738 420.802 156.083 420.382 156.818V155.828H419.137V163.778H420.427V159.038C420.427 157.718 421.192 156.968 422.332 156.968H423.172V155.738H422.527Z" fill="#888B94"/>
<path d="M430.495 155.648C429.025 155.648 427.735 156.488 427.285 157.568L428.44 158.168C428.785 157.388 429.535 156.878 430.495 156.878C431.545 156.878 432.295 157.478 432.295 158.393V158.618L429.535 159.233C427.93 159.593 426.985 160.403 426.985 161.573C426.985 162.968 428.125 163.958 429.82 163.958C430.84 163.958 431.785 163.463 432.325 162.668V163.778H433.585V158.393C433.585 156.773 432.31 155.648 430.495 155.648ZM429.895 162.803C428.95 162.803 428.35 162.323 428.35 161.573C428.35 160.928 428.935 160.433 429.835 160.238L432.295 159.668V160.358C432.295 161.753 431.29 162.803 429.895 162.803Z" fill="#888B94"/>
<path d="M441.812 152.603V156.998C441.242 156.158 440.177 155.648 438.977 155.648C436.742 155.648 434.972 157.403 434.972 159.803C434.972 162.203 436.727 163.958 438.992 163.958C440.192 163.958 441.257 163.478 441.842 162.623V163.778H443.102V152.603H441.812ZM439.067 162.713C437.492 162.713 436.337 161.483 436.337 159.803C436.337 158.138 437.492 156.893 439.067 156.893C440.642 156.893 441.812 158.138 441.812 159.803C441.812 161.483 440.642 162.713 439.067 162.713Z" fill="#888B94"/>
<path d="M445.105 154.358H446.395V152.603H445.105V154.358ZM445.105 163.778H446.395V155.828H445.105V163.778Z" fill="#888B94"/>
<path d="M452.517 155.648C451.287 155.648 450.207 156.173 449.667 157.043V155.828H448.407V166.778H449.697V162.683C450.282 163.478 451.317 163.958 452.487 163.958C454.752 163.958 456.537 162.203 456.537 159.788C456.537 157.373 454.752 155.648 452.517 155.648ZM452.442 162.713C450.852 162.713 449.697 161.483 449.697 159.803C449.697 158.123 450.867 156.893 452.442 156.893C454.002 156.893 455.172 158.123 455.172 159.803C455.172 161.483 454.017 162.713 452.442 162.713Z" fill="#888B94"/>
<path d="M218.681 132.976C221.821 132.976 224.141 131.176 224.901 129.096L222.661 128.016C222.041 129.596 220.621 130.696 218.681 130.696C215.781 130.696 213.781 128.496 213.781 125.276C213.781 122.076 215.781 119.876 218.681 119.876C220.621 119.876 222.041 120.976 222.661 122.556L224.901 121.476C224.141 119.396 221.821 117.596 218.681 117.596C214.401 117.596 211.261 120.836 211.261 125.276C211.261 129.716 214.421 132.976 218.681 132.976Z" fill="#14192B"/>
<path d="M232.395 121.836C231.075 121.836 230.035 122.276 229.475 123.456V121.956H227.215V132.736H229.615V126.636C229.615 124.956 230.615 123.996 232.095 123.996H233.395V121.836H232.395Z" fill="#14192B"/>
<path d="M245.231 126.956C245.231 124.096 243.071 121.716 240.031 121.716C236.991 121.716 234.691 124.096 234.691 127.336C234.691 130.496 236.951 132.976 240.211 132.976C242.411 132.976 244.171 131.856 244.831 130.316L242.851 129.356C242.371 130.236 241.511 130.856 240.231 130.856C238.571 130.856 237.311 129.756 237.191 128.036H245.111C245.191 127.716 245.231 127.336 245.231 126.956ZM237.231 126.176C237.511 124.596 238.631 123.716 240.031 123.716C241.411 123.716 242.571 124.736 242.651 126.176H237.231Z" fill="#14192B"/>
<path d="M251.516 121.716C249.376 121.716 247.576 122.856 246.956 124.496L249.036 125.536C249.436 124.516 250.356 123.876 251.516 123.876C252.716 123.876 253.536 124.536 253.536 125.536V125.876L249.996 126.636C247.816 127.116 246.556 128.176 246.556 129.776C246.556 131.616 248.076 132.976 250.476 132.976C251.776 132.976 252.876 132.496 253.676 131.536V132.736H255.936V125.536C255.936 123.296 254.136 121.716 251.516 121.716ZM250.756 131.076C249.716 131.076 249.056 130.576 249.056 129.756C249.056 129.096 249.576 128.576 250.476 128.376L253.536 127.696V128.396C253.536 129.916 252.356 131.076 250.756 131.076Z" fill="#14192B"/>
<path d="M263.119 132.856C263.499 132.856 263.979 132.816 264.359 132.756V130.836C264.099 130.876 263.839 130.896 263.639 130.896C262.119 130.896 261.739 130.036 261.739 129.116V124.116H264.299V121.956H261.739V118.616H259.339V120.336C259.339 121.376 258.739 121.956 257.699 121.956H257.379V124.116H259.339V129.116C259.339 131.496 260.699 132.856 263.119 132.856Z" fill="#14192B"/>
<path d="M276.236 126.956C276.236 124.096 274.076 121.716 271.036 121.716C267.996 121.716 265.696 124.096 265.696 127.336C265.696 130.496 267.956 132.976 271.216 132.976C273.416 132.976 275.176 131.856 275.836 130.316L273.856 129.356C273.376 130.236 272.516 130.856 271.236 130.856C269.576 130.856 268.316 129.756 268.196 128.036H276.116C276.196 127.716 276.236 127.336 276.236 126.956ZM268.236 126.176C268.516 124.596 269.636 123.716 271.036 123.716C272.416 123.716 273.576 124.736 273.656 126.176H268.236Z" fill="#14192B"/>
<path d="M286.436 121.716C284.296 121.716 282.496 122.856 281.876 124.496L283.956 125.536C284.356 124.516 285.276 123.876 286.436 123.876C287.636 123.876 288.456 124.536 288.456 125.536V125.876L284.916 126.636C282.736 127.116 281.476 128.176 281.476 129.776C281.476 131.616 282.996 132.976 285.396 132.976C286.696 132.976 287.796 132.496 288.596 131.536V132.736H290.856V125.536C290.856 123.296 289.056 121.716 286.436 121.716ZM285.676 131.076C284.636 131.076 283.976 130.576 283.976 129.756C283.976 129.096 284.496 128.576 285.396 128.376L288.456 127.696V128.396C288.456 129.916 287.276 131.076 285.676 131.076Z" fill="#14192B"/>
<path d="M302.415 121.716C301.075 121.716 299.955 122.256 299.355 123.256V121.956H297.095V132.736H299.495V126.336C299.495 124.876 300.415 123.936 301.795 123.936C303.155 123.936 304.075 124.876 304.075 126.336V132.736H306.475V125.736C306.475 123.376 304.815 121.716 302.415 121.716Z" fill="#14192B"/>
<path d="M318.939 126.956C318.939 124.096 316.779 121.716 313.739 121.716C310.699 121.716 308.399 124.096 308.399 127.336C308.399 130.496 310.659 132.976 313.919 132.976C316.119 132.976 317.879 131.856 318.539 130.316L316.559 129.356C316.079 130.236 315.219 130.856 313.939 130.856C312.279 130.856 311.019 129.756 310.899 128.036H318.819C318.899 127.716 318.939 127.336 318.939 126.956ZM310.939 126.176C311.219 124.596 312.339 123.716 313.739 123.716C315.119 123.716 316.279 124.736 316.359 126.176H310.939Z" fill="#14192B"/>
<path d="M334.164 121.956L331.904 129.196L329.624 121.956H326.964L324.684 129.196L322.404 121.956H319.864L323.584 132.736H325.744L328.304 125.016L330.844 132.736H332.984L336.724 121.956H334.164Z" fill="#14192B"/>
<path d="M348.187 121.716C346.667 121.716 345.367 122.316 344.627 123.316V121.956H342.367V136.736H344.767V131.636C345.527 132.476 346.747 132.976 348.167 132.976C351.247 132.976 353.647 130.536 353.647 127.336C353.647 124.136 351.227 121.716 348.187 121.716ZM347.947 130.756C346.087 130.756 344.767 129.336 344.767 127.356C344.767 125.356 346.087 123.936 347.947 123.936C349.787 123.936 351.147 125.376 351.147 127.356C351.147 129.316 349.787 130.756 347.947 130.756Z" fill="#14192B"/>
<path d="M355.675 120.536H358.075V117.836H355.675V120.536ZM355.675 132.736H358.075V121.956H355.675V132.736Z" fill="#14192B"/>
<path d="M370.266 121.956H367.466L365.026 125.476L362.606 121.956H359.806L363.606 127.336L359.806 132.736H362.626L365.026 129.216L367.426 132.736H370.246L366.446 127.336L370.266 121.956Z" fill="#14192B"/>
<path d="M381.612 126.956C381.612 124.096 379.452 121.716 376.412 121.716C373.372 121.716 371.072 124.096 371.072 127.336C371.072 130.496 373.332 132.976 376.592 132.976C378.792 132.976 380.552 131.856 381.212 130.316L379.232 129.356C378.752 130.236 377.892 130.856 376.612 130.856C374.952 130.856 373.692 129.756 373.572 128.036H381.492C381.572 127.716 381.612 127.336 381.612 126.956ZM373.612 126.176C373.892 124.596 375.012 123.716 376.412 123.716C377.792 123.716 378.952 124.736 379.032 126.176H373.612Z" fill="#14192B"/>
<path d="M383.537 132.736H385.937V117.836H383.537V132.736Z" fill="#14192B"/>
<rect x="125.551" y="222.474" width="346.664" height="55.311" rx="5.5" fill="white" stroke="#D8DAE3"/>
<path d="M159.098 244.125L156.593 253.41L154.133 244.125H152.423L149.963 253.44L147.458 244.125H145.973L149.093 255.3H150.713L153.263 245.955L155.798 255.3H157.433L160.553 244.125H159.098Z" fill="#888B94"/>
<path d="M168.831 250.98C168.831 248.955 167.391 247.17 165.126 247.17C162.906 247.17 161.256 248.91 161.256 251.31C161.256 253.71 162.951 255.48 165.231 255.48C166.866 255.48 168.156 254.595 168.651 253.5L167.526 252.9C167.106 253.71 166.371 254.31 165.246 254.31C163.851 254.31 162.666 253.29 162.606 251.715H168.771C168.816 251.46 168.831 251.205 168.831 250.98ZM162.636 250.605C162.816 249.165 163.881 248.31 165.126 248.31C166.296 248.31 167.391 249.285 167.406 250.605H162.636Z" fill="#888B94"/>
<path d="M174.492 247.17C173.277 247.17 172.212 247.68 171.657 248.52V244.125H170.367V255.3H171.627V254.145C172.212 255 173.292 255.48 174.477 255.48C176.727 255.48 178.497 253.725 178.497 251.325C178.497 248.925 176.727 247.17 174.492 247.17ZM174.402 254.235C172.827 254.235 171.657 253.005 171.657 251.325C171.657 249.66 172.827 248.415 174.402 248.415C175.962 248.415 177.132 249.66 177.132 251.325C177.132 253.005 175.962 254.235 174.402 254.235Z" fill="#888B94"/>
<path d="M182.946 255.48C184.656 255.48 185.841 254.535 185.841 253.155C185.841 252.09 185.121 251.31 183.786 250.92L182.436 250.515C181.746 250.305 181.296 249.945 181.296 249.405C181.296 248.775 181.866 248.355 182.721 248.355C183.666 248.355 184.416 248.85 184.746 249.705L185.826 249.18C185.361 247.935 184.191 247.17 182.721 247.17C181.071 247.17 179.961 248.1 179.961 249.48C179.961 250.56 180.651 251.325 181.986 251.7L183.291 252.06C184.026 252.27 184.506 252.585 184.506 253.155C184.506 253.815 183.876 254.295 182.946 254.295C181.956 254.295 181.101 253.77 180.696 252.765L179.601 253.305C180.111 254.655 181.386 255.48 182.946 255.48Z" fill="#888B94"/>
<path d="M187.276 245.88H188.566V244.125H187.276V245.88ZM187.276 255.3H188.566V247.35H187.276V255.3Z" fill="#888B94"/>
<path d="M193.908 255.39C194.133 255.39 194.448 255.375 194.703 255.315V254.265C194.538 254.295 194.313 254.31 194.148 254.31C192.783 254.31 192.693 253.38 192.693 252.87V248.58H194.613V247.35H192.693V244.77H191.403V246.18C191.403 246.885 190.953 247.35 190.263 247.35H189.858V248.58H191.403V252.87C191.403 254.475 192.303 255.39 193.908 255.39Z" fill="#888B94"/>
<path d="M203.273 250.98C203.273 248.955 201.833 247.17 199.568 247.17C197.348 247.17 195.698 248.91 195.698 251.31C195.698 253.71 197.393 255.48 199.673 255.48C201.308 255.48 202.598 254.595 203.093 253.5L201.968 252.9C201.548 253.71 200.813 254.31 199.688 254.31C198.293 254.31 197.108 253.29 197.048 251.715H203.213C203.258 251.46 203.273 251.205 203.273 250.98ZM197.078 250.605C197.258 249.165 198.323 248.31 199.568 248.31C200.738 248.31 201.833 249.285 201.848 250.605H197.078Z" fill="#888B94"/>
<path d="M207.687 255.3H209.112V251.01H211.677C213.972 251.01 215.517 249.66 215.517 247.575C215.517 245.475 213.957 244.125 211.677 244.125H207.687V255.3ZM209.112 249.765V245.37H211.677C213.102 245.37 214.047 246.255 214.047 247.56C214.047 248.88 213.102 249.765 211.677 249.765H209.112Z" fill="#888B94"/>
<path d="M217.147 245.88H218.437V244.125H217.147V245.88ZM217.147 255.3H218.437V247.35H217.147V255.3Z" fill="#888B94"/>
<path d="M226.974 247.35H225.444L223.374 250.305L221.304 247.35H219.774L222.594 251.325L219.774 255.3H221.304L223.374 252.345L225.429 255.3H226.959L224.139 251.325L226.974 247.35Z" fill="#888B94"/>
<path d="M235.268 250.98C235.268 248.955 233.828 247.17 231.563 247.17C229.343 247.17 227.693 248.91 227.693 251.31C227.693 253.71 229.388 255.48 231.668 255.48C233.303 255.48 234.593 254.595 235.088 253.5L233.963 252.9C233.543 253.71 232.808 254.31 231.683 254.31C230.288 254.31 229.103 253.29 229.043 251.715H235.208C235.253 251.46 235.268 251.205 235.268 250.98ZM229.073 250.605C229.253 249.165 230.318 248.31 231.563 248.31C232.733 248.31 233.828 249.285 233.843 250.605H229.073Z" fill="#888B94"/>
<path d="M236.804 255.3H238.094V244.125H236.804V255.3Z" fill="#888B94"/>
<path d="M126.071 208.555H127.961V204.385H130.376C132.656 204.385 134.276 203.095 134.276 200.89C134.276 198.67 132.671 197.38 130.376 197.38H126.071V208.555ZM127.961 202.735V199.045H130.376C131.561 199.045 132.356 199.78 132.356 200.89C132.356 202 131.561 202.735 130.376 202.735H127.961Z" fill="#14192B"/>
<path d="M135.737 199.405H137.537V197.38H135.737V199.405ZM135.737 208.555H137.537V200.47H135.737V208.555Z" fill="#14192B"/>
<path d="M146.53 200.47H144.43L142.6 203.11L140.785 200.47H138.685L141.535 204.505L138.685 208.555H140.8L142.6 205.915L144.4 208.555H146.515L143.665 204.505L146.53 200.47Z" fill="#14192B"/>
<path d="M154.89 204.22C154.89 202.075 153.27 200.29 150.99 200.29C148.71 200.29 146.985 202.075 146.985 204.505C146.985 206.875 148.68 208.735 151.125 208.735C152.775 208.735 154.095 207.895 154.59 206.74L153.105 206.02C152.745 206.68 152.1 207.145 151.14 207.145C149.895 207.145 148.95 206.32 148.86 205.03H154.8C154.86 204.79 154.89 204.505 154.89 204.22ZM148.89 203.635C149.1 202.45 149.94 201.79 150.99 201.79C152.025 201.79 152.895 202.555 152.955 203.635H148.89Z" fill="#14192B"/>
<path d="M156.184 208.555H157.984V197.38H156.184V208.555Z" fill="#14192B"/>
<path d="M169.761 197.38V204.895L164.301 197.38H162.801V208.555H164.691V200.965L170.151 208.555H171.666V197.38H169.761Z" fill="#14192B"/>
<path d="M176.955 200.29C175.35 200.29 174 201.145 173.535 202.375L175.095 203.155C175.395 202.39 176.085 201.91 176.955 201.91C177.855 201.91 178.47 202.405 178.47 203.155V203.41L175.815 203.98C174.18 204.34 173.235 205.135 173.235 206.335C173.235 207.715 174.375 208.735 176.175 208.735C177.15 208.735 177.975 208.375 178.575 207.655V208.555H180.27V203.155C180.27 201.475 178.92 200.29 176.955 200.29ZM176.385 207.31C175.605 207.31 175.11 206.935 175.11 206.32C175.11 205.825 175.5 205.435 176.175 205.285L178.47 204.775V205.3C178.47 206.44 177.585 207.31 176.385 207.31Z" fill="#14192B"/>
<path d="M190.727 200.29C189.617 200.29 188.687 200.8 188.207 201.625C187.697 200.785 186.812 200.29 185.732 200.29C184.757 200.29 183.977 200.695 183.557 201.46V200.47H181.862V208.555H183.662V203.755C183.662 202.63 184.292 201.955 185.237 201.955C186.197 201.955 186.827 202.63 186.827 203.755V208.555H188.627V203.755C188.627 202.63 189.272 201.955 190.217 201.955C191.177 201.955 191.807 202.63 191.807 203.755V208.555H193.607V203.305C193.607 201.505 192.407 200.29 190.727 200.29Z" fill="#14192B"/>
<path d="M202.797 204.22C202.797 202.075 201.177 200.29 198.897 200.29C196.617 200.29 194.892 202.075 194.892 204.505C194.892 206.875 196.587 208.735 199.032 208.735C200.682 208.735 202.002 207.895 202.497 206.74L201.012 206.02C200.652 206.68 200.007 207.145 199.047 207.145C197.802 207.145 196.857 206.32 196.767 205.03H202.707C202.767 204.79 202.797 204.505 202.797 204.22ZM196.797 203.635C197.007 202.45 197.847 201.79 198.897 201.79C199.932 201.79 200.802 202.555 200.862 203.635H196.797Z" fill="#14192B"/>
<rect x="125.551" y="331.205" width="346.664" height="55.311" rx="5.5" fill="white" stroke="#D8DAE3"/>
<path d="M149.828 364.119C150.053 364.119 150.368 364.104 150.623 364.044V362.994C150.458 363.024 150.233 363.039 150.068 363.039C148.703 363.039 148.613 362.109 148.613 361.599V357.309H150.533V356.079H148.613V353.499H147.323V354.909C147.323 355.614 146.873 356.079 146.183 356.079H145.778V357.309H147.323V361.599C147.323 363.204 148.223 364.119 149.828 364.119Z" fill="#888B94"/>
<path d="M159.193 359.709C159.193 357.684 157.753 355.899 155.488 355.899C153.268 355.899 151.618 357.639 151.618 360.039C151.618 362.439 153.313 364.209 155.593 364.209C157.228 364.209 158.518 363.324 159.013 362.229L157.888 361.629C157.468 362.439 156.733 363.039 155.608 363.039C154.213 363.039 153.028 362.019 152.968 360.444H159.133C159.178 360.189 159.193 359.934 159.193 359.709ZM152.998 359.334C153.178 357.894 154.243 357.039 155.488 357.039C156.658 357.039 157.753 358.014 157.768 359.334H152.998Z" fill="#888B94"/>
<path d="M164.253 364.209C165.798 364.209 167.133 363.279 167.628 362.109L166.473 361.509C166.083 362.379 165.288 362.964 164.253 362.964C162.753 362.964 161.643 361.704 161.643 360.054C161.643 358.374 162.753 357.144 164.253 357.144C165.288 357.144 166.083 357.729 166.473 358.599L167.628 357.999C167.133 356.814 165.813 355.899 164.253 355.899C161.973 355.899 160.278 357.654 160.278 360.039C160.278 362.424 161.973 364.209 164.253 364.209Z" fill="#888B94"/>
<path d="M172.71 355.899C171.75 355.899 170.925 356.289 170.445 356.949V352.854H169.155V364.029H170.445V359.214C170.445 357.969 171.24 357.144 172.425 357.144C173.625 357.144 174.39 357.969 174.39 359.214V364.029H175.68V358.809C175.68 357.129 174.435 355.899 172.71 355.899Z" fill="#888B94"/>
<path d="M181.209 355.899C180.234 355.899 179.379 356.304 178.914 356.994V356.079H177.654V364.029H178.944V359.214C178.944 357.969 179.739 357.144 180.924 357.144C182.124 357.144 182.889 357.954 182.889 359.214V364.029H184.179V358.794C184.179 357.129 182.934 355.899 181.209 355.899Z" fill="#888B94"/>
<path d="M189.799 364.209C192.094 364.209 193.894 362.454 193.894 360.039C193.894 357.624 192.109 355.899 189.799 355.899C187.489 355.899 185.704 357.624 185.704 360.039C185.704 362.454 187.504 364.209 189.799 364.209ZM189.799 362.964C188.254 362.964 187.069 361.719 187.069 360.054C187.069 358.389 188.254 357.144 189.799 357.144C191.344 357.144 192.529 358.389 192.529 360.054C192.529 361.719 191.344 362.964 189.799 362.964Z" fill="#888B94"/>
<path d="M195.577 364.029H196.867V352.854H195.577V364.029Z" fill="#888B94"/>
<path d="M202.638 364.209C204.933 364.209 206.733 362.454 206.733 360.039C206.733 357.624 204.948 355.899 202.638 355.899C200.328 355.899 198.543 357.624 198.543 360.039C198.543 362.454 200.343 364.209 202.638 364.209ZM202.638 362.964C201.093 362.964 199.908 361.719 199.908 360.054C199.908 358.389 201.093 357.144 202.638 357.144C204.183 357.144 205.368 358.389 205.368 360.054C205.368 361.719 204.183 362.964 202.638 362.964Z" fill="#888B94"/>
<path d="M214.551 356.079V357.174C213.996 356.379 213.021 355.899 211.851 355.899C209.691 355.899 207.966 357.534 207.966 359.754C207.966 361.944 209.706 363.624 211.866 363.624C212.976 363.624 213.936 363.204 214.521 362.469V363.699C214.521 365.214 213.336 366.084 211.941 366.084C210.711 366.084 209.931 365.409 209.616 364.644L208.476 365.259C208.986 366.459 210.291 367.329 211.971 367.329C214.176 367.329 215.811 365.799 215.811 363.699V356.079H214.551ZM211.926 362.379C210.396 362.379 209.331 361.299 209.331 359.754C209.331 358.179 210.456 357.144 211.911 357.144C213.426 357.144 214.521 358.239 214.521 359.754C214.521 361.254 213.471 362.379 211.926 362.379Z" fill="#888B94"/>
<path d="M223.551 356.064L221.106 362.214L218.661 356.064H217.191L220.371 363.954L220.026 364.779C219.786 365.334 219.486 366.054 218.316 366.054C218.001 366.054 217.641 366.009 217.491 365.964V367.119C217.791 367.239 218.181 367.284 218.541 367.284C220.401 367.284 220.971 366.024 221.376 365.019L225.051 356.064H223.551Z" fill="#888B94"/>
<path d="M226.29 364.029H227.7V362.259H226.29V364.029Z" fill="#888B94"/>
<path d="M233.821 364.209C235.366 364.209 236.701 363.279 237.196 362.109L236.041 361.509C235.651 362.379 234.856 362.964 233.821 362.964C232.321 362.964 231.211 361.704 231.211 360.054C231.211 358.374 232.321 357.144 233.821 357.144C234.856 357.144 235.651 357.729 236.041 358.599L237.196 357.999C236.701 356.814 235.381 355.899 233.821 355.899C231.541 355.899 229.846 357.654 229.846 360.039C229.846 362.424 231.541 364.209 233.821 364.209Z" fill="#888B94"/>
<path d="M242.368 364.209C244.663 364.209 246.463 362.454 246.463 360.039C246.463 357.624 244.678 355.899 242.368 355.899C240.058 355.899 238.273 357.624 238.273 360.039C238.273 362.454 240.073 364.209 242.368 364.209ZM242.368 362.964C240.823 362.964 239.638 361.719 239.638 360.054C239.638 358.389 240.823 357.144 242.368 357.144C243.913 357.144 245.098 358.389 245.098 360.054C245.098 361.719 243.913 362.964 242.368 362.964Z" fill="#888B94"/>
<path d="M256.65 355.899C255.54 355.899 254.61 356.409 254.1 357.309C253.62 356.439 252.705 355.899 251.61 355.899C250.665 355.899 249.855 356.304 249.405 356.994V356.079H248.145V364.029H249.435V359.214C249.435 357.954 250.185 357.144 251.31 357.144C252.45 357.144 253.185 357.939 253.185 359.214V364.029H254.475V359.214C254.475 357.954 255.225 357.144 256.35 357.144C257.49 357.144 258.225 357.939 258.225 359.214V364.029H259.515V358.794C259.515 357.114 258.3 355.899 256.65 355.899Z" fill="#888B94"/>
<path d="M138.326 306.11L136.121 314.795L134.021 306.11H131.726L129.626 314.795L127.436 306.11H125.396L128.321 317.285H130.691L132.836 308.645L134.966 317.285H137.336L140.276 306.11H138.326Z" fill="#14192B"/>
<path d="M148.628 312.95C148.628 310.805 147.008 309.02 144.728 309.02C142.448 309.02 140.723 310.805 140.723 313.235C140.723 315.605 142.418 317.465 144.863 317.465C146.513 317.465 147.833 316.625 148.328 315.47L146.843 314.75C146.483 315.41 145.838 315.875 144.878 315.875C143.633 315.875 142.688 315.05 142.598 313.76H148.538C148.598 313.52 148.628 313.235 148.628 312.95ZM142.628 312.365C142.838 311.18 143.678 310.52 144.728 310.52C145.763 310.52 146.633 311.285 146.693 312.365H142.628Z" fill="#14192B"/>
<path d="M154.302 309.02C153.207 309.02 152.292 309.41 151.722 310.085V306.11H149.922V317.285H151.617V316.325C152.202 317.06 153.177 317.465 154.287 317.465C156.597 317.465 158.382 315.635 158.382 313.25C158.382 310.85 156.582 309.02 154.302 309.02ZM154.107 315.8C152.712 315.8 151.722 314.75 151.722 313.25C151.722 311.765 152.712 310.685 154.107 310.685C155.487 310.685 156.507 311.765 156.507 313.25C156.507 314.735 155.487 315.8 154.107 315.8Z" fill="#14192B"/>
<path d="M162.873 317.465C164.718 317.465 165.993 316.475 165.993 315.02C165.993 313.895 165.243 313.085 163.848 312.695L162.408 312.29C161.943 312.155 161.433 311.9 161.433 311.39C161.433 310.88 161.898 310.535 162.648 310.535C163.563 310.535 164.283 311 164.583 311.765L165.993 311.105C165.498 309.815 164.238 309.02 162.648 309.02C160.863 309.02 159.648 310.01 159.648 311.465C159.648 312.56 160.353 313.385 161.763 313.775L163.143 314.135C163.638 314.27 164.208 314.51 164.208 315.065C164.208 315.62 163.683 315.995 162.873 315.995C161.913 315.995 161.118 315.485 160.698 314.525L159.303 315.2C159.813 316.61 161.193 317.465 162.873 317.465Z" fill="#14192B"/>
<path d="M167.315 308.135H169.115V306.11H167.315V308.135ZM167.315 317.285H169.115V309.2H167.315V317.285Z" fill="#14192B"/>
<path d="M174.583 317.375C174.868 317.375 175.228 317.345 175.513 317.3V315.86C175.318 315.89 175.123 315.905 174.973 315.905C173.833 315.905 173.548 315.26 173.548 314.57V310.82H175.468V309.2H173.548V306.695H171.748V307.985C171.748 308.765 171.298 309.2 170.518 309.2H170.278V310.82H171.748V314.57C171.748 316.355 172.768 317.375 174.583 317.375Z" fill="#14192B"/>
<path d="M184.271 312.95C184.271 310.805 182.651 309.02 180.371 309.02C178.091 309.02 176.366 310.805 176.366 313.235C176.366 315.605 178.061 317.465 180.506 317.465C182.156 317.465 183.476 316.625 183.971 315.47L182.486 314.75C182.126 315.41 181.481 315.875 180.521 315.875C179.276 315.875 178.331 315.05 178.241 313.76H184.181C184.241 313.52 184.271 313.235 184.271 312.95ZM178.271 312.365C178.481 311.18 179.321 310.52 180.371 310.52C181.406 310.52 182.276 311.285 182.336 312.365H178.271Z" fill="#14192B"/>
<path d="M195.281 306.11V313.325C195.281 314.75 194.276 315.755 192.851 315.755C191.411 315.755 190.406 314.765 190.406 313.325V306.11H188.501V313.325C188.501 315.725 190.226 317.465 192.851 317.465C195.461 317.465 197.201 315.725 197.201 313.325V306.11H195.281Z" fill="#14192B"/>
<path d="M199.374 317.285H201.264V313.115H203.574L205.929 317.285H208.089L205.509 312.785C206.784 312.275 207.579 311.165 207.579 309.62C207.579 307.4 205.974 306.11 203.679 306.11H199.374V317.285ZM201.264 311.465V307.775H203.679C204.864 307.775 205.659 308.51 205.659 309.62C205.659 310.73 204.864 311.465 203.679 311.465H201.264Z" fill="#14192B"/>
<path d="M209.734 317.285H216.634V315.62H211.624V306.11H209.734V317.285Z" fill="#14192B"/>
<rect x="124.383" y="407.015" width="349" height="56" rx="4" fill="#0144E4"/>
<path d="M262.103 441.167C264.551 441.167 266.343 439.711 266.951 438.159L265.591 437.503C265.031 438.895 263.783 439.823 262.103 439.823C259.559 439.823 257.767 437.855 257.767 435.023C257.767 432.191 259.559 430.207 262.103 430.207C263.783 430.207 265.031 431.151 265.591 432.543L266.951 431.887C266.343 430.335 264.551 428.863 262.103 428.863C258.711 428.863 256.247 431.455 256.247 435.023C256.247 438.575 258.727 441.167 262.103 441.167Z" fill="white"/>
<path d="M272.353 432.399C271.329 432.399 270.513 432.767 270.065 433.551V432.495H268.737V440.975H270.113V435.919C270.113 434.511 270.929 433.711 272.145 433.711H273.041V432.399H272.353Z" fill="white"/>
<path d="M282.118 436.367C282.118 434.207 280.582 432.303 278.166 432.303C275.798 432.303 274.038 434.159 274.038 436.719C274.038 439.279 275.846 441.167 278.278 441.167C280.022 441.167 281.398 440.223 281.926 439.055L280.726 438.415C280.278 439.279 279.494 439.919 278.294 439.919C276.806 439.919 275.542 438.831 275.478 437.151H282.054C282.102 436.879 282.118 436.607 282.118 436.367ZM275.51 435.967C275.702 434.431 276.838 433.519 278.166 433.519C279.414 433.519 280.582 434.559 280.598 435.967H275.51Z" fill="white"/>
<path d="M286.86 432.303C285.292 432.303 283.916 433.199 283.436 434.351L284.668 434.991C285.036 434.159 285.836 433.615 286.86 433.615C287.98 433.615 288.78 434.255 288.78 435.231V435.471L285.836 436.127C284.124 436.511 283.116 437.375 283.116 438.623C283.116 440.111 284.332 441.167 286.14 441.167C287.228 441.167 288.236 440.639 288.812 439.791V440.975H290.156V435.231C290.156 433.503 288.796 432.303 286.86 432.303ZM286.22 439.935C285.212 439.935 284.572 439.423 284.572 438.623C284.572 437.935 285.196 437.407 286.156 437.199L288.78 436.591V437.327C288.78 438.815 287.708 439.935 286.22 439.935Z" fill="white"/>
<path d="M295.507 441.071C295.747 441.071 296.083 441.055 296.355 440.991V439.871C296.179 439.903 295.939 439.919 295.763 439.919C294.307 439.919 294.211 438.927 294.211 438.383V433.807H296.259V432.495H294.211V429.743H292.835V431.247C292.835 431.999 292.355 432.495 291.619 432.495H291.187V433.807H292.835V438.383C292.835 440.095 293.795 441.071 295.507 441.071Z" fill="white"/>
<path d="M305.337 436.367C305.337 434.207 303.801 432.303 301.385 432.303C299.017 432.303 297.257 434.159 297.257 436.719C297.257 439.279 299.065 441.167 301.497 441.167C303.241 441.167 304.617 440.223 305.145 439.055L303.945 438.415C303.497 439.279 302.713 439.919 301.513 439.919C300.025 439.919 298.761 438.831 298.697 437.151H305.273C305.321 436.879 305.337 436.607 305.337 436.367ZM298.729 435.967C298.921 434.431 300.057 433.519 301.385 433.519C302.633 433.519 303.801 434.559 303.817 435.967H298.729Z" fill="white"/>
<path d="M309.725 440.975H311.245V436.399H313.981C316.429 436.399 318.077 434.959 318.077 432.735C318.077 430.495 316.413 429.055 313.981 429.055H309.725V440.975ZM311.245 435.071V430.383H313.981C315.501 430.383 316.509 431.327 316.509 432.719C316.509 434.127 315.501 435.071 313.981 435.071H311.245Z" fill="white"/>
<path d="M319.655 430.927H321.031V429.055H319.655V430.927ZM319.655 440.975H321.031V432.495H319.655V440.975Z" fill="white"/>
<path d="M329.978 432.495H328.346L326.138 435.647L323.93 432.495H322.298L325.306 436.735L322.298 440.975H323.93L326.138 437.823L328.33 440.975H329.962L326.954 436.735L329.978 432.495Z" fill="white"/>
<path d="M338.665 436.367C338.665 434.207 337.129 432.303 334.713 432.303C332.345 432.303 330.585 434.159 330.585 436.719C330.585 439.279 332.393 441.167 334.825 441.167C336.569 441.167 337.945 440.223 338.473 439.055L337.273 438.415C336.825 439.279 336.041 439.919 334.841 439.919C333.353 439.919 332.089 438.831 332.025 437.151H338.601C338.649 436.879 338.665 436.607 338.665 436.367ZM332.057 435.967C332.249 434.431 333.385 433.519 334.713 433.519C335.961 433.519 337.129 434.559 337.145 435.967H332.057Z" fill="white"/>
<path d="M340.143 440.975H341.519V429.055H340.143V440.975Z" fill="white"/>
</g>
<defs>
<filter id="filter0_dd" x="7.89399" y="7.30476" width="581.698" height="658.492" filterUnits="userSpaceOnUse" color-interpolation-filters="sRGB">
<feFlood flood-opacity="0" result="BackgroundImageFix"/>
<feColorMatrix in="SourceAlpha" type="matrix" values="0 0 0 0 0 0 0 0 0 0 0 0 0 0 0 0 0 0 127 0"/>
<feOffset dy="14.684"/>
<feGaussianBlur stdDeviation="17.8306"/>
<feColorMatrix type="matrix" values="0 0 0 0 0.0770833 0 0 0 0 0.0967917 0 0 0 0 0.166667 0 0 0 0.01 0"/>
<feBlend mode="normal" in2="BackgroundImageFix" result="effect1_dropShadow"/>
<feColorMatrix in="SourceAlpha" type="matrix" values="0 0 0 0 0 0 0 0 0 0 0 0 0 0 0 0 0 0 127 0"/>
<feOffset dy="35.6613"/>
<feGaussianBlur stdDeviation="40.3811"/>
<feColorMatrix type="matrix" values="0 0 0 0 0.0305357 0 0 0 0 0.128563 0 0 0 0 0.287472 0 0 0 0.06 0"/>
<feBlend mode="normal" in2="effect1_dropShadow" result="effect2_dropShadow"/>
<feBlend mode="normal" in="SourceGraphic" in2="effect2_dropShadow" result="shape"/>
</filter>
</defs>
</svg>
