<svg width="597" height="494" viewBox="0 0 597 494" fill="none" xmlns="http://www.w3.org/2000/svg">
<g clip-path="url(#clip0)">
<rect width="597" height="494" fill="white"/>
<path opacity="0.38" d="M-5.53638 0.610966C-5.53638 -2.76322 -2.80975 -5.49854 0.553725 -5.49854H594.623C597.986 -5.49854 600.713 -2.76322 600.713 0.610968V491.573C600.713 494.947 597.986 497.682 594.623 497.682H0.553719C-2.80975 497.682 -5.53638 494.947 -5.53638 491.573V0.610966Z" fill="#E9EAF0"/>
<mask id="mask0" mask-type="alpha" maskUnits="userSpaceOnUse" x="-10" y="-6" width="621" height="506">
<path d="M-9.66016 0.634984C-9.66016 -2.75247 -6.87064 -5.49854 -3.42959 -5.49854H604.341C607.782 -5.49854 610.572 -2.75246 610.572 0.634987V493.527C610.572 496.914 607.782 499.66 604.341 499.66H-3.4296C-6.87064 499.66 -9.66016 496.914 -9.66016 493.527V0.634984Z" fill="#E9EAF0"/>
</mask>
<g mask="url(#mask0)">
<g filter="url(#filter0_dd)">
<path d="M48.2078 58.298C48.2078 54.9843 50.8941 52.298 54.2078 52.298H543.072C546.386 52.298 549.072 54.9843 549.072 58.298V543.265C549.072 546.579 546.386 549.265 543.072 549.265H54.2078C50.8941 549.265 48.2078 546.579 48.2078 543.265V58.298Z" fill="white"/>
</g>
<path d="M72.2041 81.2773C72.2041 77.9636 74.8904 75.2773 78.2041 75.2773H283.638C286.952 75.2773 289.638 77.9636 289.638 81.2773V165.18C289.638 168.494 286.952 171.18 283.638 171.18H78.2041C74.8904 171.18 72.2041 168.494 72.2041 165.18V81.2773Z" fill="white"/>
<path fill-rule="evenodd" clip-rule="evenodd" d="M283.638 76.2773H78.2041C75.4427 76.2773 73.2041 78.5159 73.2041 81.2773V165.18C73.2041 167.941 75.4427 170.18 78.2041 170.18H283.638C286.4 170.18 288.638 167.941 288.638 165.18V81.2773C288.638 78.5159 286.4 76.2773 283.638 76.2773ZM78.2041 75.2773C74.8904 75.2773 72.2041 77.9636 72.2041 81.2773V165.18C72.2041 168.494 74.8904 171.18 78.2041 171.18H283.638C286.952 171.18 289.638 168.494 289.638 165.18V81.2773C289.638 77.9636 286.952 75.2773 283.638 75.2773H78.2041Z" fill="#E9EAF0"/>
<path fill-rule="evenodd" clip-rule="evenodd" d="M203.84 145.865L209.997 139.709L208.724 138.436L202.568 144.592L203.84 145.865Z" fill="#65CC32"/>
<path fill-rule="evenodd" clip-rule="evenodd" d="M216.153 144.592L209.367 137.805L208.094 139.078L214.881 145.865L216.153 144.592Z" fill="#65CC32"/>
<path d="M72.2041 197.18C72.2041 193.866 74.8904 191.18 78.2041 191.18H519.99C523.304 191.18 525.99 193.866 525.99 197.18V469.813C525.99 473.126 523.304 475.813 519.99 475.813H78.2041C74.8904 475.813 72.2041 473.126 72.2041 469.813V197.18Z" fill="white"/>
<path fill-rule="evenodd" clip-rule="evenodd" d="M519.99 192.18H78.2041C75.4427 192.18 73.2041 194.419 73.2041 197.18V469.813C73.2041 472.574 75.4427 474.813 78.2041 474.813H519.99C522.751 474.813 524.99 472.574 524.99 469.813V197.18C524.99 194.419 522.751 192.18 519.99 192.18ZM78.2041 191.18C74.8904 191.18 72.2041 193.866 72.2041 197.18V469.813C72.2041 473.126 74.8904 475.813 78.2041 475.813H519.99C523.304 475.813 525.99 473.126 525.99 469.813V197.18C525.99 193.866 523.304 191.18 519.99 191.18H78.2041Z" fill="#E9EAF0"/>
<path d="M188.829 446.197H189.162C190.323 446.197 191.061 445.459 191.061 444.289V439.492H190.206V444.298C190.206 444.955 189.801 445.369 189.162 445.369H188.829V446.197Z" fill="#888B94"/>
<path d="M194.351 441.319C193.469 441.319 192.695 441.823 192.425 442.471L193.118 442.831C193.325 442.363 193.775 442.057 194.351 442.057C194.981 442.057 195.431 442.417 195.431 442.966V443.101L193.775 443.47C192.812 443.686 192.245 444.172 192.245 444.874C192.245 445.711 192.929 446.305 193.946 446.305C194.558 446.305 195.125 446.008 195.449 445.531V446.197H196.205V442.966C196.205 441.994 195.44 441.319 194.351 441.319ZM193.991 445.612C193.424 445.612 193.064 445.324 193.064 444.874C193.064 444.487 193.415 444.19 193.955 444.073L195.431 443.731V444.145C195.431 444.982 194.828 445.612 193.991 445.612Z" fill="#888B94"/>
<path d="M199.53 441.319C198.945 441.319 198.432 441.562 198.153 441.976V441.427H197.397V446.197H198.171V443.308C198.171 442.561 198.648 442.066 199.359 442.066C200.079 442.066 200.538 442.552 200.538 443.308V446.197H201.312V443.056C201.312 442.057 200.565 441.319 199.53 441.319Z" fill="#888B94"/>
<path d="M108.178 428.949C108.178 428.049 107.629 427.482 106.531 427.149L106.162 427.041V424.692C106.729 424.836 107.161 425.241 107.377 425.862L108.124 425.511C107.863 424.746 107.143 424.098 106.162 423.936V423.009H105.478V423.9C104.29 423.963 103.471 424.71 103.471 425.745C103.471 426.573 104.011 427.248 105.082 427.563L105.478 427.68V430.02C104.803 429.885 104.281 429.417 104.02 428.661L103.264 428.994C103.552 429.894 104.38 430.623 105.478 430.785V431.604H106.162V430.803C107.368 430.713 108.178 429.984 108.178 428.949ZM105.334 426.789C104.677 426.6 104.326 426.204 104.326 425.691C104.326 425.115 104.776 424.71 105.478 424.647V426.834L105.334 426.789ZM106.162 430.056V427.887L106.333 427.941C106.999 428.139 107.323 428.445 107.323 429.012C107.323 429.57 106.873 429.975 106.162 430.056Z" fill="#888B94"/>
<path d="M111.992 430.812C113.585 430.812 114.647 429.426 114.647 427.347C114.647 425.277 113.585 423.891 111.983 423.891C110.399 423.891 109.328 425.277 109.328 427.347C109.328 429.417 110.408 430.812 111.992 430.812ZM111.992 430.02C110.903 430.02 110.183 428.958 110.183 427.347C110.183 425.736 110.894 424.683 111.983 424.683C113.081 424.683 113.801 425.736 113.801 427.347C113.801 428.967 113.081 430.02 111.992 430.02Z" fill="#888B94"/>
<path d="M96.9457 262.136C96.9457 261.236 96.3967 260.669 95.2987 260.336L94.9297 260.228V257.879C95.4967 258.023 95.9287 258.428 96.1447 259.049L96.8917 258.698C96.6307 257.933 95.9107 257.285 94.9297 257.123V256.196H94.2457V257.087C93.0577 257.15 92.2387 257.897 92.2387 258.932C92.2387 259.76 92.7787 260.435 93.8497 260.75L94.2457 260.867V263.207C93.5707 263.072 93.0487 262.604 92.7877 261.848L92.0317 262.181C92.3197 263.081 93.1477 263.81 94.2457 263.972V264.791H94.9297V263.99C96.1357 263.9 96.9457 263.171 96.9457 262.136ZM94.1017 259.976C93.4447 259.787 93.0937 259.391 93.0937 258.878C93.0937 258.302 93.5437 257.897 94.2457 257.834V260.021L94.1017 259.976ZM94.9297 263.243V261.074L95.1007 261.128C95.7667 261.326 96.0907 261.632 96.0907 262.199C96.0907 262.757 95.6407 263.162 94.9297 263.243Z" fill="#888B94"/>
<path d="M98.0061 263.891H102.398V263.153H99.1671L100.823 261.407C101.795 260.39 102.236 259.706 102.236 258.959C102.236 257.852 101.381 257.078 100.184 257.078C99.1131 257.078 98.2581 257.654 97.9521 258.563L98.6271 258.905C98.8701 258.212 99.41 257.834 100.166 257.834C100.931 257.834 101.381 258.257 101.381 258.995C101.381 259.679 100.958 260.21 99.8601 261.371L97.9971 263.315L98.0061 263.891Z" fill="#888B94"/>
<path d="M106.301 263.999C107.894 263.999 108.956 262.613 108.956 260.534C108.956 258.464 107.894 257.078 106.292 257.078C104.708 257.078 103.637 258.464 103.637 260.534C103.637 262.604 104.717 263.999 106.301 263.999ZM106.301 263.207C105.212 263.207 104.492 262.145 104.492 260.534C104.492 258.923 105.203 257.87 106.292 257.87C107.39 257.87 108.11 258.923 108.11 260.534C108.11 262.154 107.39 263.207 106.301 263.207Z" fill="#888B94"/>
<path d="M112.915 263.999C114.508 263.999 115.57 262.613 115.57 260.534C115.57 258.464 114.508 257.078 112.906 257.078C111.322 257.078 110.251 258.464 110.251 260.534C110.251 262.604 111.331 263.999 112.915 263.999ZM112.915 263.207C111.826 263.207 111.106 262.145 111.106 260.534C111.106 258.923 111.817 257.87 112.906 257.87C114.004 257.87 114.724 258.923 114.724 260.534C114.724 262.154 114.004 263.207 112.915 263.207Z" fill="#888B94"/>
<path d="M119.493 259.679L121.698 257.186H120.69L117.846 260.381V257.186H116.991V263.891H117.846V261.551L118.926 260.336L121.068 263.891H122.058L119.493 259.679Z" fill="#888B94"/>
<path d="M99.5297 295.498C99.5297 294.598 98.9807 294.031 97.8827 293.698L97.5137 293.59V291.241C98.0807 291.385 98.5127 291.79 98.7287 292.411L99.4757 292.06C99.2147 291.295 98.4947 290.647 97.5137 290.485V289.558H96.8297V290.449C95.6417 290.512 94.8227 291.259 94.8227 292.294C94.8227 293.122 95.3627 293.797 96.4337 294.112L96.8297 294.229V296.569C96.1547 296.434 95.6327 295.966 95.3717 295.21L94.6157 295.543C94.9037 296.443 95.7317 297.172 96.8297 297.334V298.153H97.5137V297.352C98.7197 297.262 99.5297 296.533 99.5297 295.498ZM96.6857 293.338C96.0287 293.149 95.6777 292.753 95.6777 292.24C95.6777 291.664 96.1277 291.259 96.8297 291.196V293.383L96.6857 293.338ZM97.5137 296.605V294.436L97.6847 294.49C98.3507 294.688 98.6747 294.994 98.6747 295.561C98.6747 296.119 98.2247 296.524 97.5137 296.605Z" fill="#888B94"/>
<path d="M101.634 297.253H102.489V290.548H100.374V291.286H101.634V297.253Z" fill="#888B94"/>
<path d="M106.748 292.978C106.316 292.978 105.947 293.077 105.641 293.293L105.866 291.277H108.746V290.539H105.263L104.849 294.211L105.425 294.337C105.65 293.959 106.127 293.734 106.676 293.734C107.549 293.734 108.152 294.319 108.152 295.165C108.152 296.02 107.549 296.605 106.676 296.605C105.956 296.605 105.308 296.191 105.038 295.534L104.381 295.876C104.723 296.794 105.605 297.361 106.676 297.361C108.044 297.361 109.007 296.443 109.007 295.147C109.007 293.878 108.071 292.978 106.748 292.978Z" fill="#888B94"/>
<path d="M112.915 297.361C114.508 297.361 115.57 295.975 115.57 293.896C115.57 291.826 114.508 290.44 112.906 290.44C111.322 290.44 110.251 291.826 110.251 293.896C110.251 295.966 111.331 297.361 112.915 297.361ZM112.915 296.569C111.826 296.569 111.106 295.507 111.106 293.896C111.106 292.285 111.817 291.232 112.906 291.232C114.004 291.232 114.724 292.285 114.724 293.896C114.724 295.516 114.004 296.569 112.915 296.569Z" fill="#888B94"/>
<path d="M119.493 293.041L121.698 290.548H120.69L117.846 293.743V290.548H116.991V297.253H117.846V294.913L118.926 293.698L121.068 297.253H122.058L119.493 293.041Z" fill="#888B94"/>
<path d="M98.6332 328.861C98.6332 327.961 98.0842 327.394 96.9862 327.061L96.6172 326.953V324.604C97.1842 324.748 97.6162 325.153 97.8322 325.774L98.5792 325.423C98.3182 324.658 97.5982 324.01 96.6172 323.848V322.921H95.9332V323.812C94.7452 323.875 93.9262 324.622 93.9262 325.657C93.9262 326.485 94.4662 327.16 95.5372 327.475L95.9332 327.592V329.932C95.2582 329.797 94.7362 329.329 94.4752 328.573L93.7192 328.906C94.0072 329.806 94.8352 330.535 95.9332 330.697V331.516H96.6172V330.715C97.8232 330.625 98.6332 329.896 98.6332 328.861ZM95.7892 326.701C95.1322 326.512 94.7812 326.116 94.7812 325.603C94.7812 325.027 95.2312 324.622 95.9332 324.559V326.746L95.7892 326.701ZM96.6172 329.968V327.799L96.7882 327.853C97.4542 328.051 97.7782 328.357 97.7782 328.924C97.7782 329.482 97.3282 329.887 96.6172 329.968Z" fill="#888B94"/>
<path d="M100.738 330.616H101.593V323.911H99.4776V324.649H100.738V330.616Z" fill="#888B94"/>
<path d="M106.301 330.724C107.894 330.724 108.956 329.338 108.956 327.259C108.956 325.189 107.894 323.803 106.292 323.803C104.708 323.803 103.637 325.189 103.637 327.259C103.637 329.329 104.717 330.724 106.301 330.724ZM106.301 329.932C105.212 329.932 104.492 328.87 104.492 327.259C104.492 325.648 105.203 324.595 106.292 324.595C107.39 324.595 108.11 325.648 108.11 327.259C108.11 328.879 107.39 329.932 106.301 329.932Z" fill="#888B94"/>
<path d="M112.915 330.724C114.508 330.724 115.57 329.338 115.57 327.259C115.57 325.189 114.508 323.803 112.906 323.803C111.322 323.803 110.251 325.189 110.251 327.259C110.251 329.329 111.331 330.724 112.915 330.724ZM112.915 329.932C111.826 329.932 111.106 328.87 111.106 327.259C111.106 325.648 111.817 324.595 112.906 324.595C114.004 324.595 114.724 325.648 114.724 327.259C114.724 328.879 114.004 329.932 112.915 329.932Z" fill="#888B94"/>
<path d="M119.493 326.404L121.698 323.911H120.69L117.846 327.106V323.911H116.991V330.616H117.846V328.276L118.926 327.061L121.068 330.616H122.058L119.493 326.404Z" fill="#888B94"/>
<path d="M103.384 362.223C103.384 361.323 102.835 360.756 101.737 360.423L101.368 360.315V357.966C101.935 358.11 102.367 358.515 102.583 359.136L103.33 358.785C103.069 358.02 102.349 357.372 101.368 357.21V356.283H100.684V357.174C99.4957 357.237 98.6767 357.984 98.6767 359.019C98.6767 359.847 99.2167 360.522 100.288 360.837L100.684 360.954V363.294C100.009 363.159 99.4867 362.691 99.2257 361.935L98.4697 362.268C98.7577 363.168 99.5857 363.897 100.684 364.059V364.878H101.368V364.077C102.574 363.987 103.384 363.258 103.384 362.223ZM100.54 360.063C99.8827 359.874 99.5317 359.478 99.5317 358.965C99.5317 358.389 99.9817 357.984 100.684 357.921V360.108L100.54 360.063ZM101.368 363.33V361.161L101.539 361.215C102.205 361.413 102.529 361.719 102.529 362.286C102.529 362.844 102.079 363.249 101.368 363.33Z" fill="#888B94"/>
<path d="M106.748 359.703C106.316 359.703 105.947 359.802 105.641 360.018L105.866 358.002H108.746V357.264H105.263L104.849 360.936L105.425 361.062C105.65 360.684 106.127 360.459 106.676 360.459C107.549 360.459 108.152 361.044 108.152 361.89C108.152 362.745 107.549 363.33 106.676 363.33C105.956 363.33 105.308 362.916 105.038 362.259L104.381 362.601C104.723 363.519 105.605 364.086 106.676 364.086C108.044 364.086 109.007 363.168 109.007 361.872C109.007 360.603 108.071 359.703 106.748 359.703Z" fill="#888B94"/>
<path d="M112.915 364.086C114.508 364.086 115.57 362.7 115.57 360.621C115.57 358.551 114.508 357.165 112.906 357.165C111.322 357.165 110.251 358.551 110.251 360.621C110.251 362.691 111.331 364.086 112.915 364.086ZM112.915 363.294C111.826 363.294 111.106 362.232 111.106 360.621C111.106 359.01 111.817 357.957 112.906 357.957C114.004 357.957 114.724 359.01 114.724 360.621C114.724 362.241 114.004 363.294 112.915 363.294Z" fill="#888B94"/>
<path d="M119.493 359.766L121.698 357.273H120.69L117.846 360.468V357.273H116.991V363.978H117.846V361.638L118.926 360.423L121.068 363.978H122.058L119.493 359.766Z" fill="#888B94"/>
<path d="M104.456 395.586C104.456 394.686 103.907 394.119 102.809 393.786L102.44 393.678V391.329C103.007 391.473 103.439 391.878 103.655 392.499L104.402 392.148C104.141 391.383 103.421 390.735 102.44 390.573V389.646H101.756V390.537C100.568 390.6 99.749 391.347 99.749 392.382C99.749 393.21 100.289 393.885 101.36 394.2L101.756 394.317V396.657C101.081 396.522 100.559 396.054 100.298 395.298L99.542 395.631C99.83 396.531 100.658 397.26 101.756 397.422V398.241H102.44V397.44C103.646 397.35 104.456 396.621 104.456 395.586ZM101.612 393.426C100.955 393.237 100.604 392.841 100.604 392.328C100.604 391.752 101.054 391.347 101.756 391.284V393.471L101.612 393.426ZM102.44 396.693V394.524L102.611 394.578C103.277 394.776 103.601 395.082 103.601 395.649C103.601 396.207 103.151 396.612 102.44 396.693Z" fill="#888B94"/>
<path d="M105.516 397.341H109.908V396.603H106.677L108.333 394.857C109.305 393.84 109.746 393.156 109.746 392.409C109.746 391.302 108.891 390.528 107.694 390.528C106.623 390.528 105.768 391.104 105.462 392.013L106.137 392.355C106.38 391.662 106.92 391.284 107.676 391.284C108.441 391.284 108.891 391.707 108.891 392.445C108.891 393.129 108.468 393.66 107.37 394.821L105.507 396.765L105.516 397.341Z" fill="#888B94"/>
<path d="M113.362 393.066C112.93 393.066 112.561 393.165 112.255 393.381L112.48 391.365H115.36V390.627H111.877L111.463 394.299L112.039 394.425C112.264 394.047 112.741 393.822 113.29 393.822C114.163 393.822 114.766 394.407 114.766 395.253C114.766 396.108 114.163 396.693 113.29 396.693C112.57 396.693 111.922 396.279 111.652 395.622L110.995 395.964C111.337 396.882 112.219 397.449 113.29 397.449C114.658 397.449 115.621 396.531 115.621 395.235C115.621 393.966 114.685 393.066 113.362 393.066Z" fill="#888B94"/>
<path d="M119.493 393.129L121.698 390.636H120.69L117.846 393.831V390.636H116.991V397.341H117.846V395.001L118.926 393.786L121.068 397.341H122.058L119.493 393.129Z" fill="#888B94"/>
<path d="M249.113 446.197H249.968V443.245H253.253V442.498H249.968V440.239H253.487V439.492H249.113V446.197Z" fill="#888B94"/>
<path d="M258.769 443.605C258.769 442.39 257.905 441.319 256.546 441.319C255.214 441.319 254.224 442.363 254.224 443.803C254.224 445.243 255.241 446.305 256.609 446.305C257.59 446.305 258.364 445.774 258.661 445.117L257.986 444.757C257.734 445.243 257.293 445.603 256.618 445.603C255.781 445.603 255.07 444.991 255.034 444.046H258.733C258.76 443.893 258.769 443.74 258.769 443.605ZM255.052 443.38C255.16 442.516 255.799 442.003 256.546 442.003C257.248 442.003 257.905 442.588 257.914 443.38H255.052Z" fill="#888B94"/>
<path d="M262.256 441.319C261.527 441.319 260.888 441.625 260.555 442.129V439.492H259.781V446.197H260.537V445.504C260.888 446.017 261.536 446.305 262.247 446.305C263.597 446.305 264.659 445.252 264.659 443.812C264.659 442.372 263.597 441.319 262.256 441.319ZM262.202 445.558C261.257 445.558 260.555 444.82 260.555 443.812C260.555 442.813 261.257 442.066 262.202 442.066C263.138 442.066 263.84 442.813 263.84 443.812C263.84 444.82 263.138 445.558 262.202 445.558Z" fill="#888B94"/>
<path d="M314.851 439.492L312.547 442.777L310.243 439.492H309.469V446.197H310.324V441.058L312.511 444.199H312.583L314.77 441.094V446.197H315.625V439.492H314.851Z" fill="#888B94"/>
<path d="M318.919 441.319C318.037 441.319 317.263 441.823 316.993 442.471L317.686 442.831C317.893 442.363 318.343 442.057 318.919 442.057C319.549 442.057 319.999 442.417 319.999 442.966V443.101L318.343 443.47C317.38 443.686 316.813 444.172 316.813 444.874C316.813 445.711 317.497 446.305 318.514 446.305C319.126 446.305 319.693 446.008 320.017 445.531V446.197H320.773V442.966C320.773 441.994 320.008 441.319 318.919 441.319ZM318.559 445.612C317.992 445.612 317.632 445.324 317.632 444.874C317.632 444.487 317.983 444.19 318.523 444.073L319.999 443.731V444.145C319.999 444.982 319.396 445.612 318.559 445.612Z" fill="#888B94"/>
<path d="M323.999 441.373C323.423 441.373 322.964 441.58 322.712 442.021V441.427H321.965V446.197H322.739V443.353C322.739 442.561 323.198 442.111 323.882 442.111H324.386V441.373H323.999Z" fill="#888B94"/>
<path d="M373.991 439.492H373.01L370.58 446.197H371.48L372.038 444.595H374.963L375.521 446.197H376.421L373.991 439.492ZM372.299 443.848L373.505 440.419L374.702 443.848H372.299Z" fill="#888B94"/>
<path d="M379.853 441.319C379.115 441.319 378.467 441.634 378.143 442.156V441.427H377.387V447.997H378.161V445.54C378.512 446.017 379.133 446.305 379.835 446.305C381.194 446.305 382.265 445.252 382.265 443.803C382.265 442.354 381.194 441.319 379.853 441.319ZM379.808 445.558C378.854 445.558 378.161 444.82 378.161 443.812C378.161 442.804 378.863 442.066 379.808 442.066C380.744 442.066 381.446 442.804 381.446 443.812C381.446 444.82 380.753 445.558 379.808 445.558Z" fill="#888B94"/>
<path d="M385.393 441.373C384.817 441.373 384.358 441.58 384.106 442.021V441.427H383.359V446.197H384.133V443.353C384.133 442.561 384.592 442.111 385.276 442.111H385.78V441.373H385.393Z" fill="#888B94"/>
<path d="M437.477 439.492L435.173 442.777L432.869 439.492H432.095V446.197H432.95V441.058L435.137 444.199H435.209L437.396 441.094V446.197H438.251V439.492H437.477Z" fill="#888B94"/>
<path d="M441.544 441.319C440.662 441.319 439.888 441.823 439.618 442.471L440.311 442.831C440.518 442.363 440.968 442.057 441.544 442.057C442.174 442.057 442.624 442.417 442.624 442.966V443.101L440.968 443.47C440.005 443.686 439.438 444.172 439.438 444.874C439.438 445.711 440.122 446.305 441.139 446.305C441.751 446.305 442.318 446.008 442.642 445.531V446.197H443.398V442.966C443.398 441.994 442.633 441.319 441.544 441.319ZM441.184 445.612C440.617 445.612 440.257 445.324 440.257 444.874C440.257 444.487 440.608 444.19 441.148 444.073L442.624 443.731V444.145C442.624 444.982 442.021 445.612 441.184 445.612Z" fill="#888B94"/>
<path d="M447.956 441.418L446.489 445.108L445.022 441.418H444.14L446.048 446.152L445.841 446.647C445.697 446.98 445.517 447.412 444.815 447.412C444.626 447.412 444.41 447.385 444.32 447.358V448.051C444.5 448.123 444.734 448.15 444.95 448.15C446.066 448.15 446.408 447.394 446.651 446.791L448.856 441.418H447.956Z" fill="#888B94"/>
<path opacity="0.32" d="M401.077 209.776C401.077 208.671 401.972 207.776 403.077 207.776H501.105C502.21 207.776 503.105 208.671 503.105 209.776V234.342C503.105 235.446 502.21 236.342 501.105 236.342H403.077C401.972 236.342 401.077 235.447 401.077 234.342V209.776Z" fill="#E9EAF0"/>
<path fill-rule="evenodd" clip-rule="evenodd" d="M487.002 220.089C487.195 219.892 487.512 219.889 487.709 220.082L490.094 222.418L492.479 220.082C492.677 219.889 492.993 219.892 493.186 220.089C493.38 220.286 493.376 220.603 493.179 220.796L490.444 223.475C490.25 223.666 489.939 223.666 489.744 223.475L487.009 220.796C486.812 220.603 486.808 220.286 487.002 220.089Z" fill="#888B94"/>
<path d="M416.138 217.864L413.938 221.318L411.727 217.864H410.572L413.421 222.297V226.059H414.466V222.297L417.293 217.864H416.138Z" fill="#4B5166"/>
<path d="M422.155 222.891C422.155 221.406 421.099 220.097 419.438 220.097C417.81 220.097 416.6 221.373 416.6 223.133C416.6 224.893 417.843 226.191 419.515 226.191C420.714 226.191 421.66 225.542 422.023 224.739L421.198 224.299C420.89 224.893 420.351 225.333 419.526 225.333C418.503 225.333 417.634 224.585 417.59 223.43H422.111C422.144 223.243 422.155 223.056 422.155 222.891ZM417.612 222.616C417.744 221.56 418.525 220.933 419.438 220.933C420.296 220.933 421.099 221.648 421.11 222.616H417.612Z" fill="#4B5166"/>
<path d="M425.305 220.097C424.227 220.097 423.281 220.713 422.951 221.505L423.798 221.945C424.051 221.373 424.601 220.999 425.305 220.999C426.075 220.999 426.625 221.439 426.625 222.11V222.275L424.601 222.726C423.424 222.99 422.731 223.584 422.731 224.442C422.731 225.465 423.567 226.191 424.81 226.191C425.558 226.191 426.251 225.828 426.647 225.245V226.059H427.571V222.11C427.571 220.922 426.636 220.097 425.305 220.097ZM424.865 225.344C424.172 225.344 423.732 224.992 423.732 224.442C423.732 223.969 424.161 223.606 424.821 223.463L426.625 223.045V223.551C426.625 224.574 425.888 225.344 424.865 225.344Z" fill="#4B5166"/>
<path d="M431.184 220.163C430.48 220.163 429.919 220.416 429.611 220.955V220.229H428.698V226.059H429.644V222.583C429.644 221.615 430.205 221.065 431.041 221.065H431.657V220.163H431.184Z" fill="#4B5166"/>
<path d="M432.904 221.439H433.938V220.141H432.904V221.439ZM432.904 226.059H433.938V224.761H432.904V226.059Z" fill="#4B5166"/>
<path d="M437.248 226.059H442.616V225.157H438.667L440.691 223.023C441.879 221.78 442.418 220.944 442.418 220.031C442.418 218.678 441.373 217.732 439.91 217.732C438.601 217.732 437.556 218.436 437.182 219.547L438.007 219.965C438.304 219.118 438.964 218.656 439.888 218.656C440.823 218.656 441.373 219.173 441.373 220.075C441.373 220.911 440.856 221.56 439.514 222.979L437.237 225.355L437.248 226.059Z" fill="#4B5166"/>
<path d="M447.057 226.191C449.004 226.191 450.302 224.497 450.302 221.956C450.302 219.426 449.004 217.732 447.046 217.732C445.11 217.732 443.801 219.426 443.801 221.956C443.801 224.486 445.121 226.191 447.057 226.191ZM447.057 225.223C445.726 225.223 444.846 223.925 444.846 221.956C444.846 219.987 445.715 218.7 447.046 218.7C448.388 218.7 449.268 219.987 449.268 221.956C449.268 223.936 448.388 225.223 447.057 225.223Z" fill="#4B5166"/>
<path d="M451.444 226.059H456.812V225.157H452.863L454.887 223.023C456.075 221.78 456.614 220.944 456.614 220.031C456.614 218.678 455.569 217.732 454.106 217.732C452.797 217.732 451.752 218.436 451.378 219.547L452.203 219.965C452.5 219.118 453.16 218.656 454.084 218.656C455.019 218.656 455.569 219.173 455.569 220.075C455.569 220.911 455.052 221.56 453.71 222.979L451.433 225.355L451.444 226.059Z" fill="#4B5166"/>
<path d="M463.873 223.298H462.751V217.864H461.772L457.625 223.298V224.156H461.794V226.059H462.751V224.156H463.873V223.298ZM458.692 223.298L461.794 219.195V223.298H458.692Z" fill="#4B5166"/>
<path d="M98.936 228.227C101.148 228.227 102.646 227.009 102.646 225.203C102.646 223.803 101.764 222.879 100.042 222.347L98.068 221.745C97.228 221.493 96.78 221.017 96.78 220.373C96.78 219.575 97.508 219.015 98.6 219.015C99.79 219.015 100.686 219.645 101.064 220.751L102.59 220.051C102.058 218.581 100.56 217.461 98.586 217.461C96.458 217.461 95.002 218.679 95.002 220.457C95.002 221.801 95.842 222.837 97.564 223.355L99.608 223.985C100.434 224.237 100.868 224.615 100.868 225.329C100.868 226.099 100.112 226.673 98.936 226.673C97.746 226.673 96.668 225.959 96.178 224.657L94.666 225.343C95.198 227.023 96.878 228.227 98.936 228.227Z" fill="#14192B"/>
<path d="M107.303 220.345C105.805 220.345 104.545 221.143 104.111 222.291L105.567 223.019C105.847 222.305 106.491 221.857 107.303 221.857C108.143 221.857 108.717 222.319 108.717 223.019V223.257L106.239 223.789C104.713 224.125 103.831 224.867 103.831 225.987C103.831 227.275 104.895 228.227 106.575 228.227C107.485 228.227 108.255 227.891 108.815 227.219V228.059H110.397V223.019C110.397 221.451 109.137 220.345 107.303 220.345ZM106.771 226.897C106.043 226.897 105.581 226.547 105.581 225.973C105.581 225.511 105.945 225.147 106.575 225.007L108.717 224.531V225.021C108.717 226.085 107.891 226.897 106.771 226.897Z" fill="#14192B"/>
<path d="M112.023 228.059H113.703V217.629H112.023V228.059Z" fill="#14192B"/>
<path d="M122.556 224.013C122.556 222.011 121.044 220.345 118.916 220.345C116.788 220.345 115.178 222.011 115.178 224.279C115.178 226.491 116.76 228.227 119.042 228.227C120.582 228.227 121.814 227.443 122.276 226.365L120.89 225.693C120.554 226.309 119.952 226.743 119.056 226.743C117.894 226.743 117.012 225.973 116.928 224.769H122.472C122.528 224.545 122.556 224.279 122.556 224.013ZM116.956 223.467C117.152 222.361 117.936 221.745 118.916 221.745C119.882 221.745 120.694 222.459 120.75 223.467H116.956Z" fill="#14192B"/>
<path d="M126.76 228.227C128.482 228.227 129.672 227.303 129.672 225.945C129.672 224.895 128.972 224.139 127.67 223.775L126.326 223.397C125.892 223.271 125.416 223.033 125.416 222.557C125.416 222.081 125.85 221.759 126.55 221.759C127.404 221.759 128.076 222.193 128.356 222.907L129.672 222.291C129.21 221.087 128.034 220.345 126.55 220.345C124.884 220.345 123.75 221.269 123.75 222.627C123.75 223.649 124.408 224.419 125.724 224.783L127.012 225.119C127.474 225.245 128.006 225.469 128.006 225.987C128.006 226.505 127.516 226.855 126.76 226.855C125.864 226.855 125.122 226.379 124.73 225.483L123.428 226.113C123.904 227.429 125.192 228.227 126.76 228.227Z" fill="#14192B"/>
<path d="M137.468 220.429C136.544 220.429 135.816 220.737 135.424 221.563V220.513H133.842V228.059H135.522V223.789C135.522 222.613 136.222 221.941 137.258 221.941H138.168V220.429H137.468Z" fill="#14192B"/>
<path d="M146.454 224.013C146.454 222.011 144.942 220.345 142.814 220.345C140.686 220.345 139.076 222.011 139.076 224.279C139.076 226.491 140.658 228.227 142.94 228.227C144.48 228.227 145.712 227.443 146.174 226.365L144.788 225.693C144.452 226.309 143.85 226.743 142.954 226.743C141.792 226.743 140.91 225.973 140.826 224.769H146.37C146.426 224.545 146.454 224.279 146.454 224.013ZM140.854 223.467C141.05 222.361 141.834 221.745 142.814 221.745C143.78 221.745 144.592 222.459 144.648 223.467H140.854Z" fill="#14192B"/>
<path d="M151.875 220.345C150.811 220.345 149.901 220.765 149.383 221.465V220.513H147.801V230.859H149.481V227.289C150.013 227.877 150.867 228.227 151.861 228.227C154.017 228.227 155.697 226.519 155.697 224.279C155.697 222.039 154.003 220.345 151.875 220.345ZM151.707 226.673C150.405 226.673 149.481 225.679 149.481 224.293C149.481 222.893 150.405 221.899 151.707 221.899C152.995 221.899 153.947 222.907 153.947 224.293C153.947 225.665 152.995 226.673 151.707 226.673Z" fill="#14192B"/>
<path d="M160.715 228.227C162.913 228.227 164.677 226.561 164.677 224.279C164.677 221.997 162.927 220.345 160.715 220.345C158.489 220.345 156.753 221.997 156.753 224.279C156.753 226.561 158.503 228.227 160.715 228.227ZM160.715 226.673C159.427 226.673 158.503 225.679 158.503 224.293C158.503 222.907 159.427 221.899 160.715 221.899C161.989 221.899 162.927 222.907 162.927 224.293C162.927 225.679 161.989 226.673 160.715 226.673Z" fill="#14192B"/>
<path d="M169.774 220.429C168.85 220.429 168.122 220.737 167.73 221.563V220.513H166.148V228.059H167.828V223.789C167.828 222.613 168.528 221.941 169.564 221.941H170.474V220.429H169.774Z" fill="#14192B"/>
<path d="M175.381 228.143C175.647 228.143 175.983 228.115 176.249 228.073V226.729C176.067 226.757 175.885 226.771 175.745 226.771C174.681 226.771 174.415 226.169 174.415 225.525V222.025H176.207V220.513H174.415V218.175H172.735V219.379C172.735 220.107 172.315 220.513 171.587 220.513H171.363V222.025H172.735V225.525C172.735 227.191 173.687 228.143 175.381 228.143Z" fill="#14192B"/>
<path d="M97.0122 109.736H98.1522V101.792H100.564V100.796H94.5762V101.792H97.0122V109.736Z" fill="#888B94"/>
<path d="M104.035 109.88C105.871 109.88 107.311 108.476 107.311 106.544C107.311 104.612 105.883 103.232 104.035 103.232C102.187 103.232 100.759 104.612 100.759 106.544C100.759 108.476 102.199 109.88 104.035 109.88ZM104.035 108.884C102.799 108.884 101.851 107.888 101.851 106.556C101.851 105.224 102.799 104.228 104.035 104.228C105.271 104.228 106.219 105.224 106.219 106.556C106.219 107.888 105.271 108.884 104.035 108.884Z" fill="#888B94"/>
<path d="M111.324 109.808C111.504 109.808 111.756 109.796 111.96 109.748V108.908C111.828 108.932 111.648 108.944 111.516 108.944C110.424 108.944 110.352 108.2 110.352 107.792V104.36H111.888V103.376H110.352V101.312H109.32V102.44C109.32 103.004 108.96 103.376 108.408 103.376H108.084V104.36H109.32V107.792C109.32 109.076 110.04 109.808 111.324 109.808Z" fill="#888B94"/>
<path d="M115.871 103.232C114.695 103.232 113.663 103.904 113.303 104.768L114.227 105.248C114.503 104.624 115.103 104.216 115.871 104.216C116.711 104.216 117.311 104.696 117.311 105.428V105.608L115.103 106.1C113.819 106.388 113.063 107.036 113.063 107.972C113.063 109.088 113.975 109.88 115.331 109.88C116.147 109.88 116.903 109.484 117.335 108.848V109.736H118.343V105.428C118.343 104.132 117.323 103.232 115.871 103.232ZM115.391 108.956C114.635 108.956 114.155 108.572 114.155 107.972C114.155 107.456 114.623 107.06 115.343 106.904L117.311 106.448V107C117.311 108.116 116.507 108.956 115.391 108.956Z" fill="#888B94"/>
<path d="M119.933 109.736H120.965V100.796H119.933V109.736Z" fill="#888B94"/>
<path d="M129.385 103.376L127.513 108.32L125.641 103.376H124.489L127.033 109.736H127.981L130.537 103.376H129.385Z" fill="#888B94"/>
<path d="M131.666 102.2H132.698V100.796H131.666V102.2ZM131.666 109.736H132.698V103.376H131.666V109.736Z" fill="#888B94"/>
<path d="M136.648 109.88C138.016 109.88 138.964 109.124 138.964 108.02C138.964 107.168 138.388 106.544 137.32 106.232L136.24 105.908C135.688 105.74 135.328 105.452 135.328 105.02C135.328 104.516 135.784 104.18 136.468 104.18C137.224 104.18 137.824 104.576 138.088 105.26L138.952 104.84C138.58 103.844 137.644 103.232 136.468 103.232C135.148 103.232 134.26 103.976 134.26 105.08C134.26 105.944 134.812 106.556 135.88 106.856L136.924 107.144C137.512 107.312 137.896 107.564 137.896 108.02C137.896 108.548 137.392 108.932 136.648 108.932C135.856 108.932 135.172 108.512 134.848 107.708L133.972 108.14C134.38 109.22 135.4 109.88 136.648 109.88Z" fill="#888B94"/>
<path d="M140.232 102.2H141.264V100.796H140.232V102.2ZM140.232 109.736H141.264V103.376H140.232V109.736Z" fill="#888B94"/>
<path d="M145.658 109.808C145.838 109.808 146.09 109.796 146.294 109.748V108.908C146.162 108.932 145.982 108.944 145.85 108.944C144.758 108.944 144.686 108.2 144.686 107.792V104.36H146.222V103.376H144.686V101.312H143.654V102.44C143.654 103.004 143.294 103.376 142.742 103.376H142.418V104.36H143.654V107.792C143.654 109.076 144.374 109.808 145.658 109.808Z" fill="#888B94"/>
<path d="M150.486 109.88C152.322 109.88 153.762 108.476 153.762 106.544C153.762 104.612 152.334 103.232 150.486 103.232C148.638 103.232 147.21 104.612 147.21 106.544C147.21 108.476 148.65 109.88 150.486 109.88ZM150.486 108.884C149.25 108.884 148.302 107.888 148.302 106.556C148.302 105.224 149.25 104.228 150.486 104.228C151.722 104.228 152.67 105.224 152.67 106.556C152.67 107.888 151.722 108.884 150.486 108.884Z" fill="#888B94"/>
<path d="M157.94 103.304C157.172 103.304 156.56 103.58 156.224 104.168V103.376H155.228V109.736H156.26V105.944C156.26 104.888 156.872 104.288 157.784 104.288H158.456V103.304H157.94Z" fill="#888B94"/>
<path d="M162.024 109.88C163.392 109.88 164.34 109.124 164.34 108.02C164.34 107.168 163.764 106.544 162.696 106.232L161.616 105.908C161.064 105.74 160.704 105.452 160.704 105.02C160.704 104.516 161.16 104.18 161.844 104.18C162.6 104.18 163.2 104.576 163.464 105.26L164.328 104.84C163.956 103.844 163.02 103.232 161.844 103.232C160.524 103.232 159.636 103.976 159.636 105.08C159.636 105.944 160.188 106.556 161.256 106.856L162.3 107.144C162.888 107.312 163.272 107.564 163.272 108.02C163.272 108.548 162.768 108.932 162.024 108.932C161.232 108.932 160.548 108.512 160.224 107.708L159.348 108.14C159.756 109.22 160.776 109.88 162.024 109.88Z" fill="#888B94"/>
<path d="M308.556 81.2773C308.556 77.9636 311.242 75.2773 314.556 75.2773H519.99C523.304 75.2773 525.99 77.9636 525.99 81.2773V165.18C525.99 168.494 523.304 171.18 519.99 171.18H314.556C311.242 171.18 308.556 168.494 308.556 165.18V81.2773Z" fill="white"/>
<path fill-rule="evenodd" clip-rule="evenodd" d="M519.99 76.2773H314.556C311.794 76.2773 309.556 78.5159 309.556 81.2773V165.18C309.556 167.941 311.794 170.18 314.556 170.18H519.99C522.751 170.18 524.99 167.941 524.99 165.18V81.2773C524.99 78.5159 522.751 76.2773 519.99 76.2773ZM314.556 75.2773C311.242 75.2773 308.556 77.9636 308.556 81.2773V165.18C308.556 168.494 311.242 171.18 314.556 171.18H519.99C523.304 171.18 525.99 168.494 525.99 165.18V81.2773C525.99 77.9636 523.304 75.2773 519.99 75.2773H314.556Z" fill="#E9EAF0"/>
<path fill-rule="evenodd" clip-rule="evenodd" d="M437.019 147.933L430.862 141.776L432.135 140.503L438.292 146.66L437.019 147.933Z" fill="#65CC32"/>
<path fill-rule="evenodd" clip-rule="evenodd" d="M424.706 146.66L431.45 139.915L432.723 141.188L425.978 147.933L424.706 146.66Z" fill="#65CC32"/>
<path d="M98.4681 147.496H101.77V128.126L94.8281 128.152V130.934H98.4681V147.496Z" fill="#14192B"/>
<path d="M121.603 140.424H118.639V128.126H115.285L106.133 140.424V143.18H115.441V147.496H118.639V143.18H121.603V140.424ZM109.409 140.424L115.441 132.182V140.424H109.409Z" fill="#14192B"/>
<path d="M134.581 137.122C135.933 136.264 136.765 134.73 136.765 133.04C136.765 129.998 134.165 127.814 130.603 127.814C127.041 127.814 124.441 130.024 124.441 133.04C124.441 134.73 125.273 136.29 126.651 137.122C124.727 138.084 123.661 139.748 123.661 141.802C123.661 145.26 126.599 147.808 130.603 147.808C134.607 147.808 137.597 145.26 137.597 141.802C137.597 139.748 136.505 138.11 134.581 137.122ZM130.603 130.596C132.241 130.596 133.411 131.688 133.411 133.248C133.411 134.782 132.241 135.848 130.603 135.848C128.939 135.848 127.795 134.782 127.795 133.248C127.795 131.688 128.965 130.596 130.603 130.596ZM130.603 145C128.471 145 126.963 143.7 126.963 141.828C126.963 139.956 128.471 138.656 130.603 138.656C132.761 138.656 134.269 139.956 134.269 141.828C134.269 143.7 132.761 145 130.603 145Z" fill="#14192B"/>
<path d="M140.635 150.538H142.793L144.717 143.986H141.675L140.635 150.538Z" fill="#14192B"/>
<path d="M155.732 147.808C160.412 147.808 163.48 143.778 163.48 137.798C163.48 131.818 160.386 127.814 155.706 127.814C151.078 127.814 147.958 131.792 147.958 137.798C147.958 143.804 151.104 147.808 155.732 147.808ZM155.732 144.792C152.976 144.792 151.234 142.114 151.234 137.798C151.234 133.482 152.95 130.83 155.706 130.83C158.514 130.83 160.23 133.482 160.23 137.798C160.23 142.14 158.514 144.792 155.732 144.792Z" fill="#14192B"/>
<path d="M172.698 134.912C171.554 134.912 170.618 135.172 169.864 135.666L170.54 130.882L178.496 130.908V128.126H168.252L166.718 138.838L169.188 139.436C169.708 138.344 170.826 137.746 172.178 137.746C174.336 137.746 175.792 139.176 175.792 141.282C175.792 143.414 174.31 144.844 172.204 144.844C170.384 144.844 168.772 143.778 168.122 142.114L165.522 143.544C166.484 146.144 169.084 147.808 172.204 147.808C176.182 147.808 179.094 145 179.094 141.126C179.094 137.486 176.442 134.912 172.698 134.912Z" fill="#14192B"/>
<path d="M192.497 137.122C193.849 136.264 194.681 134.73 194.681 133.04C194.681 129.998 192.081 127.814 188.519 127.814C184.957 127.814 182.357 130.024 182.357 133.04C182.357 134.73 183.189 136.29 184.567 137.122C182.643 138.084 181.577 139.748 181.577 141.802C181.577 145.26 184.515 147.808 188.519 147.808C192.523 147.808 195.513 145.26 195.513 141.802C195.513 139.748 194.421 138.11 192.497 137.122ZM188.519 130.596C190.157 130.596 191.327 131.688 191.327 133.248C191.327 134.782 190.157 135.848 188.519 135.848C186.855 135.848 185.711 134.782 185.711 133.248C185.711 131.688 186.881 130.596 188.519 130.596ZM188.519 145C186.387 145 184.879 143.7 184.879 141.828C184.879 139.956 186.387 138.656 188.519 138.656C190.677 138.656 192.185 139.956 192.185 141.828C192.185 143.7 190.677 145 188.519 145Z" fill="#14192B"/>
<path d="M336.654 100.796V106.82C336.654 108.008 335.742 108.872 334.53 108.872C333.306 108.872 332.406 108.008 332.406 106.82V100.796H331.254V106.82C331.254 108.656 332.55 109.88 334.53 109.88C336.51 109.88 337.806 108.644 337.806 106.82V100.796H336.654Z" fill="#888B94"/>
<path d="M342.597 103.232C341.817 103.232 341.133 103.556 340.761 104.108V103.376H339.753V109.736H340.785V105.884C340.785 104.888 341.421 104.228 342.369 104.228C343.329 104.228 343.941 104.876 343.941 105.884V109.736H344.973V105.548C344.973 104.216 343.977 103.232 342.597 103.232Z" fill="#888B94"/>
<path d="M346.576 102.2H347.608V100.796H346.576V102.2ZM346.576 109.736H347.608V103.376H346.576V109.736Z" fill="#888B94"/>
<path d="M354.474 103.376V104.348C354.03 103.652 353.178 103.232 352.182 103.232C350.406 103.232 348.978 104.612 348.978 106.544C348.978 108.476 350.394 109.88 352.206 109.88C353.154 109.88 353.982 109.496 354.45 108.86V112.136H355.482V103.376H354.474ZM352.254 108.884C350.994 108.884 350.07 107.9 350.07 106.556C350.07 105.212 350.994 104.228 352.254 104.228C353.514 104.228 354.45 105.212 354.45 106.556C354.45 107.9 353.526 108.884 352.254 108.884Z" fill="#888B94"/>
<path d="M361.369 103.376V107.228C361.369 108.224 360.733 108.884 359.797 108.884C358.837 108.884 358.213 108.236 358.213 107.228V103.376H357.181V107.42C357.181 108.776 358.189 109.88 359.569 109.88C360.337 109.88 361.021 109.556 361.393 109.004V109.736H362.401V103.376H361.369Z" fill="#888B94"/>
<path d="M369.921 106.28C369.921 104.66 368.769 103.232 366.957 103.232C365.181 103.232 363.861 104.624 363.861 106.544C363.861 108.464 365.217 109.88 367.041 109.88C368.349 109.88 369.381 109.172 369.777 108.296L368.877 107.816C368.541 108.464 367.953 108.944 367.053 108.944C365.937 108.944 364.989 108.128 364.941 106.868H369.873C369.909 106.664 369.921 106.46 369.921 106.28ZM364.965 105.98C365.109 104.828 365.961 104.144 366.957 104.144C367.893 104.144 368.769 104.924 368.781 105.98H364.965Z" fill="#888B94"/>
<path d="M379.536 100.796L376.896 108.44L374.256 100.796H373.032L376.224 109.736H377.568L380.76 100.796H379.536Z" fill="#888B94"/>
<path d="M381.942 102.2H382.974V100.796H381.942V102.2ZM381.942 109.736H382.974V103.376H381.942V109.736Z" fill="#888B94"/>
<path d="M386.924 109.88C388.292 109.88 389.24 109.124 389.24 108.02C389.24 107.168 388.664 106.544 387.596 106.232L386.516 105.908C385.964 105.74 385.604 105.452 385.604 105.02C385.604 104.516 386.06 104.18 386.744 104.18C387.5 104.18 388.1 104.576 388.364 105.26L389.228 104.84C388.856 103.844 387.92 103.232 386.744 103.232C385.424 103.232 384.536 103.976 384.536 105.08C384.536 105.944 385.088 106.556 386.156 106.856L387.2 107.144C387.788 107.312 388.172 107.564 388.172 108.02C388.172 108.548 387.668 108.932 386.924 108.932C386.132 108.932 385.448 108.512 385.124 107.708L384.248 108.14C384.656 109.22 385.676 109.88 386.924 109.88Z" fill="#888B94"/>
<path d="M390.508 102.2H391.54V100.796H390.508V102.2ZM390.508 109.736H391.54V103.376H390.508V109.736Z" fill="#888B94"/>
<path d="M395.934 109.808C396.114 109.808 396.366 109.796 396.57 109.748V108.908C396.438 108.932 396.258 108.944 396.126 108.944C395.034 108.944 394.962 108.2 394.962 107.792V104.36H396.498V103.376H394.962V101.312H393.93V102.44C393.93 103.004 393.57 103.376 393.018 103.376H392.694V104.36H393.93V107.792C393.93 109.076 394.65 109.808 395.934 109.808Z" fill="#888B94"/>
<path d="M400.762 109.88C402.598 109.88 404.038 108.476 404.038 106.544C404.038 104.612 402.61 103.232 400.762 103.232C398.914 103.232 397.486 104.612 397.486 106.544C397.486 108.476 398.926 109.88 400.762 109.88ZM400.762 108.884C399.526 108.884 398.578 107.888 398.578 106.556C398.578 105.224 399.526 104.228 400.762 104.228C401.998 104.228 402.946 105.224 402.946 106.556C402.946 107.888 401.998 108.884 400.762 108.884Z" fill="#888B94"/>
<path d="M408.216 103.304C407.448 103.304 406.836 103.58 406.5 104.168V103.376H405.504V109.736H406.536V105.944C406.536 104.888 407.148 104.288 408.06 104.288H408.732V103.304H408.216Z" fill="#888B94"/>
<path d="M412.3 109.88C413.668 109.88 414.616 109.124 414.616 108.02C414.616 107.168 414.04 106.544 412.972 106.232L411.892 105.908C411.34 105.74 410.98 105.452 410.98 105.02C410.98 104.516 411.436 104.18 412.12 104.18C412.876 104.18 413.476 104.576 413.74 105.26L414.604 104.84C414.232 103.844 413.296 103.232 412.12 103.232C410.8 103.232 409.912 103.976 409.912 105.08C409.912 105.944 410.464 106.556 411.532 106.856L412.576 107.144C413.164 107.312 413.548 107.564 413.548 108.02C413.548 108.548 413.044 108.932 412.3 108.932C411.508 108.932 410.824 108.512 410.5 107.708L409.624 108.14C410.032 109.22 411.052 109.88 412.3 109.88Z" fill="#888B94"/>
<path d="M339.858 136.51L343.914 131.752V129.126H332.136V131.908L340.222 131.934L335.23 137.706L335.88 139.344C336.4 139.136 337.102 139.006 337.778 139.006C339.962 139.006 341.392 140.358 341.392 142.386C341.392 144.466 339.936 145.844 337.778 145.844C335.932 145.844 334.502 144.856 333.852 143.114L331.226 144.544C332.214 147.17 334.71 148.808 337.778 148.808C341.756 148.808 344.668 146.052 344.668 142.308C344.668 139.266 342.718 136.978 339.858 136.51Z" fill="#14192B"/>
<path d="M346.894 148.496H359.842V145.688H351.106L355.734 140.878C358.282 138.252 359.504 136.38 359.504 134.248C359.504 131.024 357.008 128.814 353.42 128.814C350.274 128.814 347.752 130.452 346.842 133.078L349.468 134.508C350.066 132.766 351.444 131.778 353.264 131.778C355.084 131.778 356.202 132.818 356.202 134.56C356.202 136.146 355.266 137.342 352.146 140.566L346.868 146.052L346.894 148.496Z" fill="#14192B"/>
<path d="M362.884 151.538H365.042L366.966 144.986H363.924L362.884 151.538Z" fill="#14192B"/>
<path d="M377.097 135.912C375.953 135.912 375.017 136.172 374.263 136.666L374.939 131.882L382.895 131.908V129.126H372.651L371.117 139.838L373.587 140.436C374.107 139.344 375.225 138.746 376.577 138.746C378.735 138.746 380.191 140.176 380.191 142.282C380.191 144.414 378.709 145.844 376.603 145.844C374.783 145.844 373.171 144.778 372.521 143.114L369.921 144.544C370.883 147.144 373.483 148.808 376.603 148.808C380.581 148.808 383.493 146 383.493 142.126C383.493 138.486 380.841 135.912 377.097 135.912Z" fill="#14192B"/>
<path d="M396.897 138.122C398.249 137.264 399.081 135.73 399.081 134.04C399.081 130.998 396.481 128.814 392.919 128.814C389.357 128.814 386.757 131.024 386.757 134.04C386.757 135.73 387.589 137.29 388.967 138.122C387.043 139.084 385.977 140.748 385.977 142.802C385.977 146.26 388.915 148.808 392.919 148.808C396.923 148.808 399.913 146.26 399.913 142.802C399.913 140.748 398.821 139.11 396.897 138.122ZM392.919 131.596C394.557 131.596 395.727 132.688 395.727 134.248C395.727 135.782 394.557 136.848 392.919 136.848C391.255 136.848 390.111 135.782 390.111 134.248C390.111 132.688 391.281 131.596 392.919 131.596ZM392.919 146C390.787 146 389.279 144.7 389.279 142.828C389.279 140.956 390.787 139.656 392.919 139.656C395.077 139.656 396.585 140.956 396.585 142.828C396.585 144.7 395.077 146 392.919 146Z" fill="#14192B"/>
<path d="M410.075 148.808C414.755 148.808 417.823 144.778 417.823 138.798C417.823 132.818 414.729 128.814 410.049 128.814C405.421 128.814 402.301 132.792 402.301 138.798C402.301 144.804 405.447 148.808 410.075 148.808ZM410.075 145.792C407.319 145.792 405.577 143.114 405.577 138.798C405.577 134.482 407.293 131.83 410.049 131.83C412.857 131.83 414.573 134.482 414.573 138.798C414.573 143.14 412.857 145.792 410.075 145.792Z" fill="#14192B"/>
<path fill-rule="evenodd" clip-rule="evenodd" d="M134.204 427.204L503.99 427.204V428.204L134.204 428.204V427.204Z" fill="#E9EAF0"/>
<path opacity="0.7" fill-rule="evenodd" clip-rule="evenodd" d="M195.204 427.204L195.204 254.891L196.204 254.891L196.204 427.204L195.204 427.204Z" fill="#E9EAF0"/>
<path opacity="0.7" fill-rule="evenodd" clip-rule="evenodd" d="M256.204 427.204L256.204 254.891L257.204 254.891L257.204 427.204L256.204 427.204Z" fill="#E9EAF0"/>
<path opacity="0.7" fill-rule="evenodd" clip-rule="evenodd" d="M317.204 427.204L317.204 254.891L318.204 254.891L318.204 427.204L317.204 427.204Z" fill="#E9EAF0"/>
<path opacity="0.7" fill-rule="evenodd" clip-rule="evenodd" d="M378.204 427.204L378.204 254.891L379.204 254.891L379.204 427.204L378.204 427.204Z" fill="#E9EAF0"/>
<path opacity="0.7" fill-rule="evenodd" clip-rule="evenodd" d="M439.204 427.204L439.204 254.891L440.204 254.891L440.204 427.204L439.204 427.204Z" fill="#E9EAF0"/>
<path fill-rule="evenodd" clip-rule="evenodd" d="M134.204 427.204L134.204 254.891L135.204 254.891L135.204 427.204L134.204 427.204Z" fill="#E9EAF0"/>
<path fill-rule="evenodd" clip-rule="evenodd" d="M413.562 322.148L493.704 359.749L492.855 361.56L414.149 324.632L375.14 374.044L313.484 340.506L269.029 369.399L228.642 409.642L182.262 394.688L133.744 369.547L134.664 367.771L183.034 392.835L228.095 407.364L267.765 367.835L313.394 338.18L374.615 371.481L413.562 322.148Z" fill="#FFCA42"/>
<path fill-rule="evenodd" clip-rule="evenodd" d="M407.635 291.444L489.229 276.351L488.865 274.384L406.447 289.63L378.586 330.873L315.674 353.401L265.143 340.919L218.814 377.715L182.58 340.505L134.57 399.601L136.123 400.862L182.715 343.511L218.642 380.405L265.617 343.097L315.781 355.487L379.877 332.535L407.635 291.444Z" fill="#0144E4"/>
</g>
</g>
<defs>
<filter id="filter0_dd" x="-32.5545" y="7.19697" width="662.389" height="658.492" filterUnits="userSpaceOnUse" color-interpolation-filters="sRGB">
<feFlood flood-opacity="0" result="BackgroundImageFix"/>
<feColorMatrix in="SourceAlpha" type="matrix" values="0 0 0 0 0 0 0 0 0 0 0 0 0 0 0 0 0 0 127 0"/>
<feOffset dy="14.684"/>
<feGaussianBlur stdDeviation="17.8306"/>
<feColorMatrix type="matrix" values="0 0 0 0 0.0770833 0 0 0 0 0.0967917 0 0 0 0 0.166667 0 0 0 0.01 0"/>
<feBlend mode="normal" in2="BackgroundImageFix" result="effect1_dropShadow"/>
<feColorMatrix in="SourceAlpha" type="matrix" values="0 0 0 0 0 0 0 0 0 0 0 0 0 0 0 0 0 0 127 0"/>
<feOffset dy="35.6613"/>
<feGaussianBlur stdDeviation="40.3811"/>
<feColorMatrix type="matrix" values="0 0 0 0 0.0305357 0 0 0 0 0.128563 0 0 0 0 0.287472 0 0 0 0.06 0"/>
<feBlend mode="normal" in2="effect1_dropShadow" result="effect2_dropShadow"/>
<feBlend mode="normal" in="SourceGraphic" in2="effect2_dropShadow" result="shape"/>
</filter>
<clipPath id="clip0">
<rect width="597" height="494" fill="white"/>
</clipPath>
</defs>
</svg>
