<svg width="256" height="256" viewBox="0 0 256 256" fill="none" xmlns="http://www.w3.org/2000/svg">
<g clip-path="url(#clip0)">
<path d="M146.62 11.9836C146.62 2.04039 159.025 -2.49479 165.438 5.10373L245.88 100.411C252.377 108.109 255.941 117.858 255.941 127.931V243.753C255.941 253.727 243.472 258.245 237.083 250.586L154.401 151.472C149.374 145.445 146.62 137.845 146.62 129.997V11.9836Z" fill="#82A7FF"/>
<path d="M72.6506 11.9836C72.6506 2.04039 85.0553 -2.49479 91.4687 5.10373L171.91 100.411C178.408 108.109 181.972 117.858 181.972 127.931V243.753C181.972 253.727 169.503 258.245 163.114 250.586L80.4318 151.472C75.4043 145.445 72.6506 137.845 72.6506 129.997V11.9836Z" fill="#3A74FF"/>
<path d="M-0.0593262 11.9836C-0.0593262 2.04039 12.3454 -2.49479 18.7587 5.10373L99.2005 100.411C105.698 108.109 109.262 117.858 109.262 127.931V243.753C109.262 253.727 96.7933 258.245 90.4043 250.586L7.72187 151.472C2.69434 145.445 -0.0593262 137.845 -0.0593262 129.997V11.9836Z" fill="#0144E4"/>
</g>
<defs>
<clipPath id="clip0">
<rect width="256" height="256" fill="white"/>
</clipPath>
</defs>
</svg>
